{"glyphs":{"0":{"ha":929,"x_min":0,"x_max":0,"o":"m 278 1031 l 278 1031 b -6 628 122 953 15 797 b 22 565 -19 600 1 579 b 15 515 22 543 15 529 b -12 501 8 508 -6 508 b -6 438 -12 481 -6 458 b 171 76 -6 303 72 169 b 688 42 313 -43 532 -50 b 850 211 758 76 807 140 b 892 742 942 367 949 572 b 829 819 878 776 850 790 b 850 826 836 819 850 826 b 667 1017 800 904 743 968 b 278 1031 553 1088 404 1081 z m 326 1024 l 326 1024 b 349 996 333 1017 340 1010 b 326 996 340 996 333 996 b 369 925 349 975 363 953 b 319 925 356 925 333 925 b 306 961 313 939 313 946 b 249 982 285 953 263 961 b 292 982 263 982 278 982 b 285 1017 292 996 292 1010 b 306 1010 292 1017 299 1010 b 326 1024 313 1017 319 1024 z m 369 982 l 369 982 b 461 1031 397 1003 426 1038 b 525 975 496 1031 525 1003 b 532 508 532 819 525 664 b 539 431 532 481 546 458 b 525 261 525 381 525 317 b 567 268 539 268 553 268 b 532 204 553 247 525 232 b 511 28 518 147 539 76 b 404 0 475 14 440 21 b 383 424 369 140 383 282 b 383 826 376 557 390 692 b 369 854 383 833 376 847 b 383 975 390 890 376 932 b 363 975 376 975 369 975 b 369 982 363 975 369 982 z m 376 1017 l 376 1017 b 376 1003 390 1017 390 1003 b 376 1017 369 1003 369 1017 z m 688 819 l 688 819 b 715 840 694 826 708 833 b 722 813 715 833 722 819 b 631 763 688 813 658 783 b 667 769 644 763 651 769 b 694 756 674 763 688 756 b 694 749 694 749 694 749 b 658 735 688 742 674 742 b 715 721 681 728 694 728 b 589 742 674 713 617 706 b 638 728 610 735 624 735 b 651 749 644 735 651 742 b 589 783 631 756 610 763 b 688 819 631 790 651 833 z m 574 806 l 574 806 b 589 797 581 819 596 806 b 574 806 581 790 567 797 z m 574 790 l 574 790 b 567 735 596 776 589 749 b 546 749 560 742 553 742 b 581 763 553 749 567 756 b 574 790 574 776 574 783 z m 736 749 l 736 749 b 751 783 736 763 743 769 b 765 749 751 769 758 756 b 736 749 758 749 743 749 z m 807 763 l 807 763 b 864 769 829 769 843 776 b 807 763 850 763 829 763 z m 715 756 l 715 756 b 715 742 722 756 722 742 b 715 756 701 742 701 756 z m 857 742 l 857 742 b 864 728 878 756 878 728 b 857 742 850 721 850 742 z m 581 728 l 581 728 b 567 706 596 735 581 699 b 581 728 560 721 567 728 z m 729 728 l 729 728 b 736 706 743 728 743 706 b 729 728 722 699 722 721 z m 271 600 l 271 600 b 313 628 285 614 299 621 b 313 607 313 621 313 614 b 271 600 299 607 285 607 z m 539 628 l 539 628 b 553 614 546 635 560 621 b 539 628 546 607 532 614 z m 31 614 l 31 614 b 38 600 38 621 51 607 b 31 614 31 593 15 607 z m 108 579 l 108 579 b 129 621 93 607 115 614 b 115 600 122 614 115 607 b 164 593 129 600 143 593 b 136 586 150 586 143 586 b 171 557 143 572 157 565 b 164 536 171 550 164 543 b 108 579 143 550 122 565 z m 207 550 l 207 550 b 242 515 221 543 242 536 b 221 481 235 501 228 494 b 256 424 228 451 242 438 b 200 431 242 424 221 431 b 221 458 207 444 214 451 b 200 458 214 458 207 458 b 207 494 207 472 207 481 b 193 488 200 488 193 488 b 207 550 200 508 207 529 z m 624 494 l 624 494 b 658 501 638 494 651 494 b 674 481 667 494 667 488 b 631 472 658 481 644 472 b 624 494 631 481 631 488 z m 256 481 l 256 481 b 263 458 263 488 271 465 b 256 481 249 451 242 472 z m 596 465 l 596 465 b 624 431 610 458 624 444 b 596 465 610 444 603 451 z m 631 458 l 631 458 b 638 444 638 465 644 451 b 631 458 631 444 624 458 z m 313 410 l 313 410 b 326 403 319 424 333 410 b 313 410 319 394 306 403 z m 306 353 l 306 353 b 313 332 313 353 319 339 b 306 353 306 325 292 346 z m 340 261 l 340 261 b 363 268 349 261 356 261 b 376 254 363 261 369 254 b 356 232 369 247 363 240 b 340 261 356 240 349 247 z m 694 232 l 694 232 b 708 218 701 247 715 232 b 694 232 701 211 688 225 z m 715 204 l 715 204 b 772 225 736 211 751 218 b 758 140 779 197 786 163 b 715 204 743 163 729 183 z m 108 190 l 108 190 b 108 176 115 190 115 176 b 108 190 93 176 93 190 z m 256 154 l 256 154 b 306 197 271 169 285 183 b 285 169 299 190 292 176 b 306 154 292 163 299 163 b 285 154 299 154 292 154 b 285 140 285 154 285 147 b 256 154 271 147 263 154 z "},"1":{"ha":615,"x_min":0,"x_max":0,"o":"m 397 1033 l 397 1033 b 1 992 278 978 136 992 l 1 956 b 129 949 44 956 86 956 b 136 914 129 942 136 921 b 193 928 157 921 171 921 b 221 871 200 907 214 892 b 200 843 214 857 207 850 b 136 857 178 850 157 850 b 157 900 143 871 150 885 b 129 907 150 900 143 900 b 129 468 129 758 129 610 b 136 299 129 411 150 356 b 129 38 129 214 136 122 b 1 38 86 38 44 38 l 1 1 b 610 1 207 1 411 1 l 610 38 b 496 38 574 38 532 38 b 468 171 489 79 489 129 b 489 171 475 171 482 171 b 489 532 489 292 489 411 b 418 497 468 525 440 511 b 390 553 411 511 404 532 b 426 525 404 546 418 539 b 454 560 433 539 447 553 b 489 539 468 553 482 546 b 489 660 489 582 489 624 b 461 667 482 667 475 667 b 489 715 475 681 489 694 b 489 1069 496 829 489 949 b 397 1033 461 1054 433 1040 z m 214 949 l 214 949 b 256 949 228 949 242 949 b 263 914 263 935 263 921 b 214 949 235 907 221 928 z m 256 738 l 256 738 b 278 793 249 758 256 779 b 292 738 285 772 285 758 b 256 738 278 738 271 738 z m 397 674 l 397 674 b 447 694 404 694 426 701 b 397 674 433 681 411 674 z m 306 532 l 306 532 b 319 525 306 546 326 532 b 306 532 319 511 299 518 z m 363 433 l 363 433 b 376 419 369 440 383 426 b 363 433 369 411 356 426 z m 411 404 l 411 404 b 433 383 418 397 426 390 b 411 363 426 376 418 369 b 404 383 404 369 404 376 b 411 404 404 390 411 397 z m 214 376 l 214 376 b 214 369 242 376 221 342 b 214 376 214 369 214 369 z m 235 369 l 235 369 b 313 349 263 363 285 356 b 278 342 299 349 292 349 b 326 306 292 326 306 319 b 221 278 292 292 256 285 b 221 299 221 285 221 292 b 271 306 242 299 256 299 b 249 342 263 319 256 333 b 278 342 263 342 271 342 b 235 369 263 349 249 363 z m 340 363 l 340 363 b 363 319 349 349 356 333 b 340 313 356 319 349 313 b 340 363 340 333 340 349 z m 207 349 l 207 349 b 214 326 214 356 228 333 b 207 349 200 319 193 342 z m 447 228 l 447 228 b 468 221 454 235 468 228 b 447 228 468 214 440 214 z "},"2":{"ha":924,"x_min":0,"x_max":0,"o":"m 332 1058 l 332 1058 b 107 974 256 1051 178 1015 b 219 1008 142 981 192 974 b 389 994 276 1008 340 1015 b 488 860 439 967 481 917 b 418 436 517 718 496 563 b 269 315 368 393 318 351 b 15 47 163 253 64 168 b 192 75 78 33 135 47 b 290 61 226 61 256 61 b 311 13 297 40 304 33 b 538 -24 389 -3 467 -17 b 764 82 622 -24 714 13 b 926 351 835 160 883 260 b 899 372 919 358 906 365 b 842 308 876 351 863 331 b 700 294 799 288 750 294 b 297 294 565 288 432 331 b 347 322 311 308 325 315 b 658 422 446 358 565 365 b 686 478 665 443 672 464 b 743 464 707 478 728 471 b 835 542 771 493 806 514 b 771 528 814 535 792 535 b 799 549 778 535 785 542 b 785 563 792 556 792 563 b 806 563 792 563 799 563 b 785 585 799 571 792 578 b 806 599 792 592 799 592 b 764 613 792 599 778 606 b 814 669 778 633 792 656 b 736 747 785 697 750 711 b 764 747 743 747 757 747 b 750 811 764 768 757 789 b 700 944 714 846 693 896 b 728 931 707 938 721 938 b 736 944 728 938 736 944 b 792 931 750 938 771 938 b 531 1051 728 1008 622 1036 b 403 1022 481 1065 439 1051 b 332 1058 418 1072 368 1058 z m 764 740 l 764 740 b 799 704 778 726 785 711 b 835 726 814 711 828 718 b 764 740 814 747 785 740 z m 842 768 l 842 768 b 849 733 842 761 842 747 b 876 768 856 747 863 761 b 842 768 863 768 849 768 z m 750 853 l 750 853 b 778 789 757 832 771 811 b 799 818 785 796 792 811 b 849 796 814 811 828 803 b 821 775 842 789 835 782 b 876 796 842 782 863 789 b 828 860 876 825 856 846 b 750 853 806 881 771 860 z m 842 874 l 842 874 b 849 860 828 867 842 853 b 842 874 856 867 849 881 z m 64 938 l 64 938 b 71 663 -14 867 -21 718 b 290 676 135 613 233 619 b 233 931 361 747 340 903 b 192 903 219 938 206 917 b 92 889 156 910 121 903 b 85 917 85 903 85 910 b 121 931 92 924 107 931 b 64 938 100 938 78 951 z m 247 839 l 247 839 b 269 846 256 846 263 846 b 290 803 276 832 283 818 b 247 789 276 796 263 796 b 247 839 247 803 247 832 z m 510 881 l 510 881 b 544 917 517 896 531 910 b 544 881 544 910 544 896 b 510 881 531 881 517 881 z m 615 796 l 615 796 b 629 789 615 789 622 789 b 629 775 629 789 629 775 b 594 761 622 768 608 768 b 615 796 601 775 608 782 z m 665 740 l 665 740 b 693 761 672 747 679 754 b 700 740 693 754 693 747 b 714 754 700 747 707 754 b 728 754 721 754 728 754 b 700 663 707 726 679 697 b 736 683 714 669 721 676 b 721 619 728 663 721 640 b 679 626 707 619 693 626 b 686 669 679 640 679 656 b 650 656 672 669 658 663 b 636 690 643 669 643 676 b 693 740 658 704 672 726 b 665 740 679 740 672 740 z m 544 740 l 544 740 b 574 711 558 733 565 726 b 538 718 565 718 551 718 b 544 740 544 726 544 733 z m 608 592 l 608 592 b 636 578 615 592 629 585 b 629 486 643 549 636 521 b 601 514 615 493 608 507 b 608 592 622 535 615 563 z m 714 571 l 714 571 b 721 563 721 578 728 571 b 714 571 714 556 707 563 z m 665 528 l 665 528 b 693 563 672 542 686 549 b 736 507 707 542 728 521 b 693 535 721 507 707 521 b 665 528 686 535 672 528 z m 764 556 l 764 556 b 764 535 771 556 778 542 b 764 556 757 528 750 549 z m 665 507 l 665 507 b 672 471 665 493 672 486 b 650 471 665 471 658 471 b 665 507 658 478 658 493 z m 439 288 l 439 288 b 467 281 446 294 460 294 b 439 288 460 267 432 274 z m 460 238 l 460 238 b 538 189 496 231 517 203 b 488 153 524 175 510 153 b 460 238 467 175 467 210 z m 453 203 l 453 203 b 453 189 460 210 467 189 b 453 203 446 182 439 203 z m 565 132 l 565 132 b 574 125 574 139 581 132 b 565 132 565 118 558 125 z "},"3":{"ha":853,"x_min":0,"x_max":0,"o":"m 174 1035 l 174 1035 b 39 851 103 1007 25 936 b 222 717 39 760 138 696 b 314 929 314 732 364 851 b 188 1000 293 979 238 993 b 407 1007 258 1021 336 1042 b 442 943 428 993 442 972 b 449 760 449 879 449 824 b 492 767 463 760 478 767 b 449 739 499 732 469 739 b 428 611 442 696 442 654 b 435 576 421 604 428 590 l 407 583 b 407 604 407 590 407 597 b 272 604 364 590 322 597 b 293 561 279 590 272 554 b 435 569 343 561 392 540 b 442 60 463 399 435 229 b 485 46 456 53 469 53 b 428 11 463 32 442 18 b 421 46 421 18 421 32 b 82 110 307 -11 167 25 b 258 110 138 89 208 67 b 293 293 314 151 314 229 b 46 336 251 385 117 407 b 53 89 -25 272 -18 151 b 371 -25 131 -4 258 -25 b 682 25 478 -18 583 -11 b 838 385 817 81 894 251 b 796 392 824 392 810 392 b 732 385 781 421 753 399 b 725 392 732 385 725 385 b 760 442 739 407 753 421 b 796 442 774 442 781 442 b 796 449 796 449 796 449 b 732 519 774 469 753 499 b 576 583 682 547 625 561 b 774 675 647 604 732 611 b 803 894 824 732 831 817 b 739 979 788 922 767 950 b 456 1071 661 1042 556 1057 b 174 1035 364 1071 265 1064 z m 74 824 l 74 824 b 89 781 82 810 82 794 b 96 810 89 794 96 801 b 74 824 89 817 82 817 z m 647 908 l 647 908 b 682 915 661 915 668 915 b 668 879 675 908 675 894 b 647 908 661 894 654 901 z m 675 872 l 675 872 b 732 894 689 888 710 894 b 732 851 732 879 732 865 b 710 851 725 851 718 851 b 703 838 703 844 703 838 b 675 872 689 844 682 858 z m 151 865 l 151 865 b 194 865 167 865 181 865 b 201 831 201 851 201 838 b 151 865 174 824 160 844 z m 67 824 l 67 824 b 131 844 89 831 110 838 b 144 760 144 817 160 788 b 74 774 124 760 96 767 b 67 824 74 788 74 810 z m 746 844 l 746 844 b 746 824 753 844 760 831 b 746 844 739 817 732 838 z m 540 639 l 540 639 b 569 654 556 647 563 647 b 569 625 569 647 569 632 b 540 625 563 625 556 625 b 540 639 540 625 540 639 z m 492 590 l 492 590 b 499 576 499 597 506 583 b 492 590 485 569 478 590 z m 519 513 l 519 513 b 513 499 526 513 519 499 b 519 513 499 506 506 519 z m 547 442 l 547 442 b 576 449 556 442 563 449 b 569 343 583 414 583 378 b 540 371 563 350 547 364 b 569 399 547 378 563 392 b 547 442 563 414 556 428 z m 533 421 l 533 421 b 533 414 563 421 540 385 b 533 421 533 414 533 414 z m 732 350 l 732 350 b 796 329 753 350 774 343 b 803 357 796 336 803 350 b 824 286 810 336 817 307 b 760 272 803 272 781 258 b 739 229 753 258 746 244 b 696 321 725 265 718 293 b 732 350 703 329 718 343 z m 604 350 l 604 350 b 604 329 611 350 618 336 b 604 350 597 329 590 343 z m 618 329 l 618 329 b 640 314 625 321 632 314 b 632 300 640 307 640 300 b 604 300 625 300 618 300 b 618 329 611 307 611 321 z m 53 272 l 53 272 b 67 293 60 279 60 286 b 89 251 74 279 82 265 b 53 272 74 258 67 265 z m 174 286 l 174 286 b 251 265 201 279 222 272 b 215 258 238 265 222 258 b 265 222 229 244 251 236 b 160 194 238 208 194 201 b 160 215 160 201 160 208 b 208 222 181 215 194 222 b 188 258 201 236 194 244 b 208 258 194 258 201 258 b 174 286 194 272 188 279 z m 279 279 l 279 279 b 300 236 286 265 293 251 b 272 236 293 236 279 236 b 279 279 272 244 279 265 z m 144 265 l 144 265 b 151 244 151 272 167 251 b 144 265 138 236 131 258 z m 46 251 l 46 251 b 67 251 53 251 67 251 b 67 222 67 244 67 229 b 53 229 67 229 60 229 b 46 251 53 236 46 244 z "},"4":{"ha":975,"x_min":0,"x_max":0,"o":"m 567 1039 l 567 1039 b 375 757 503 940 432 856 b 390 714 361 743 382 729 b 503 885 425 771 460 828 b 503 644 503 807 503 729 b 538 651 517 651 524 651 b 517 482 482 615 510 538 b 560 517 531 489 546 503 b 594 496 567 510 581 503 b 517 453 567 482 538 467 b 503 482 510 460 510 474 b 510 361 503 439 510 404 b 531 340 517 354 524 347 b 496 290 517 326 503 311 b 397 290 468 276 432 276 b 425 256 404 276 418 269 b 503 249 453 256 475 256 b 503 36 503 178 503 107 b 354 36 453 36 404 36 l 354 1 b 976 1 567 1 771 1 l 976 36 b 864 36 940 36 906 36 b 864 249 864 107 864 178 b 969 256 892 256 940 256 b 983 283 976 263 976 276 b 864 290 940 276 906 276 b 864 1039 864 538 864 785 b 567 1039 764 1039 665 1039 z m 22 256 l 22 256 b 361 263 135 256 249 249 b 361 283 361 269 361 276 b 219 276 319 276 269 290 b 100 290 185 283 142 290 b 347 658 185 411 269 538 b 354 729 368 679 361 707 b 22 256 242 574 135 411 z m 615 799 l 615 799 b 651 814 631 799 644 807 b 644 778 651 799 651 785 b 615 778 638 778 631 778 b 615 799 615 778 615 792 z m 722 693 l 722 693 b 736 686 722 686 729 686 b 736 672 736 686 736 672 b 700 658 729 665 715 665 b 722 693 708 672 715 679 z m 574 636 l 574 636 b 594 651 581 644 588 644 b 594 622 594 636 594 629 b 567 622 588 622 581 622 b 574 636 567 622 567 636 z m 658 636 l 658 636 b 658 615 665 636 672 615 b 658 636 644 608 644 629 z m 594 608 l 594 608 b 588 588 601 608 601 588 b 594 608 581 588 581 608 z m 553 544 l 553 544 b 567 531 560 551 574 538 b 553 544 560 524 546 538 z m 715 489 l 715 489 b 743 482 722 489 729 482 b 736 382 743 446 743 411 b 722 460 700 404 729 432 b 715 489 715 474 715 482 z m 757 389 l 757 389 b 807 326 778 375 800 354 b 786 318 800 326 786 318 b 793 333 786 326 786 326 b 757 389 778 347 764 368 z m 546 185 l 546 185 b 567 178 553 192 567 185 b 546 185 567 171 538 171 z m 574 135 l 574 135 b 644 86 594 121 615 93 b 588 50 631 71 608 64 b 574 135 581 78 567 107 z m 560 100 l 560 100 b 560 86 567 107 574 86 b 560 100 553 78 546 100 z m 672 29 l 672 29 b 679 22 679 36 686 29 b 672 29 672 15 665 22 z "},"5":{"ha":858,"x_min":0,"x_max":0,"o":"m 215 1063 l 215 1063 b 179 646 207 921 186 786 b 200 639 186 646 193 639 b 172 596 186 631 165 624 b 413 639 243 631 328 681 b 433 561 433 617 433 582 b 433 129 433 413 440 271 b 307 24 440 58 369 17 b 151 51 257 17 200 31 b 264 94 193 58 236 72 b 285 257 307 143 300 207 b 31 285 250 363 88 369 b 101 24 -33 200 10 65 b 504 -12 229 -40 378 -33 b 815 214 639 17 765 94 b 751 568 850 335 836 476 b 703 568 738 568 717 553 b 646 553 681 589 667 561 b 639 561 646 553 639 553 b 674 610 653 575 667 596 b 710 610 681 610 696 610 b 463 701 639 674 554 688 b 222 660 378 701 300 674 b 229 786 222 701 229 744 b 646 815 369 786 511 765 b 858 1069 758 850 829 957 b 215 1063 646 1026 426 1033 z m 363 928 l 363 928 b 406 942 378 928 392 935 b 378 893 406 921 392 907 b 363 928 369 907 369 914 z m 456 808 l 456 808 b 483 822 469 815 476 815 b 483 793 483 815 483 801 b 456 793 476 793 469 793 b 456 808 456 793 456 808 z m 463 610 l 463 610 b 490 610 469 610 483 610 b 483 511 490 575 490 546 b 456 539 476 518 463 532 b 483 575 463 546 476 561 b 463 610 476 589 469 596 z m 447 589 l 447 589 b 447 582 476 589 456 553 b 447 589 447 582 447 582 z m 646 518 l 646 518 b 710 497 667 518 688 504 b 717 525 710 504 717 518 b 731 468 724 504 724 490 b 758 468 738 468 744 468 b 674 440 731 454 703 419 b 653 399 667 426 660 413 b 618 476 646 426 632 454 b 646 518 610 497 632 511 z m 518 518 l 518 518 b 518 497 525 518 533 504 b 518 518 511 497 504 511 z m 533 497 l 533 497 b 547 490 533 490 540 490 b 547 468 547 483 547 476 b 518 468 540 468 533 468 b 533 497 525 476 525 483 z "},"6":{"ha":963,"x_min":0,"x_max":0,"o":"m 269 988 l 269 988 b 263 938 256 974 256 951 b 199 931 242 931 221 924 b 22 606 100 860 43 733 b 22 379 1 535 15 457 b 51 393 29 386 36 386 b 58 344 51 379 51 365 b 29 365 51 351 36 358 b 206 76 51 253 114 146 b 686 6 340 -31 524 -44 b 949 372 842 47 976 203 b 899 464 913 393 926 436 b 899 521 885 486 913 507 b 736 642 857 578 800 619 b 708 606 729 626 722 619 b 729 606 715 606 722 606 b 722 578 729 599 722 585 b 736 585 722 578 729 578 b 708 521 729 564 715 542 b 672 557 701 528 686 542 b 708 592 686 571 701 578 b 658 656 715 626 686 656 b 503 619 601 656 539 663 b 503 635 503 626 503 635 b 390 626 468 619 425 592 b 411 635 397 626 404 635 b 397 676 404 649 404 663 b 411 711 404 683 418 697 b 439 974 418 797 397 896 b 638 1022 482 1038 574 1029 b 560 924 610 994 567 974 b 601 768 539 875 560 811 b 821 775 665 719 764 719 b 814 974 857 839 857 917 b 672 1058 779 1022 729 1044 b 574 1038 638 1072 601 1051 b 546 1072 567 1051 553 1058 b 269 988 446 1058 347 1044 z m 913 471 l 913 471 b 919 464 906 464 913 457 b 913 471 926 471 919 479 z m 686 924 l 686 924 b 729 924 701 924 715 924 b 672 875 715 903 694 889 b 686 924 679 889 686 903 z m 269 917 l 269 917 b 283 903 276 924 292 910 b 269 917 269 896 263 910 z m 601 825 l 601 825 b 617 860 594 839 610 853 b 617 832 617 853 617 846 b 631 825 617 832 624 825 b 601 825 617 825 610 825 z m 283 690 l 283 690 b 283 676 299 690 292 669 b 283 690 269 676 276 697 z m 299 683 l 299 683 b 340 690 313 690 326 690 b 333 649 340 676 340 663 b 326 676 333 663 326 669 b 299 683 319 683 306 683 z m 269 649 l 269 649 b 313 676 283 656 299 669 b 306 642 313 663 313 656 b 269 649 292 642 276 642 z m 672 619 l 672 619 b 672 599 679 619 686 599 b 672 619 658 592 658 613 z m 418 557 l 418 557 b 553 557 446 599 532 613 b 567 125 574 415 553 267 b 601 118 581 125 588 118 b 574 111 588 118 581 111 b 524 33 560 83 560 40 b 418 61 489 19 439 19 b 411 301 411 139 418 217 b 418 557 418 386 404 471 z m 757 528 l 757 528 b 814 457 779 507 800 486 b 764 457 800 457 779 457 b 786 486 772 464 779 479 b 750 507 772 493 757 500 b 757 528 750 514 750 521 z m 368 514 l 368 514 b 368 500 376 521 383 500 b 368 514 361 493 354 514 z m 594 486 l 594 486 b 644 479 610 486 631 486 b 594 457 631 471 610 464 b 594 486 594 464 594 479 z m 178 457 l 178 457 b 178 436 185 457 185 436 b 178 457 164 436 164 457 z m 29 415 l 29 415 b 51 457 22 436 36 450 b 29 415 43 443 36 429 z m 150 443 l 150 443 b 157 429 157 450 164 436 b 150 443 150 422 136 436 z m 786 443 l 786 443 b 800 436 793 457 807 443 b 786 443 793 429 779 436 z m 864 443 l 864 443 b 878 429 878 450 885 436 b 864 443 871 422 857 436 z m 192 436 l 192 436 b 299 408 228 436 263 422 b 306 393 299 408 306 401 b 242 408 283 408 263 408 b 299 351 263 386 283 379 b 276 324 306 338 283 331 b 283 351 276 331 283 344 b 192 331 256 331 228 317 b 171 308 185 324 178 317 b 164 351 171 324 171 338 b 221 358 185 351 206 351 b 206 401 235 372 221 393 b 242 408 214 401 228 408 b 192 436 221 415 206 429 z m 326 429 l 326 429 b 333 408 333 436 347 415 b 326 429 326 401 313 422 z m 136 422 l 136 422 b 150 372 157 415 157 393 b 136 422 143 386 143 408 z m 36 415 l 36 415 b 86 401 58 408 72 408 b 36 401 72 401 51 401 b 36 415 36 401 36 408 z m 347 401 l 347 401 b 340 386 354 401 347 386 b 347 401 326 393 333 408 z m 171 379 l 171 379 b 185 372 178 393 192 379 b 171 379 178 365 164 372 z m 313 372 l 313 372 b 354 386 326 379 340 379 b 313 372 340 379 326 372 z m 79 372 l 79 372 b 79 351 86 372 86 358 b 79 372 72 351 65 365 z m 313 358 l 313 358 b 319 344 319 365 326 351 b 313 358 313 338 299 351 z m 926 358 l 926 358 b 942 351 935 372 949 358 b 926 358 935 344 919 351 z m 638 54 l 638 54 b 638 33 644 54 651 40 b 638 54 631 33 624 47 z "},"7":{"ha":932,"x_min":0,"x_max":0,"o":"m 74 1061 l 74 1061 b 74 892 74 1004 81 940 b 10 658 53 814 53 729 b 124 757 74 658 74 736 b 208 771 151 771 179 778 b 646 814 357 757 511 757 b 781 906 703 828 738 869 b 618 707 738 835 675 771 b 456 551 561 658 504 608 b 257 219 364 460 279 354 b 271 64 250 171 250 114 b 399 -28 300 15 349 -21 b 568 1 456 -28 526 -35 b 667 249 653 50 675 156 b 632 326 667 276 646 304 b 646 326 639 326 646 326 b 738 714 696 453 689 588 b 936 1025 781 828 844 940 b 915 1047 929 1032 922 1040 b 469 1054 774 983 618 1047 b 117 997 349 1068 222 1047 b 108 1061 108 1011 108 1040 z m 660 311 l 660 311 b 667 304 653 304 660 297 b 660 311 675 311 667 319 z m 300 906 l 300 906 b 357 933 321 919 335 926 b 314 869 364 899 342 885 b 300 906 314 885 307 899 z m 696 764 l 696 764 b 724 743 703 757 710 750 b 689 729 710 736 696 736 b 696 764 689 743 689 750 z m 710 707 l 710 707 b 717 693 717 714 724 700 b 710 707 710 686 696 700 z m 426 496 l 426 496 b 483 474 442 496 463 482 b 456 446 469 467 463 453 b 476 446 463 446 469 446 b 469 418 476 439 469 425 b 483 418 469 418 476 418 b 463 361 476 404 469 382 b 419 389 449 368 435 382 b 456 432 435 404 449 418 b 426 496 456 460 442 474 z m 419 460 l 419 460 b 419 439 426 460 435 439 b 419 460 406 432 406 453 z m 490 347 l 490 347 b 504 361 497 354 497 361 b 554 304 526 347 540 326 b 497 311 533 304 519 304 b 540 319 511 311 526 311 b 490 347 526 326 504 340 z m 342 326 l 342 326 b 392 319 357 326 371 326 b 335 304 371 311 357 311 b 342 326 335 304 335 319 z m 533 283 l 533 283 b 547 276 540 297 554 283 b 533 283 540 269 526 276 z m 611 283 l 611 283 b 625 269 625 290 632 276 b 611 283 618 263 604 276 z "},"8":{"ha":946,"x_min":0,"x_max":0,"o":"m 339 1063 l 339 1063 b 128 992 261 1063 190 1033 b 64 744 57 935 28 829 b 261 610 106 674 183 631 b 261 646 261 624 261 638 b 283 646 268 646 276 646 b 276 624 283 638 276 631 b 325 610 290 624 304 617 b 297 610 318 610 304 610 b 304 589 297 603 297 596 b 325 582 311 589 318 589 b 325 560 325 575 325 568 b 268 596 311 575 290 589 b 163 560 233 589 199 582 b 183 539 169 553 176 546 b 99 525 156 532 128 532 b 43 475 78 511 64 490 b 64 447 50 468 57 461 b 71 482 64 461 71 475 b 99 433 78 468 92 454 b 135 461 106 447 121 454 b 135 390 149 440 142 413 b 92 419 121 397 106 413 b 78 376 92 404 85 390 b 113 376 92 376 99 376 b 121 369 121 376 121 369 b 113 271 121 335 121 306 b 149 257 121 271 135 264 b 149 235 149 250 149 242 b 92 264 121 221 92 242 b 71 278 85 271 78 271 b 92 319 78 292 85 306 b 36 285 71 313 50 299 b 43 313 43 292 43 306 b 14 292 36 306 21 299 b 14 369 21 319 21 349 b 43 376 21 369 36 369 b 28 447 43 397 36 426 b 7 207 -14 369 -14 285 b 64 150 21 186 43 164 b 121 150 78 129 106 150 b 128 143 121 150 128 143 b 71 108 106 129 92 115 b 431 -19 163 17 304 -12 b 819 88 565 -19 707 1 b 911 193 863 108 897 150 b 869 228 897 207 883 214 b 940 242 890 235 911 242 b 876 525 961 335 947 454 b 650 610 813 575 728 596 b 863 731 728 631 813 660 b 749 765 819 744 778 738 b 792 751 764 758 778 758 b 819 765 799 758 813 758 b 742 808 792 779 764 793 b 849 843 785 808 806 864 b 890 850 863 857 876 857 b 778 1013 876 921 842 978 b 446 1069 679 1069 558 1069 b 339 1063 410 1069 375 1049 z m 85 363 l 85 363 b 99 356 78 356 92 342 b 85 363 106 363 92 376 z m 57 383 l 57 383 b 57 356 57 376 57 369 b 71 369 64 363 64 363 b 64 397 71 376 64 383 b 57 383 64 390 57 390 z m 389 475 l 389 475 b 403 468 382 468 396 461 b 389 475 410 475 396 490 z m 826 815 l 826 815 b 856 772 819 793 842 779 b 826 765 849 772 835 765 b 826 751 826 765 826 751 b 869 751 842 751 856 751 b 883 829 869 779 876 800 b 826 815 863 836 842 829 z m 481 1040 l 481 1040 b 538 999 501 1033 524 1019 b 551 914 544 971 544 942 b 538 914 544 914 544 914 b 544 893 538 907 544 900 b 579 878 551 893 565 886 b 544 878 565 878 551 878 b 531 674 538 808 544 738 b 431 624 524 624 474 624 b 403 715 424 653 403 681 b 410 985 403 800 403 893 b 481 1040 410 1019 453 1033 z m 714 999 l 714 999 b 728 992 721 1013 735 999 b 714 999 721 985 707 992 z m 792 871 l 792 871 b 806 864 799 886 813 871 b 792 871 799 857 785 864 z m 771 836 l 771 836 b 764 822 778 836 771 822 b 771 836 749 829 757 843 z m 735 815 l 735 815 b 735 731 749 786 735 758 b 707 751 728 738 714 744 b 735 815 721 772 728 793 z m 629 701 l 629 701 b 664 681 643 694 657 688 b 629 653 650 667 643 660 b 629 701 629 667 629 688 z m 700 646 l 700 646 b 714 638 707 660 721 646 b 700 646 707 631 693 638 z m 403 546 l 403 546 b 467 596 417 575 431 610 b 531 553 494 596 538 589 b 538 242 551 447 538 342 b 538 65 538 186 544 122 b 410 58 524 10 424 10 b 403 433 396 186 403 313 b 368 454 396 440 382 447 b 361 511 375 475 368 490 b 403 482 375 504 389 490 b 410 525 403 497 410 518 b 375 511 396 525 389 518 b 353 575 368 532 361 553 b 403 546 368 568 389 560 z m 650 525 l 650 525 b 679 518 664 525 671 525 b 671 504 679 511 671 511 b 714 461 686 490 700 475 b 664 497 686 454 664 468 b 615 397 643 461 629 433 b 608 419 608 404 608 413 b 629 433 608 426 622 426 b 579 454 608 440 594 447 b 579 490 579 461 579 475 b 601 468 586 482 594 475 b 594 490 601 475 601 482 b 650 525 629 475 643 504 z m 778 518 l 778 518 b 835 511 799 518 813 518 b 799 497 819 511 813 504 b 778 518 792 504 785 511 z m 586 511 l 586 511 b 586 497 594 511 594 497 b 586 511 572 497 572 511 z m 149 482 l 149 482 b 149 468 156 490 163 468 b 149 482 135 461 135 482 z m 757 482 l 757 482 b 799 482 771 482 785 482 b 771 454 785 475 778 468 b 757 482 764 468 757 475 z m 813 482 l 813 482 b 826 475 819 497 835 482 b 813 482 819 468 806 475 z m 629 397 l 629 397 b 643 390 636 413 650 397 b 629 397 636 383 622 390 z m 586 342 l 586 342 b 608 335 594 342 601 335 b 601 306 608 328 601 313 b 586 313 594 306 594 306 b 586 342 586 319 586 328 z m 586 299 l 586 299 b 643 278 601 285 622 278 b 601 257 629 271 615 264 b 586 299 601 271 594 285 z m 664 264 l 664 264 b 728 299 679 278 700 292 b 664 264 714 271 693 257 z m 856 257 l 856 257 b 869 242 863 264 876 250 b 856 257 863 235 849 250 z m 28 250 l 28 250 b 50 250 36 257 50 257 b 28 250 57 235 21 235 z m 14 207 l 14 207 b 71 228 28 228 50 235 b 14 207 50 221 36 214 z m 99 235 l 99 235 b 149 200 113 221 128 214 b 92 200 128 200 106 200 b 78 214 85 200 85 207 b 99 235 85 221 92 228 z m 254 214 l 254 214 b 254 207 283 214 261 179 b 254 214 254 207 254 207 z m 169 200 l 169 200 b 163 186 183 207 176 179 b 169 200 149 186 149 207 z m 50 193 l 50 193 b 78 193 57 193 64 193 b 71 164 78 186 71 179 b 50 193 64 172 57 186 z m 190 193 l 190 193 b 190 186 219 193 199 157 b 190 193 190 186 190 186 z m 169 157 l 169 157 b 199 150 176 157 190 157 b 190 136 199 150 199 143 b 176 143 183 136 176 143 b 169 157 176 150 169 157 z m 558 58 l 558 58 b 586 88 565 72 579 79 b 608 51 594 72 601 65 b 558 17 594 44 579 31 b 558 58 558 31 558 44 z "},"9":{"ha":932,"x_min":0,"x_max":0,"o":"m 311 1051 l 311 1051 b 43 882 206 1036 106 974 b 7 761 21 846 21 804 b 36 796 14 775 29 782 b 57 768 43 782 50 775 b 85 832 64 789 71 811 b 149 733 114 804 114 754 b 142 676 149 711 142 697 b 29 704 106 669 64 683 b 36 683 29 697 29 690 l 0 676 b 29 592 7 649 14 619 b 29 626 29 606 29 613 b 50 619 36 626 43 626 b 64 578 57 606 57 592 b 128 633 85 599 106 619 b 99 542 114 606 106 571 b 50 549 85 542 71 542 b 114 486 71 528 92 507 b 297 401 156 429 233 415 b 488 415 361 393 424 393 b 460 429 481 415 467 422 b 538 429 488 429 517 429 b 538 217 538 358 538 288 b 565 224 551 217 558 224 b 501 68 551 175 531 118 b 219 47 424 13 311 13 b 304 146 261 68 297 97 b 276 274 311 189 311 239 b 163 331 247 315 206 324 b 163 274 163 308 163 294 b 135 301 156 288 142 294 b 156 301 142 301 149 301 b 149 331 156 308 149 324 b 106 315 135 324 121 324 b 71 274 85 308 85 288 b 21 224 57 260 29 253 b 78 47 0 161 21 83 b 474 -10 192 -37 339 -31 b 883 308 650 26 813 139 b 842 372 876 331 856 351 b 913 386 863 379 883 386 b 913 690 933 486 933 592 b 828 874 890 754 869 825 b 728 896 792 889 757 889 b 721 910 721 896 721 910 b 764 896 735 903 750 903 b 778 917 771 903 778 910 b 714 960 757 924 728 931 b 757 960 728 960 742 960 b 579 1051 700 994 643 1044 b 311 1051 494 1072 403 1072 z m 92 754 l 92 754 b 99 740 85 754 85 733 b 92 754 114 740 106 761 z m 71 782 l 71 782 b 71 775 71 775 71 775 b 71 782 78 747 99 782 z m 792 903 l 792 903 b 806 896 785 896 799 889 b 792 903 813 903 799 917 z m 439 1022 l 439 1022 b 551 1029 474 1029 517 1044 b 510 1022 538 1022 524 1022 b 538 931 524 994 538 967 b 544 606 544 825 531 719 b 551 626 544 613 551 619 b 588 626 558 626 572 626 b 622 676 601 642 608 663 b 679 599 650 656 664 626 b 622 633 657 606 636 619 b 588 556 615 606 601 578 b 579 585 579 571 579 578 b 544 599 565 592 551 592 b 510 464 531 556 565 486 b 410 464 481 443 432 429 b 382 642 389 521 389 585 b 396 938 396 740 389 839 b 439 1022 396 967 403 1008 z m 700 974 l 700 974 b 714 967 707 988 721 974 b 700 974 707 960 693 967 z m 700 960 l 700 960 b 693 903 721 944 714 917 b 672 917 686 910 679 910 b 707 931 679 917 693 924 b 700 960 700 944 700 951 z m 707 896 l 707 896 b 693 874 721 903 707 867 b 707 896 686 889 693 896 z m 588 818 l 588 818 b 601 846 594 825 594 839 b 629 832 608 839 622 839 b 608 796 622 818 615 811 b 588 818 601 804 594 811 z m 226 775 l 226 775 b 261 796 233 782 247 789 b 240 768 254 782 247 775 b 290 761 254 768 269 761 b 247 754 276 754 261 754 b 297 726 261 740 283 733 b 290 704 297 719 290 711 b 226 775 261 726 233 740 z m 672 789 l 672 789 b 679 782 679 796 686 789 b 672 789 672 775 664 782 z m 156 782 l 156 782 b 163 768 163 789 176 775 b 156 782 156 761 142 775 z m 332 719 l 332 719 b 368 683 346 711 368 704 b 346 649 361 669 354 663 b 389 585 354 619 368 606 b 325 599 368 592 346 599 b 346 626 332 613 339 619 b 325 626 339 626 332 626 b 332 663 332 642 332 649 b 318 656 325 656 318 656 b 332 719 325 676 332 697 z m 750 663 l 750 663 b 785 669 764 663 778 663 b 799 649 792 663 792 656 b 757 642 785 649 771 642 b 750 663 757 649 757 656 z m 551 656 l 551 656 b 558 642 558 663 565 649 b 551 656 551 633 538 649 z m 721 633 l 721 633 b 750 599 735 626 750 613 b 721 633 735 613 728 619 z m 757 626 l 757 626 b 764 613 764 633 771 619 b 757 626 757 613 750 626 z m 572 556 l 572 556 b 615 535 588 549 601 542 b 572 556 601 535 588 549 z m 558 486 l 558 486 b 579 450 565 479 572 464 b 558 443 572 450 558 450 b 558 486 558 457 558 471 z m 551 436 l 551 436 b 608 422 572 429 588 422 b 579 393 594 415 588 408 b 551 436 572 415 558 429 z m 636 401 l 636 401 b 679 443 650 415 664 429 b 693 429 686 443 686 436 b 636 401 679 415 657 415 z m 819 401 l 819 401 b 835 386 828 415 842 401 b 819 401 828 379 813 393 z "},"B":{"ha":1208,"x_min":0,"x_max":0,"o":"m -28 1044 l -28 1044 b -21 1008 -21 1029 -21 1022 b 107 1008 22 1008 64 1008 b 114 846 114 951 114 903 b 157 839 128 846 142 846 b 135 860 149 846 142 853 b 149 867 142 860 142 867 b 178 818 157 853 164 839 b 233 825 192 825 213 825 b 226 811 226 825 226 818 b 114 782 192 811 149 789 b 114 718 114 761 114 740 b 135 656 149 711 142 676 b 114 676 128 663 121 669 b 107 47 107 464 114 253 b 8 19 79 40 43 33 b 86 6 29 6 57 -3 b 729 6 297 13 510 -3 b 807 19 750 6 778 13 b 821 6 807 13 814 13 b 828 47 821 13 828 33 b 856 47 835 47 842 47 b 828 26 842 40 835 33 b 878 33 842 26 863 33 b 856 13 869 26 863 19 b 1054 40 919 13 990 13 b 1188 175 1118 61 1167 111 b 1188 379 1217 246 1210 315 b 1103 478 1174 422 1153 464 b 1118 450 1110 471 1110 457 b 1068 436 1103 443 1082 422 b 1110 493 1054 464 1089 478 b 1025 528 1082 507 1054 521 b 1011 471 1018 507 1018 486 b 997 514 1004 486 997 500 b 976 486 990 507 983 493 b 963 507 969 493 963 500 b 990 564 983 514 997 535 b 1075 592 1025 556 1047 578 b 1025 633 1061 606 1047 619 b 1047 606 1032 619 1040 613 b 1018 606 1032 606 1025 606 b 1018 633 1018 613 1018 626 b 1082 606 1040 633 1061 619 b 1132 633 1096 613 1110 626 b 1118 656 1125 642 1118 649 b 1075 642 1103 649 1089 649 b 1160 726 1096 676 1132 697 b 1146 761 1153 740 1146 747 b 1118 733 1132 754 1125 747 b 1110 768 1118 747 1110 754 b 1089 747 1103 761 1096 754 b 1054 782 1075 761 1068 768 b 1004 775 1040 775 1018 775 b 1018 782 1004 775 1018 782 b 956 832 1011 818 983 832 b 1004 910 969 860 983 889 b 1068 924 1025 917 1047 917 b 1096 874 1075 910 1089 889 b 1089 910 1096 889 1089 896 b 1110 917 1096 910 1103 910 b 1110 874 1110 903 1110 889 b 1032 811 1089 853 1061 832 b 1110 789 1061 796 1082 789 b 1075 782 1096 789 1089 789 l 1110 782 b 1110 832 1110 796 1110 818 b 1139 818 1118 825 1132 818 b 1132 796 1139 811 1139 804 b 1174 789 1146 796 1160 789 b 1103 974 1167 853 1153 924 b 863 1044 1040 1044 940 1044 b -28 1044 567 1044 269 1044 z m 764 125 l 764 125 b 778 111 757 111 771 97 b 764 125 785 118 771 132 z m 736 153 l 736 153 b 743 139 729 153 736 132 b 736 153 750 146 743 160 z m 263 393 l 263 393 b 276 436 269 408 276 422 b 263 393 263 422 263 415 z m 226 464 l 226 464 b 226 450 213 464 213 450 b 226 464 233 450 233 471 z m 601 528 l 601 528 b 608 521 594 528 601 514 b 601 528 615 521 608 535 z m 263 649 l 263 649 b 263 626 249 649 249 626 b 263 649 269 626 269 649 z m 1160 782 l 1160 782 b 1146 768 1153 782 1132 775 b 1160 782 1160 754 1181 782 z m 135 818 l 135 818 b 142 804 114 818 128 796 b 135 818 157 804 149 825 z m 1004 853 l 1004 853 b 1025 846 1011 853 1018 846 b 1040 825 1032 839 1032 832 b 1040 860 1040 839 1040 846 b 1004 853 1025 860 1018 853 z m 1047 917 l 1047 917 b 1040 889 1040 910 1040 903 b 1061 889 1047 889 1054 889 b 1068 910 1061 896 1068 903 b 1047 917 1061 910 1054 917 z m 615 1022 l 615 1022 b 672 1036 638 1029 651 1029 b 672 1015 672 1029 672 1022 b 615 1022 651 1015 638 1022 z m 219 1022 l 219 1022 b 249 1022 226 1022 242 1022 b 226 981 249 1001 249 981 b 219 1022 219 994 219 1008 z m 567 1008 l 567 1008 b 700 1008 608 1008 658 1015 b 729 917 729 988 729 944 b 750 917 736 917 743 917 b 722 585 707 811 757 690 b 622 542 700 549 658 549 b 638 521 622 535 629 528 b 722 478 665 507 715 514 b 736 196 743 386 729 288 b 792 146 729 160 771 153 b 764 175 778 153 771 160 b 892 153 807 168 856 175 b 940 97 913 132 926 118 b 863 118 913 104 892 111 b 892 75 869 104 878 90 b 828 104 869 83 849 104 b 800 40 814 83 807 61 b 778 47 792 47 785 47 b 771 68 771 54 771 61 b 750 61 764 68 757 61 b 764 104 757 75 764 90 b 736 132 757 111 743 125 b 715 54 729 104 722 83 b 567 40 665 40 615 40 b 560 521 560 203 567 358 b 510 528 544 521 531 521 b 496 578 503 542 489 556 b 567 571 517 592 544 578 b 551 606 560 585 560 599 b 567 1008 581 740 560 874 z m 460 988 l 460 988 b 467 974 467 988 474 974 b 460 988 453 967 446 981 z m 326 910 l 326 910 b 347 889 333 903 340 896 b 304 889 333 889 319 889 b 326 910 311 896 319 903 z m 135 889 l 135 889 b 149 882 142 896 157 889 b 135 889 142 867 128 882 z m 906 853 l 906 853 b 933 853 913 860 926 860 b 906 853 933 839 906 839 z m 326 804 l 326 804 b 319 789 333 796 326 782 b 326 804 304 789 311 804 z m 263 796 l 263 796 b 269 782 269 804 283 782 b 263 796 263 768 249 789 z m 919 768 l 919 768 b 976 796 940 775 956 789 b 940 747 963 782 956 768 b 919 768 933 754 926 761 z m 164 789 l 164 789 b 164 768 171 789 171 768 b 164 789 149 768 149 789 z m 290 789 l 290 789 b 333 761 304 782 319 775 b 333 711 333 747 333 726 b 297 761 311 726 304 740 b 283 768 297 761 290 768 b 290 789 283 775 290 782 z m 411 782 l 411 782 b 418 768 418 789 425 775 b 411 782 411 761 404 782 z m 256 754 l 256 754 b 269 768 263 761 269 761 b 297 740 276 761 290 747 b 256 754 283 747 269 747 z m 389 754 l 389 754 b 389 711 404 740 411 726 b 389 754 389 726 389 740 z m 1032 754 l 1032 754 b 1075 754 1047 754 1061 754 b 1032 754 1061 740 1047 740 z m 326 711 l 326 711 b 375 626 340 683 354 656 b 354 613 368 626 361 619 b 368 556 375 599 375 578 b 347 592 361 564 354 578 b 326 592 340 592 333 592 b 354 564 333 585 347 578 b 256 571 319 549 283 599 b 233 606 249 585 242 592 b 199 606 219 606 213 606 b 192 619 192 606 192 613 b 249 649 213 626 233 633 b 199 656 233 656 213 656 b 263 697 213 683 233 690 b 242 669 256 690 249 683 b 283 676 256 669 269 669 b 283 649 283 663 283 656 b 333 649 304 649 319 649 b 340 676 333 656 333 663 b 319 663 333 669 326 669 b 326 711 319 683 326 697 z m 389 669 l 389 669 b 446 718 397 697 411 718 b 446 683 446 704 446 697 b 404 683 432 683 418 683 b 446 649 418 669 432 663 b 404 642 432 649 418 649 b 361 663 389 649 375 656 b 368 683 368 669 368 676 b 389 669 375 676 382 676 z m 1103 704 l 1103 704 b 1118 697 1110 718 1125 704 b 1103 704 1110 690 1096 697 z m 1075 683 l 1075 683 b 1082 669 1082 690 1089 676 b 1075 683 1075 663 1068 676 z m 135 649 l 135 649 b 149 633 142 656 157 649 b 135 649 142 626 121 642 z m 467 649 l 467 649 b 489 649 474 649 482 649 b 489 619 489 633 489 626 b 467 626 482 619 474 626 b 467 649 467 633 467 642 z m 432 626 l 432 626 b 432 613 439 633 446 613 b 432 626 425 606 425 626 z m 983 619 l 983 619 b 1004 619 990 619 997 619 b 1011 599 1004 613 1011 606 b 963 585 997 592 976 592 b 983 619 969 599 976 606 z m 517 613 l 517 613 b 531 599 524 619 538 606 b 517 613 524 592 510 606 z m 263 528 l 263 528 b 290 464 276 507 283 486 b 340 493 304 471 326 478 b 354 471 347 486 347 478 b 340 471 347 471 340 471 b 347 450 340 464 347 457 b 333 450 347 450 340 450 b 340 422 340 436 340 429 b 290 450 326 429 311 436 b 290 379 290 429 290 400 b 311 422 297 393 304 408 b 311 315 326 386 333 351 b 290 324 304 315 297 324 b 290 338 290 331 290 338 b 319 338 297 338 304 338 b 311 358 319 344 319 351 b 213 386 276 351 233 351 b 249 415 226 393 233 408 b 185 422 226 422 206 422 b 192 486 192 443 185 464 b 276 478 219 486 249 486 b 263 528 269 493 263 507 z m 347 514 l 347 514 b 361 507 354 521 368 514 b 347 514 354 493 340 507 z m 778 478 l 778 478 b 828 500 792 486 814 493 b 778 478 814 493 800 486 z m 969 436 l 969 436 b 997 436 976 436 990 436 b 976 393 990 422 983 408 b 969 436 969 408 969 422 z m 976 358 l 976 358 b 1040 408 997 372 1018 393 b 1082 308 1054 379 1075 344 b 1061 315 1075 308 1068 315 b 1054 301 1061 315 1054 308 b 1047 308 1054 301 1047 308 b 1032 351 1047 324 1047 344 b 976 358 1018 365 997 358 z m 956 393 l 956 393 b 969 379 963 400 976 393 b 956 393 963 372 947 379 z m 283 308 l 283 308 b 297 294 290 315 304 301 b 283 308 290 288 276 301 z m 1118 274 l 1118 274 b 1132 274 1118 274 1132 274 b 1139 217 1132 253 1139 238 b 1110 210 1125 217 1118 217 b 1118 260 1110 224 1118 246 b 1096 253 1110 260 1103 260 b 1118 274 1103 260 1110 267 z m 297 253 l 297 253 b 347 231 319 246 333 238 b 297 231 333 231 311 231 b 297 253 297 238 297 246 z m 368 224 l 368 224 b 375 210 375 224 382 224 b 368 224 368 210 361 210 z m 242 210 l 242 210 b 283 146 256 196 269 168 b 242 118 269 139 256 132 b 249 146 242 132 249 139 b 219 160 242 153 226 153 b 242 210 233 175 233 196 z m 368 182 l 368 182 b 404 196 382 182 389 189 l 404 160 b 368 182 389 168 382 175 z m 319 182 l 319 182 b 326 168 326 182 333 182 b 319 182 319 168 311 168 z m 933 182 l 933 182 b 947 175 940 189 956 182 b 933 182 940 160 926 175 z m 983 118 l 983 118 b 1018 146 997 132 1004 139 b 1018 125 1018 146 1018 132 b 983 118 1004 125 997 125 z m 940 111 l 940 111 b 963 125 947 118 956 125 b 983 104 969 118 976 111 b 940 111 969 104 956 111 z m 1004 104 l 1004 104 b 1047 104 1018 104 1032 104 b 1061 68 1054 97 1054 83 b 1004 104 1032 68 1018 83 z m 997 68 l 997 68 b 1011 54 1004 75 1025 61 b 997 68 1004 40 983 54 z m 249 47 l 249 47 b 263 33 256 54 269 40 b 249 47 256 26 242 40 z "},"C":{"ha":992,"x_min":0,"x_max":0,"o":"m 161 925 l 161 925 b 182 911 168 918 175 918 b 104 861 161 882 140 868 b 154 854 118 854 140 854 b 154 833 154 847 154 840 b 133 833 147 833 140 833 b 147 804 140 826 147 813 b 63 769 118 790 90 776 b 63 783 63 769 63 783 b 13 367 -22 664 -15 501 b 189 83 33 254 104 154 b 189 113 189 92 189 106 b 267 113 211 113 239 119 b 289 42 274 92 274 63 b 218 63 267 56 246 56 b 358 -1 260 28 310 7 b 472 -36 394 -15 429 -36 b 733 -15 557 -36 649 -36 b 981 176 839 21 917 99 b 946 197 974 183 960 190 b 733 28 889 133 825 63 b 536 14 676 7 607 7 b 493 176 500 63 486 119 b 493 742 493 367 493 550 b 465 868 493 783 493 833 b 564 1017 507 911 486 1003 b 747 975 628 1024 692 1010 b 925 756 832 925 882 840 b 939 776 932 763 932 769 b 932 713 932 756 932 735 b 981 769 953 728 981 742 b 974 1060 981 868 981 968 b 818 982 925 1038 875 1010 b 663 1060 769 1010 719 1044 b 161 925 486 1088 296 1044 z m 939 685 l 939 685 b 981 635 946 664 939 621 b 939 685 988 671 967 685 z m 90 819 l 90 819 b 97 804 83 804 90 804 b 90 819 104 819 97 819 z m 910 953 l 910 953 b 946 960 925 953 939 960 b 932 932 946 953 939 939 b 910 953 925 939 917 946 z m 161 875 l 161 875 b 204 882 175 890 189 882 b 161 875 189 875 175 875 z m 56 706 l 56 706 b 147 763 76 735 111 756 b 83 692 133 735 104 713 b 56 706 69 699 63 699 z m 246 756 l 246 756 b 310 742 267 749 289 749 b 253 728 289 735 274 728 b 246 756 246 735 246 749 z m 310 692 l 310 692 b 367 719 324 706 344 719 b 358 678 367 706 358 692 b 310 692 344 685 324 685 z m 317 650 l 317 650 b 351 671 331 657 338 664 b 344 628 344 657 344 642 b 317 650 331 635 324 642 z m 408 642 l 408 642 b 444 671 422 657 429 664 b 429 642 436 664 436 650 b 458 642 436 642 444 642 b 465 628 458 635 458 628 b 408 642 444 628 422 635 z m 63 635 l 63 635 b 76 635 63 650 83 642 b 63 635 76 621 56 628 z m 40 614 l 40 614 b 97 628 63 614 83 621 b 126 621 104 628 111 628 b 104 586 118 607 111 600 b 97 621 104 600 104 614 b 69 586 90 614 83 600 b 49 593 63 586 56 593 b 40 614 49 600 49 607 z m 253 614 l 253 614 b 281 621 260 614 267 621 b 260 557 274 600 274 572 b 289 522 267 543 281 536 b 232 529 274 515 246 501 b 218 501 232 515 225 508 b 225 529 218 508 218 515 b 182 508 211 522 196 508 b 140 543 161 515 154 529 b 175 536 154 543 168 543 b 161 600 168 557 168 579 b 189 543 189 586 196 564 b 274 593 218 557 246 572 b 253 614 267 600 260 607 z m 415 572 l 415 572 b 422 522 429 557 436 543 b 415 572 422 536 415 550 z m 367 515 l 367 515 b 401 465 388 508 401 488 b 374 472 394 465 388 472 b 394 472 381 472 388 472 b 367 515 381 488 374 501 z m 253 501 l 253 501 b 253 479 260 501 260 479 b 253 501 239 479 239 501 z m 69 465 l 69 465 b 63 458 90 472 69 438 b 69 465 63 458 69 465 z m 415 451 l 415 451 b 458 424 436 444 451 438 b 436 360 444 410 444 381 b 394 317 429 346 415 332 b 374 360 388 332 381 346 b 422 388 388 374 408 374 b 436 431 429 401 429 417 b 415 438 429 431 422 438 b 415 451 415 438 415 451 z m 69 444 l 69 444 b 83 431 76 451 90 444 b 69 444 76 424 63 431 z m 394 431 l 394 431 b 415 417 401 424 408 417 b 388 394 401 410 394 401 b 394 431 388 410 388 417 z m 90 346 l 90 346 b 154 381 76 401 126 394 b 90 346 133 367 111 360 z m 260 317 l 260 317 b 317 303 281 332 303 324 b 260 317 303 310 281 310 z m 429 296 l 429 296 b 451 317 436 303 444 310 b 465 247 451 296 458 268 b 444 204 472 232 451 218 b 422 218 436 211 429 211 b 458 225 436 225 444 225 b 415 254 444 232 429 247 b 436 261 422 254 429 261 b 429 296 436 268 436 282 z m 324 140 l 324 140 b 351 113 338 133 344 119 b 374 126 358 119 367 119 b 358 92 367 113 367 106 b 401 83 374 92 388 83 b 338 63 388 76 358 69 b 338 35 338 56 338 49 b 310 106 310 49 303 76 b 296 106 310 106 303 106 b 324 126 303 113 317 119 b 324 140 324 133 324 133 z "},"D":{"ha":1276,"x_min":0,"x_max":0,"o":"m -1 1038 l -1 1038 l -1 1001 b 69 1001 13 1001 56 1001 b 69 1038 69 1015 69 1022 b -1 1038 56 1038 13 1038 z m 232 76 l 232 76 b 232 40 232 69 232 54 b 260 47 246 40 253 47 b 232 76 253 61 239 69 z m 175 47 l 175 47 b 218 47 189 47 204 47 b 197 83 211 61 204 69 b 175 47 189 69 182 61 z m 119 90 l 119 90 b 111 33 119 69 111 47 b 26 33 83 26 56 26 b 26 19 26 26 26 19 b -1 33 19 26 6 33 l -1 -1 b 189 6 63 13 126 -8 b 175 83 175 26 168 54 b 119 90 154 69 133 76 z m 133 118 l 133 118 b 168 104 147 118 154 111 b 168 139 168 118 168 132 b 133 118 161 132 147 125 z m 1243 635 l 1243 635 b 1243 619 1236 635 1236 613 b 1243 635 1257 619 1250 642 z m 189 733 l 189 733 b 197 719 182 719 189 719 b 189 733 204 733 197 733 z m 197 811 l 197 811 b 161 754 189 790 175 775 b 175 740 168 747 175 747 b 218 797 189 761 204 775 b 197 811 211 797 204 804 z m 1051 917 l 1051 917 b 1058 896 1044 910 1051 896 b 1051 917 1072 896 1065 924 z m 140 1008 l 140 1008 b 147 988 140 1001 140 994 b 175 1015 154 1001 168 1008 b 161 1022 175 1015 168 1022 b 140 1008 154 1015 147 1008 z m 211 1038 l 211 1038 b 211 988 211 1022 211 1001 b 161 994 197 988 182 994 b 161 967 161 988 161 981 b 119 1001 140 974 126 988 b 119 903 119 967 119 938 b 147 917 126 910 133 910 b 126 875 140 903 111 896 b 175 818 133 846 154 832 b 175 875 175 832 189 853 b 147 896 168 882 154 889 b 182 910 161 903 168 910 b 182 889 182 903 182 896 b 204 903 189 896 197 896 b 211 818 204 875 204 846 b 232 896 218 846 225 875 b 232 860 232 889 232 875 b 267 875 246 868 260 875 b 282 853 274 868 282 860 b 246 839 267 853 246 860 b 211 704 232 797 204 747 b 189 663 218 683 197 676 b 168 733 182 683 175 713 b 140 713 161 726 147 719 b 147 804 140 740 140 775 b 126 782 140 797 133 790 b 119 797 126 790 119 790 b 126 733 119 775 126 754 b 126 514 119 656 111 585 b 119 443 119 493 111 472 b 119 161 111 351 119 253 b 154 146 126 161 140 154 b 218 182 161 175 189 182 b 274 83 267 182 289 118 b 289 40 282 69 289 54 b 197 6 253 40 232 19 b 351 6 246 -1 303 -8 b 374 61 367 19 367 40 b 429 61 394 54 408 54 b 401 26 422 47 408 40 b 438 47 415 33 429 40 b 458 19 444 40 451 26 b 444 -1 451 13 444 6 b 967 26 614 6 797 -24 b 1207 288 1081 69 1158 175 b 1165 281 1200 288 1179 281 b 1165 260 1165 274 1165 267 b 1136 267 1158 267 1150 267 b 1136 281 1136 274 1136 274 b 1186 331 1165 281 1186 301 b 1214 338 1193 331 1200 331 b 1193 310 1207 331 1200 324 b 1207 294 1200 301 1200 301 b 1257 528 1243 365 1264 450 b 1221 619 1271 571 1221 585 b 1158 683 1214 656 1179 663 b 1143 599 1150 656 1150 628 b 1101 676 1122 619 1108 642 b 1228 713 1143 697 1186 704 b 1143 733 1207 726 1172 733 b 1115 697 1136 719 1122 704 b 1200 775 1115 740 1165 754 b 1122 903 1165 818 1143 860 b 1072 882 1101 896 1088 889 b 1101 818 1081 860 1094 839 b 1115 832 1108 825 1115 825 b 1108 853 1115 839 1108 846 b 1136 846 1115 853 1122 846 b 1150 782 1136 825 1150 804 b 1129 782 1143 782 1136 782 b 1115 804 1122 790 1122 797 b 1081 775 1101 797 1094 782 b 1108 733 1094 761 1101 747 b 1072 754 1101 740 1088 747 b 1065 860 1072 790 1088 832 b 1024 981 1038 896 1003 938 b 790 1038 953 1022 868 1038 b 324 1038 635 1038 479 1038 b 360 1001 338 1022 344 1015 b 296 974 338 994 317 981 b 310 1001 296 988 303 994 b 296 994 303 1001 296 994 b 303 1038 296 1008 303 1022 b 246 1038 289 1038 260 1038 b 253 988 246 1022 253 1001 l 225 988 b 239 1022 225 994 232 1008 b 225 1015 232 1022 225 1015 b 232 1038 225 1022 232 1031 b 211 1038 225 1038 218 1038 z m 571 1001 l 571 1001 b 740 981 628 994 699 1015 b 763 656 769 875 763 761 b 790 676 769 663 783 669 b 790 649 790 669 790 656 b 763 649 776 649 769 649 b 763 232 769 507 756 372 b 733 61 756 175 769 111 b 571 33 692 26 628 33 b 564 224 564 97 571 161 b 529 260 557 239 543 253 b 564 344 550 288 550 317 b 529 324 550 338 536 331 b 557 365 529 338 529 365 b 550 379 557 372 557 372 b 543 550 564 436 578 500 b 557 606 536 571 550 592 b 536 642 550 619 543 628 b 564 713 557 663 557 690 b 514 740 550 726 529 733 b 564 761 529 747 550 754 b 507 768 543 768 529 768 b 486 811 500 782 493 797 b 550 868 507 825 529 846 b 522 797 543 846 529 818 b 557 832 536 804 550 818 b 571 1001 571 889 564 944 z m 344 981 l 344 981 b 360 967 351 988 367 974 b 344 981 351 960 338 974 z m 154 944 l 154 944 b 225 960 175 944 197 953 b 197 931 218 944 204 938 b 204 917 204 924 204 917 b 154 944 182 917 168 924 z m 225 953 l 225 953 b 253 938 239 944 246 944 b 232 931 246 938 239 931 b 267 896 246 924 253 910 l 232 910 b 225 953 232 917 232 944 z m 868 931 l 868 931 b 903 931 882 931 889 931 b 889 910 896 924 896 917 b 868 931 882 917 875 924 z m 804 839 l 804 839 b 811 832 811 846 818 832 b 804 839 804 825 797 839 z m 776 818 l 776 818 b 790 804 783 825 804 811 b 776 818 783 790 763 804 z m 790 797 l 790 797 b 790 782 804 797 797 782 b 790 797 776 775 776 797 z m 239 790 l 239 790 b 274 761 253 775 260 768 b 239 761 260 761 253 761 b 239 790 239 768 239 775 z m 282 775 l 282 775 b 303 768 289 782 310 775 b 282 775 296 754 274 761 z m 381 754 l 381 754 b 394 754 381 768 401 761 b 381 754 394 740 374 747 z m 988 733 l 988 733 b 1024 761 1003 740 1010 754 b 1017 740 1024 754 1024 747 b 988 733 1010 740 1003 733 z m 218 726 l 218 726 b 246 719 225 726 239 726 b 225 697 239 713 232 704 b 218 726 218 704 218 713 z m 374 726 l 374 726 b 374 704 381 726 381 704 b 374 726 360 704 360 726 z m 415 713 l 415 713 b 465 713 429 726 451 719 b 415 713 451 713 429 713 z m 1010 713 l 1010 713 b 1058 704 1024 713 1044 704 b 1051 690 1058 697 1058 697 b 1081 676 1058 690 1072 683 b 1017 613 1058 656 1038 635 b 1044 613 1024 613 1031 613 b 1044 592 1044 606 1044 599 b 1003 606 1031 599 1017 599 b 1010 628 1003 613 1010 619 b 988 619 1003 628 996 628 b 1010 713 996 656 1003 683 z m 451 704 l 451 704 b 479 683 458 697 472 690 b 451 676 465 676 458 676 b 451 704 451 690 451 697 z m 797 683 l 797 683 b 811 676 804 690 818 683 b 797 683 811 663 790 676 z m 338 676 l 338 676 b 344 663 344 676 351 676 b 338 676 338 663 331 663 z m 472 669 l 472 669 b 507 663 479 669 493 663 b 507 628 507 649 507 642 b 543 613 514 628 529 619 b 514 571 529 599 522 585 b 507 592 507 578 507 585 b 486 571 500 585 493 578 b 472 669 500 606 493 642 z m 790 656 l 790 656 b 818 656 797 656 811 656 b 818 613 818 642 818 628 b 797 619 811 613 804 613 b 790 656 797 628 797 642 z m 832 656 l 832 656 b 854 628 840 649 847 635 b 832 628 847 628 832 628 b 832 656 832 635 832 649 z m 1094 628 l 1094 628 b 1108 613 1101 635 1115 628 b 1094 628 1101 606 1088 613 z m 267 613 l 267 613 b 310 619 282 613 296 613 b 274 585 296 606 289 592 b 267 613 267 592 267 599 z m 960 619 l 960 619 b 988 613 967 619 974 613 b 960 592 974 606 967 599 b 960 619 960 599 960 613 z m 154 599 l 154 599 b 189 613 161 606 175 606 b 197 585 189 606 189 599 b 168 571 182 585 175 578 b 154 599 161 578 154 592 z m 317 606 l 317 606 b 324 592 324 619 338 599 b 317 606 317 585 303 606 z m 769 585 l 769 585 b 811 542 790 571 804 557 b 769 585 790 542 776 564 z m 981 578 l 981 578 b 1003 578 988 578 996 578 b 988 535 996 564 996 550 b 981 578 988 550 981 564 z m 1010 564 l 1010 564 b 1051 571 1024 564 1038 564 b 1038 528 1044 557 1044 542 b 1088 514 1051 521 1072 514 b 1108 401 1094 472 1088 436 b 1088 379 1101 394 1094 386 b 1065 415 1081 394 1072 401 b 1058 394 1065 408 1058 401 b 1003 415 1044 408 1024 415 b 1038 472 1017 436 1024 450 b 981 422 1017 457 988 450 b 946 472 967 436 953 457 b 903 450 932 464 918 457 l 910 479 b 932 479 918 479 925 479 b 932 514 932 493 932 500 b 946 507 932 514 939 514 b 974 450 953 486 960 472 b 1017 521 981 479 1003 500 b 1010 564 1024 535 1017 550 z m 861 564 l 861 564 b 875 550 868 571 882 557 b 861 564 868 535 854 550 z m 1094 521 l 1094 521 b 1136 535 1108 528 1122 528 b 1108 493 1129 521 1115 507 b 1094 521 1101 500 1101 514 z m 140 486 l 140 486 b 154 472 147 493 161 472 b 140 486 140 457 133 479 z m 324 394 l 324 394 b 344 394 331 394 338 394 b 344 365 344 379 344 372 b 324 394 338 372 331 386 z m 981 394 l 981 394 b 996 386 988 401 1010 394 b 981 394 981 372 960 386 z m 1136 324 l 1136 324 b 1150 310 1143 331 1158 317 b 1136 324 1143 301 1129 317 z m 500 324 l 500 324 b 514 310 507 331 522 317 b 500 324 507 294 493 310 z m 868 310 l 868 310 b 918 324 889 317 903 317 b 903 294 910 310 910 301 b 868 310 896 294 882 301 z m 451 281 l 451 281 b 444 267 458 274 451 260 b 451 281 429 267 438 281 z m 465 267 l 465 267 b 472 253 472 281 486 260 b 465 267 465 246 451 267 z m 394 210 l 394 210 b 422 203 401 210 408 203 b 415 175 415 196 415 182 b 394 175 408 175 394 175 b 394 210 394 189 394 196 z m 344 182 l 344 182 b 351 168 351 182 360 182 b 344 182 344 168 338 168 z m 317 168 l 317 168 b 351 125 331 154 338 139 b 317 132 338 125 331 132 b 317 168 317 146 317 154 z m 344 161 l 344 161 b 381 146 360 154 367 154 b 344 132 367 146 360 139 b 344 161 344 139 344 154 z m 388 90 l 388 90 b 381 76 394 83 388 69 b 388 90 367 76 374 90 z m 289 33 l 289 33 b 344 40 310 40 324 40 b 289 33 331 40 310 33 z "},"E":{"ha":1033,"x_min":0,"x_max":0,"o":"m 6 1039 l 6 1039 l 6 1003 b 125 1003 40 1003 83 1003 b 125 451 125 819 125 636 b 125 35 118 310 132 176 b 6 35 83 35 40 35 l 6 0 b 825 0 274 0 549 -8 b 903 7 839 35 882 28 b 958 35 924 -15 938 28 b 1008 35 974 42 1001 49 b 1001 -8 1022 21 1008 7 l 1029 7 b 1036 388 1036 133 1029 261 b 1008 388 1022 388 1015 388 b 882 154 981 303 951 211 b 571 35 804 69 683 35 b 571 515 564 197 571 360 b 690 494 606 515 656 515 b 789 282 761 444 782 360 b 818 282 796 282 804 282 b 818 799 818 451 818 628 b 789 799 804 799 796 799 b 704 586 775 721 775 628 b 571 550 669 550 613 558 b 564 728 571 607 571 664 b 535 728 556 728 542 728 b 549 769 535 742 542 756 b 564 742 556 763 556 749 b 571 783 564 756 564 769 b 507 819 549 799 528 813 b 528 840 514 826 521 833 b 507 847 521 847 514 847 b 549 847 521 847 535 854 b 571 819 556 840 564 826 b 578 1017 571 883 549 953 b 633 1003 592 1010 613 1010 b 633 1017 633 1003 633 1010 b 804 968 690 996 747 982 b 811 989 804 975 811 982 b 853 932 825 968 832 946 b 958 763 903 890 938 833 b 1001 706 967 742 967 706 b 1001 1039 1001 819 1001 925 b 683 1017 896 1039 789 1046 b 690 1039 683 1024 690 1031 b 599 1031 663 1031 633 1024 b 365 1039 521 1039 443 1039 b 372 1017 365 1031 372 1024 b 351 1017 365 1017 358 1017 b 351 1039 351 1024 351 1031 b 6 1039 231 1039 118 1039 z m 958 7 l 958 7 b 981 0 958 -8 974 -8 b 958 7 981 14 967 14 z m 365 1010 l 365 1010 b 386 1003 372 1010 379 1003 b 393 975 393 989 393 982 b 365 1010 379 989 372 996 z m 422 996 l 422 996 b 514 1003 450 1003 478 1010 b 521 982 514 996 521 989 b 500 953 514 975 507 968 b 549 961 514 961 535 961 b 521 925 542 946 528 939 b 422 996 500 961 457 975 z m 408 932 l 408 932 b 443 961 422 939 436 946 b 457 932 450 946 450 939 b 408 932 443 932 422 932 z m 168 876 l 168 876 b 210 890 153 925 196 911 b 231 840 224 876 231 861 b 196 876 224 854 210 868 b 168 876 182 876 175 876 z m 379 911 l 379 911 b 400 897 386 918 408 911 b 379 911 393 890 372 897 z m 457 840 l 457 840 b 464 826 464 840 471 840 b 457 840 457 826 450 826 z m 308 833 l 308 833 b 344 819 324 833 331 826 b 315 813 338 819 331 813 b 308 833 315 819 315 826 z m 189 769 l 189 769 b 217 799 203 776 210 783 b 217 749 217 776 217 763 b 189 769 210 756 203 763 z m 436 790 l 436 790 b 436 769 443 790 443 769 b 436 790 422 769 422 790 z m 153 756 l 153 756 b 196 756 168 756 182 756 b 189 735 196 749 189 742 b 168 728 182 728 175 728 b 153 756 160 742 153 749 z m 196 735 l 196 735 b 246 699 210 728 231 713 b 217 685 238 692 224 685 b 196 735 210 692 203 721 z m 281 728 l 281 728 b 294 713 288 735 301 721 b 281 728 288 706 274 721 z m 436 699 l 436 699 b 478 699 450 713 464 713 b 436 699 464 699 450 699 z m 400 706 l 400 706 b 450 671 422 699 436 685 b 422 643 443 664 429 650 b 393 664 408 650 400 657 b 400 706 400 678 400 692 z m 301 664 l 301 664 b 379 678 331 671 351 678 b 338 657 365 671 351 664 b 344 636 338 650 344 643 b 301 664 331 643 315 650 z m 308 614 l 308 614 b 301 607 331 621 308 586 b 308 614 301 607 308 614 z m 308 586 l 308 586 b 393 614 338 600 365 607 b 408 550 400 593 400 572 b 393 543 400 550 400 543 b 358 572 379 558 372 565 b 365 550 358 565 365 558 b 315 536 351 550 331 543 b 308 586 315 550 308 572 z m 231 572 l 231 572 b 260 572 238 572 253 572 b 260 550 260 565 260 558 b 238 558 253 550 246 550 b 231 572 238 558 238 565 z m 294 543 l 294 543 b 301 529 301 543 308 543 b 294 543 294 529 288 529 z m 294 522 l 294 522 b 308 508 301 529 315 515 b 294 522 294 501 288 515 z m 210 501 l 210 501 b 231 494 217 501 224 494 b 231 472 231 488 231 481 b 196 458 217 465 203 465 b 210 501 203 472 210 488 z m 132 494 l 132 494 b 153 458 139 481 146 472 b 132 451 146 458 139 451 b 132 494 132 465 132 481 z m 175 472 l 175 472 b 182 458 182 481 189 465 b 175 472 175 451 168 465 z m 189 225 l 189 225 b 260 225 210 225 231 225 b 260 197 260 218 260 204 b 189 225 231 197 210 204 z m 288 211 l 288 211 b 308 211 294 211 301 211 b 274 176 301 197 288 183 b 288 211 274 183 281 197 z m 324 204 l 324 204 b 344 197 331 204 338 204 b 324 190 338 197 331 190 b 338 119 331 169 344 147 b 274 99 324 106 294 106 b 288 133 281 106 281 119 b 182 133 253 133 210 119 b 203 154 189 140 196 147 b 168 154 189 154 175 154 b 260 176 189 183 231 190 b 253 147 260 163 260 154 b 288 140 267 140 274 140 b 324 204 294 163 308 183 z m 379 176 l 379 176 b 379 154 386 176 386 154 b 379 176 365 154 365 176 z m 507 176 l 507 176 b 528 169 514 169 521 169 b 521 133 528 154 521 147 b 507 176 514 147 514 163 z m 400 133 l 400 133 b 400 113 408 133 415 113 b 400 133 386 113 386 133 z m 422 140 l 422 140 b 429 92 429 126 429 113 b 422 140 422 113 422 126 z m 514 133 l 514 133 b 535 133 514 133 528 133 b 549 106 535 126 542 113 b 521 119 542 113 528 113 b 507 85 514 106 507 92 b 514 133 507 99 507 119 z m 486 119 l 486 119 b 493 106 493 119 500 119 b 486 119 486 106 478 106 z "},"F":{"ha":1026,"x_min":0,"x_max":0,"o":"m 6 1038 l 6 1038 l 6 1003 b 139 1003 47 1010 97 1017 b 246 1024 161 1031 210 1031 b 274 911 267 989 281 946 b 203 819 239 890 217 854 b 125 749 189 783 153 769 b 146 713 132 735 139 728 b 125 706 139 706 132 706 b 118 35 118 479 125 261 b 6 35 83 35 40 35 l 6 -1 b 711 -1 239 -1 471 -1 b 711 28 711 7 711 21 b 507 63 642 35 571 42 b 535 69 521 63 528 69 b 500 126 528 85 514 106 b 500 190 521 147 514 169 b 564 190 521 190 542 190 b 528 140 549 176 542 161 l 571 140 b 571 494 571 261 571 381 b 733 444 626 494 697 494 b 789 261 775 388 775 325 b 825 261 804 261 811 261 b 818 735 818 417 825 572 b 789 790 818 756 811 776 b 761 635 782 735 775 685 b 690 543 740 600 711 572 b 676 550 683 543 683 543 b 676 522 676 536 676 529 b 669 522 676 522 669 522 b 619 543 656 529 635 536 b 642 501 626 529 635 515 b 571 543 613 501 585 515 b 549 650 564 579 564 614 b 564 635 557 643 564 643 b 571 996 564 756 571 875 b 606 1038 599 996 606 1017 b 6 1038 408 1038 203 1031 z m 521 126 l 521 126 b 535 113 514 119 521 99 b 521 126 542 113 528 133 z m 338 154 l 338 154 b 331 133 324 154 317 133 b 338 154 338 133 344 147 z m 338 621 l 338 621 b 344 607 331 607 338 607 b 338 621 351 621 344 621 z m 393 713 l 393 713 b 401 685 393 699 393 692 b 422 692 408 685 415 692 b 429 713 429 699 429 706 b 393 713 415 713 408 713 z m 118 769 l 118 769 b 161 813 132 783 146 797 b 118 769 139 806 125 790 z m 224 925 l 224 925 b 224 904 224 918 224 911 b 253 904 231 904 246 904 b 239 925 246 911 246 918 b 224 925 239 925 231 925 z m 182 925 l 182 925 b 182 890 182 918 182 904 b 203 925 189 904 196 911 b 182 925 196 925 189 925 z m 125 932 l 125 932 b 125 806 125 890 125 847 b 139 847 132 819 132 833 b 168 854 146 847 161 854 b 139 861 161 854 146 861 b 153 911 146 875 146 890 b 125 932 139 918 132 925 z m 118 975 l 118 975 b 161 960 132 968 146 968 b 161 989 161 968 161 982 b 118 975 146 982 132 982 z m 960 1038 l 960 1038 b 981 1024 951 1024 974 1017 b 960 1038 988 1038 967 1046 z m 635 1038 l 635 1038 b 649 1003 642 1031 642 1017 b 768 996 690 1003 726 996 b 889 918 818 996 853 946 b 988 728 951 875 960 790 l 1022 713 b 1008 975 1022 806 1015 890 b 944 1017 988 989 967 1003 b 931 953 917 1003 924 975 b 896 1038 910 982 903 1010 b 635 1038 811 1038 719 1038 z m 797 1031 l 797 1031 b 811 1031 804 1031 811 1031 b 825 1010 818 1024 818 1017 b 804 1003 818 1010 811 1003 b 797 1031 797 1010 797 1017 z m 118 1031 l 118 1031 b 139 1024 125 1038 146 1031 b 118 1031 132 1010 111 1017 z m 486 861 l 486 861 b 493 847 493 861 500 847 b 486 861 479 840 471 854 z m 231 840 l 231 840 b 260 790 239 819 246 806 b 203 769 239 783 224 776 b 224 806 203 783 217 797 b 231 840 224 819 224 826 z m 408 833 l 408 833 b 479 783 436 826 464 813 b 436 806 464 790 450 797 b 429 790 429 797 429 790 b 450 776 436 783 443 776 b 401 776 429 776 415 776 b 408 833 401 797 408 813 z m 521 833 l 521 833 b 521 813 528 833 528 813 b 521 833 507 813 507 833 z m 358 783 l 358 783 b 415 763 379 776 401 769 b 401 735 415 756 408 749 b 464 769 429 728 450 756 b 479 735 471 756 471 749 b 528 763 493 749 507 756 b 493 713 521 742 507 728 b 549 671 514 706 535 692 b 528 664 542 664 535 664 b 535 621 528 650 535 635 b 450 593 507 614 486 600 b 471 628 457 600 464 614 b 507 643 479 643 500 635 b 521 650 514 643 514 650 b 514 664 514 657 514 657 b 415 671 479 664 443 671 b 372 719 386 678 379 699 b 338 650 358 699 351 671 b 372 657 351 650 358 650 b 379 600 372 635 379 621 b 317 572 351 600 338 579 b 294 650 294 593 301 621 b 344 678 308 657 324 664 b 324 706 338 685 331 699 b 281 657 331 678 301 664 b 344 749 294 692 308 735 b 358 706 351 735 351 719 b 358 783 358 735 358 756 z m 253 756 l 253 756 b 288 713 267 742 274 728 b 253 706 274 713 267 706 b 246 671 246 692 246 685 b 210 685 231 678 224 678 b 224 735 217 699 224 719 b 253 719 231 728 246 728 b 253 756 253 735 253 742 z m 146 735 l 146 735 b 189 735 161 735 175 735 b 189 692 189 719 189 706 b 210 685 196 685 203 685 b 175 671 196 678 189 678 b 146 735 175 692 161 713 z m 182 650 l 182 650 b 210 607 196 643 203 621 b 161 607 196 607 175 607 b 182 650 168 621 175 635 z m 246 650 l 246 650 b 253 635 253 650 260 650 b 246 650 246 635 239 635 z m 443 586 l 443 586 b 471 579 450 579 457 579 b 464 557 471 572 464 565 b 422 557 450 557 436 557 b 443 586 429 565 436 572 z m 288 586 l 288 586 b 324 543 301 572 317 557 b 288 586 308 550 288 557 z m 317 522 l 317 522 b 358 565 331 536 344 550 b 379 529 365 557 372 543 b 317 522 358 522 338 522 z m 493 550 l 493 550 b 528 529 507 543 521 536 b 564 543 542 529 549 536 b 521 501 549 522 535 515 b 493 550 507 515 500 536 z m 514 401 l 514 401 b 528 479 493 431 507 458 b 549 451 535 472 542 458 b 514 401 535 438 521 417 z m 761 479 l 761 479 b 797 458 775 472 789 465 b 761 479 782 458 768 465 z m 422 458 l 422 458 b 429 444 429 458 436 444 b 422 458 415 438 408 451 z m 429 431 l 429 431 b 500 451 450 444 471 451 b 429 431 479 431 450 431 z m 294 289 l 294 289 b 338 296 308 289 324 296 b 317 268 331 289 324 275 b 294 289 308 275 301 282 z m 224 282 l 224 282 b 203 211 231 254 224 232 b 224 282 203 239 217 261 z m 210 204 l 210 204 b 274 247 231 218 253 232 b 288 211 281 232 281 218 b 317 211 294 211 308 211 b 317 169 317 197 317 183 b 372 183 338 176 351 176 b 365 147 365 169 365 154 b 379 169 372 154 379 161 b 386 106 379 147 401 126 b 308 140 358 113 331 126 b 331 161 317 147 324 154 b 210 204 288 161 239 169 z m 386 204 l 386 204 b 422 232 393 218 408 225 b 386 204 415 225 401 211 z m 288 126 l 288 126 b 294 113 294 126 301 126 b 288 126 288 113 281 113 z m 429 99 l 429 99 b 464 85 443 92 450 92 b 457 35 464 69 457 49 b 429 99 443 49 429 69 z m 486 92 l 486 92 b 521 92 500 92 507 92 b 486 92 514 76 493 69 z m 358 69 l 358 69 b 372 63 365 76 379 69 b 358 69 372 49 351 63 z m 486 63 l 486 63 b 521 42 500 56 514 49 b 486 21 507 35 493 28 b 486 63 486 35 486 49 z "},"G":{"ha":1126,"x_min":0,"x_max":0,"o":"m 168 935 l 168 935 b 154 850 147 914 133 879 b 126 815 147 836 133 822 b 133 879 133 836 133 857 b 104 864 126 871 111 864 b 111 822 111 850 111 836 b 90 843 104 829 97 836 b 19 674 63 793 26 738 b 69 603 42 653 63 631 b 49 603 63 603 56 603 b 69 539 56 582 63 561 b 42 546 56 539 49 546 b 49 518 42 539 49 525 b -1 490 33 511 19 504 b 19 328 -1 440 -8 376 b 111 150 33 264 76 207 b 196 207 133 179 161 200 b 126 143 182 172 154 157 b 260 44 161 101 204 51 b 289 17 274 44 282 24 b 289 51 289 24 289 38 b 351 72 310 51 331 58 b 317 24 338 51 331 38 b 367 38 338 24 351 31 b 344 44 367 38 351 44 b 394 88 367 58 381 72 b 408 81 401 81 401 81 b 401 44 401 65 401 58 b 381 51 394 51 388 51 b 394 24 381 44 388 31 b 429 51 408 38 422 44 b 401 -26 436 17 422 -6 b 522 -26 444 -33 486 -40 b 536 -40 529 -33 529 -40 b 543 -6 536 -33 543 -19 b 493 51 529 17 500 31 b 493 321 486 143 493 235 b 479 321 486 321 479 321 b 493 397 486 349 493 369 b 486 871 493 553 486 715 b 522 992 493 914 493 964 b 663 1013 564 1019 614 1013 b 974 653 825 985 974 829 b 1010 653 988 653 994 653 b 1003 1056 1010 786 1010 921 b 903 992 967 1042 932 1019 b 854 978 889 985 868 971 b 719 1042 811 999 769 1026 b 168 935 529 1090 317 1056 z m 374 31 l 374 31 b 381 17 367 24 374 10 b 374 31 388 24 381 38 z m 140 264 l 140 264 b 154 250 133 250 147 243 b 140 264 161 257 147 271 z m 585 454 l 585 454 l 585 419 b 663 419 599 419 642 419 b 656 94 656 306 663 200 b 564 -12 656 38 614 -6 b 649 -40 592 -26 614 -33 b 656 -19 649 -33 649 -26 b 614 -12 642 -12 628 -12 b 649 17 628 3 635 10 b 685 -33 669 3 676 -12 b 713 3 692 -26 699 -12 b 733 -19 719 -6 726 -12 b 818 3 763 -12 790 -12 b 939 58 861 17 896 38 b 1058 -54 974 24 1017 -19 b 1058 419 1058 101 1051 257 b 1129 419 1072 419 1108 419 l 1129 454 b 585 454 946 454 763 454 z m 847 426 l 847 426 b 861 419 847 419 854 419 b 875 383 861 413 868 397 b 875 419 875 397 875 406 b 889 419 882 419 889 419 b 889 390 889 413 889 397 b 903 406 889 397 896 397 b 889 363 903 390 896 376 b 847 426 868 376 847 397 z m 839 186 l 839 186 b 854 172 847 193 861 179 b 839 186 847 165 832 179 z m 910 88 l 910 88 b 917 72 917 88 925 88 b 910 88 910 72 903 72 z m 854 65 l 854 65 b 861 51 861 72 868 51 b 854 65 847 44 839 65 z m -8 539 l -8 539 b -8 504 -8 532 -8 518 b 13 546 -1 518 6 532 b -8 539 6 546 -1 539 z m 218 942 l 218 942 b 225 928 225 942 232 942 b 218 942 218 928 211 928 z m 175 935 l 175 935 b 161 871 189 914 175 893 b 175 935 168 893 168 914 z m 189 900 l 189 900 b 218 928 204 907 211 914 b 211 871 218 907 211 886 b 189 900 204 879 196 886 z m 111 815 l 111 815 b 111 793 118 815 118 793 b 111 815 97 793 97 815 z m 274 694 l 274 694 b 310 681 289 694 296 688 b 260 667 296 674 282 674 b 274 694 267 674 267 688 z m 189 511 l 189 511 b 225 553 196 532 204 546 b 189 511 218 539 204 525 z m 182 433 l 182 433 b 218 475 196 447 204 468 b 267 454 232 475 253 461 b 218 433 253 447 232 440 b 253 426 232 426 239 426 b 246 406 246 419 246 413 b 182 433 225 413 204 419 z m 33 447 l 33 447 b 42 433 42 454 56 440 b 33 447 33 426 26 440 z m 161 426 l 161 426 b 196 413 168 419 182 419 b 168 390 189 406 175 397 b 161 426 161 397 161 413 z m 56 390 l 56 390 b 90 342 69 376 83 356 b 63 342 83 342 69 342 b 56 390 56 356 56 376 z m 444 363 l 444 363 b 472 335 451 356 465 349 b 408 321 451 328 429 321 b 401 335 408 328 401 335 b 444 363 415 349 429 356 z m 26 335 l 26 335 b 69 321 42 328 56 328 b 56 299 63 313 63 306 b 26 335 49 313 33 321 z m 111 328 l 111 328 b 154 328 126 321 140 321 b 168 250 161 299 161 278 b 111 207 154 235 133 214 b 104 271 111 228 104 250 b 90 278 97 271 90 278 b 111 299 97 285 104 292 b 83 306 97 306 90 306 b 111 328 90 313 104 321 z m 374 278 l 374 278 b 408 278 388 278 401 278 b 374 278 401 257 381 257 z m 358 243 l 358 243 b 367 235 367 250 374 235 b 358 243 358 228 351 243 z m 253 179 l 253 179 b 260 165 260 179 267 179 b 253 179 253 165 246 165 z m 422 88 l 422 88 b 422 65 429 88 429 65 b 422 88 408 65 408 88 z "},"H":{"ha":1293,"x_min":0,"x_max":0,"o":"m -19 1039 l -19 1039 b -12 1003 -12 1024 -12 1017 b 114 1003 29 1003 72 1003 b 114 854 114 953 114 904 b 121 868 114 861 121 861 b 157 776 136 840 157 813 b 121 826 143 799 136 813 b 114 671 107 776 114 721 b 114 35 114 458 114 247 b -12 35 72 35 29 35 l -12 0 b 601 7 192 0 397 -8 b 546 14 588 14 567 14 b 454 42 524 35 489 78 b 461 69 454 49 461 63 b 517 78 475 69 496 78 b 503 49 510 69 503 63 b 553 42 517 49 539 42 b 524 63 546 49 532 56 b 560 169 532 99 560 126 b 560 522 567 282 553 403 b 743 522 624 529 686 522 b 743 140 743 394 743 268 b 736 42 743 106 750 69 b 672 28 722 35 686 35 l 672 0 b 1315 0 885 0 1097 0 l 1315 35 b 1189 35 1274 35 1231 35 b 1182 318 1189 126 1189 225 b 1139 332 1167 325 1153 325 b 1189 381 1153 353 1167 367 b 1175 444 1182 403 1182 424 b 1132 465 1160 458 1146 458 b 1182 529 1139 494 1160 508 b 1153 515 1175 522 1160 522 b 1175 565 1160 536 1167 550 b 1189 543 1182 558 1182 550 b 1189 614 1189 558 1189 593 b 1167 614 1182 614 1175 614 b 1167 593 1167 607 1167 600 b 1125 671 1132 600 1125 636 b 1146 636 1132 657 1139 643 b 1189 678 1160 650 1175 664 b 1175 742 1182 699 1182 721 b 1118 728 1153 742 1139 735 b 1090 769 1111 742 1097 756 b 1111 790 1097 776 1104 783 b 1139 776 1118 783 1125 783 b 1132 799 1132 783 1132 790 b 1189 783 1153 790 1167 790 l 1189 819 b 1167 806 1182 813 1175 806 b 1189 1003 1203 861 1175 939 b 1308 1003 1231 1003 1267 1003 b 1308 1039 1308 1017 1308 1024 b 1026 1031 1210 1039 1118 1039 b 926 1039 990 1031 963 1031 b 956 1017 935 1031 942 1024 b 885 968 926 1010 899 989 b 885 982 885 975 885 975 b 828 996 864 975 842 989 b 864 996 835 996 850 996 b 842 1039 857 1010 850 1024 b 665 1039 786 1039 722 1039 l 679 1010 b 736 996 694 1010 722 996 b 757 911 743 968 750 939 b 786 883 764 904 772 897 b 743 840 757 883 743 861 b 743 558 743 749 743 650 b 560 558 679 558 617 558 b 567 1003 567 706 567 854 b 644 1003 581 1003 624 1003 l 644 1039 b -19 1039 425 1039 206 1039 z m 588 35 l 588 35 b 644 -8 601 14 617 -8 b 631 42 638 14 638 28 b 624 21 631 35 624 28 b 588 35 610 28 601 28 z m 553 92 l 553 92 b 553 69 539 92 539 69 b 553 92 560 69 560 92 z m 354 133 l 354 133 b 354 113 340 133 340 113 b 354 133 361 113 361 133 z m 1033 254 l 1033 254 b 1075 282 1047 261 1068 268 b 1033 254 1061 275 1047 268 z m 129 1031 l 129 1031 b 157 1010 136 1024 150 1017 b 129 1010 150 1010 136 1010 b 129 1031 129 1017 129 1031 z m 206 1031 l 206 1031 b 206 1010 214 1031 214 1010 b 206 1031 192 1010 192 1031 z m 164 1017 l 164 1017 b 171 1003 171 1017 178 1017 b 164 1017 164 1003 157 1003 z m 121 982 l 121 982 b 143 975 129 989 143 989 b 121 982 136 968 121 968 z m 935 932 l 935 932 b 963 946 942 939 949 946 b 997 925 976 946 983 932 b 935 932 976 925 956 925 z m 150 904 l 150 904 b 192 918 164 911 178 918 b 192 904 192 918 192 911 b 150 904 178 904 164 904 z m 926 911 l 926 911 b 935 897 935 911 942 911 b 926 911 926 897 919 897 z m 1118 876 l 1118 876 b 1153 876 1132 876 1139 876 b 1153 854 1153 868 1153 861 b 1118 876 1139 861 1132 868 z m 164 826 l 164 826 b 221 854 185 833 206 840 b 199 806 214 840 206 819 b 178 819 192 813 185 813 b 171 799 178 813 171 806 b 164 826 164 806 164 813 z m 1125 847 l 1125 847 b 1125 833 1139 861 1139 833 b 1125 847 1118 833 1118 847 z m 425 799 l 425 799 b 439 819 432 806 432 813 b 446 783 446 813 446 799 b 432 776 439 783 439 776 b 425 799 425 783 425 790 z m 1054 783 l 1054 783 b 1090 826 1061 799 1075 813 b 1090 799 1090 813 1090 806 b 1111 813 1097 806 1104 806 b 1061 749 1090 790 1068 776 b 1054 783 1061 756 1054 769 z m 475 769 l 475 769 b 475 749 489 776 489 756 b 475 769 468 749 461 769 z m 1013 756 l 1013 756 b 1026 742 1019 769 1033 756 b 1013 756 1019 735 997 749 z m 990 749 l 990 749 b 997 728 1004 749 1004 728 b 990 749 983 721 976 742 z m 1075 749 l 1075 749 b 1090 735 1082 756 1097 742 b 1075 749 1082 728 1068 742 z m 249 657 l 249 657 b 269 657 249 657 263 657 b 249 621 263 643 256 636 b 249 657 249 636 249 643 z m 468 600 l 468 600 b 475 593 475 607 482 593 b 468 600 468 586 461 600 z m 871 579 l 871 579 b 885 522 885 565 892 543 b 850 536 878 522 864 529 b 878 536 864 536 871 536 b 871 579 878 550 871 565 z m 1040 572 l 1040 572 b 1054 550 1047 579 1061 558 b 1040 572 1047 543 1026 558 z m 1132 550 l 1132 550 b 1139 536 1139 558 1146 543 b 1132 550 1132 529 1125 543 z m 1004 536 l 1004 536 b 1082 536 1033 536 1061 536 b 1082 522 1082 536 1082 529 b 1104 522 1090 522 1097 522 b 1075 515 1097 522 1082 515 b 1097 465 1082 494 1090 481 b 1047 481 1082 472 1061 481 b 1054 529 1047 494 1047 515 b 1019 522 1040 529 1026 529 b 1004 536 1013 529 1013 536 z m 1019 501 l 1019 501 b 1026 488 1026 501 1033 501 b 1019 501 1019 488 1013 488 z m 1061 451 l 1061 451 b 1090 458 1068 458 1075 458 b 1068 424 1082 451 1075 438 b 1090 431 1075 431 1082 431 b 1097 410 1097 424 1097 417 b 1054 388 1082 403 1068 394 b 1061 451 1054 410 1061 431 z m 425 424 l 425 424 b 454 374 439 410 446 388 b 468 410 461 388 468 394 b 489 388 475 403 482 394 b 432 353 475 367 461 353 b 425 424 432 381 432 403 z m 376 410 l 376 410 b 418 346 397 394 418 374 b 347 367 397 353 369 360 b 369 367 354 367 361 367 b 376 410 369 381 369 394 z m 1075 388 l 1075 388 b 1090 374 1082 394 1104 381 b 1075 388 1082 360 1068 374 z m 1013 240 l 1013 240 b 1068 346 1033 275 1040 318 b 1125 282 1068 303 1125 318 b 1182 176 1132 240 1160 211 b 1118 218 1153 190 1139 204 b 1061 218 1097 218 1075 204 b 1019 176 1047 204 1033 190 b 1047 240 1013 204 1026 218 l 1013 240 z m 340 325 l 340 325 b 354 310 347 332 361 310 b 340 325 340 296 333 318 z m 319 140 l 319 140 b 383 183 340 163 361 169 b 361 92 383 154 383 119 b 376 35 347 78 369 56 b 283 126 333 49 299 85 b 249 119 269 119 256 119 b 249 140 249 126 249 133 b 306 154 269 140 292 147 b 299 119 306 147 306 133 b 319 119 306 119 313 119 b 319 140 319 126 319 133 z m 432 154 l 432 154 b 432 133 446 154 446 133 b 432 154 425 126 418 147 z m 446 133 l 446 133 b 517 126 475 133 496 126 b 475 85 510 106 496 99 b 482 99 475 92 475 99 b 446 133 468 113 461 126 z m 757 28 l 757 28 b 750 7 764 21 764 7 b 757 28 736 14 743 28 z m 800 28 l 800 28 b 800 7 807 28 807 7 b 800 28 786 7 786 28 z "},"I":{"ha":722,"x_min":0,"x_max":0,"o":"m 13 1028 l 13 1028 b 125 1000 47 1007 83 1000 b 111 1035 118 1007 118 1021 b 13 1028 83 1035 47 1035 z m 210 11 l 210 11 b 203 -3 196 11 189 -3 b 210 11 210 -11 217 4 z m 97 11 l 97 11 b 118 -3 90 -3 111 -11 b 97 11 125 11 104 18 z m 146 32 l 146 32 b 139 11 132 32 125 11 b 146 32 153 4 160 25 z m 19 39 l 19 39 l 19 -3 b 83 -3 40 -3 54 -3 b 19 39 68 18 47 39 z m 246 18 l 246 18 b 281 11 260 11 267 11 b 267 53 274 25 274 39 b 246 18 260 39 253 25 z m 542 151 l 542 151 b 578 110 556 138 571 124 b 585 160 585 124 585 144 b 542 151 571 160 556 160 z m 542 181 l 542 181 b 542 160 528 181 528 160 b 542 181 549 160 549 181 z m 281 188 l 281 188 b 301 181 274 174 294 167 b 281 188 301 194 288 194 z m 393 1035 l 393 1035 b 393 1014 393 1028 393 1021 b 422 1021 400 1014 415 1021 b 393 1035 415 1028 400 1035 z m 168 1035 l 168 1035 b 139 929 132 1014 139 958 b 139 39 125 632 132 336 b 210 60 160 53 182 67 b 224 67 210 60 217 67 b 238 82 231 74 231 82 b 260 46 246 74 253 60 b 281 103 267 67 274 82 b 260 89 274 96 267 96 b 217 160 253 117 238 144 b 246 160 231 160 238 160 b 246 201 246 174 246 188 b 274 174 253 194 260 188 b 288 244 281 201 281 222 b 315 181 294 222 301 201 b 267 138 301 167 288 151 b 308 151 281 144 294 144 b 288 103 301 138 294 117 b 324 110 294 103 308 103 b 281 89 315 103 294 96 b 358 82 308 82 338 67 b 379 39 365 67 372 53 b 351 60 365 46 358 53 b 331 39 344 53 338 46 b 379 25 344 32 365 25 b 358 18 372 18 365 18 b 358 -3 358 11 358 4 b 676 -3 464 -3 571 -3 b 669 18 676 4 669 11 b 711 -3 683 11 697 4 l 704 32 b 585 32 663 32 626 32 b 578 96 585 53 578 74 b 535 82 564 89 549 82 b 564 110 542 89 556 96 b 507 96 542 103 528 96 b 471 117 493 103 486 110 b 514 174 500 124 507 151 b 486 160 507 167 493 167 b 486 188 486 174 486 181 b 585 188 514 188 549 188 b 585 1000 585 456 578 725 b 711 1007 626 1000 669 1000 b 711 1035 711 1014 711 1028 b 457 1021 626 1035 535 1043 b 464 986 457 1014 457 1000 b 443 1000 457 993 450 993 b 422 979 436 993 429 986 b 450 929 429 965 443 943 b 443 915 450 929 443 915 b 415 936 436 922 422 929 b 365 922 400 929 379 929 b 379 943 365 929 372 936 b 338 950 365 943 351 950 b 372 979 344 958 358 972 b 338 986 358 986 344 986 b 344 1035 331 1007 344 1021 b 168 1035 288 1035 224 1035 z m 160 936 l 160 936 b 168 922 168 943 182 922 b 160 936 160 908 146 929 z m 331 922 l 331 922 b 324 901 344 922 338 901 b 331 922 308 908 315 922 z m 146 901 l 146 901 b 153 894 153 915 168 901 b 146 901 146 881 139 894 z m 386 881 l 386 881 b 393 872 393 888 400 872 b 386 881 386 865 379 881 z m 400 739 l 400 739 b 436 788 415 760 422 774 b 400 739 436 760 429 746 z m 379 739 l 379 739 b 429 682 408 732 443 718 b 379 739 408 696 372 710 z m 210 732 l 210 732 b 224 718 217 739 231 725 b 210 732 217 710 203 725 z m 429 485 l 429 485 b 422 435 429 469 422 449 b 400 449 415 442 408 442 b 429 485 408 463 422 469 z m 315 469 l 315 469 b 365 428 338 463 372 463 b 315 469 351 442 338 456 z m 294 407 l 294 407 b 308 392 301 414 315 392 b 294 407 294 378 288 400 z m 231 371 l 231 371 b 238 350 246 371 246 357 b 231 371 224 350 224 364 z m 182 201 l 182 201 b 253 222 203 222 231 229 b 182 201 238 201 210 201 z m 153 215 l 153 215 b 168 208 160 229 175 215 b 153 215 160 201 146 208 z m 422 222 l 422 222 b 415 208 429 215 422 201 b 422 222 400 208 408 222 z m 415 201 l 415 201 b 471 208 436 208 450 208 b 464 181 471 201 464 194 b 429 194 450 188 443 188 b 471 144 443 174 457 160 b 457 124 464 138 464 131 b 415 201 429 144 422 174 z m 393 160 l 393 160 b 408 144 400 167 415 151 b 393 160 400 138 386 151 z m 203 144 l 203 144 b 203 124 210 144 217 131 b 203 144 196 124 189 138 z "},"J":{"ha":969,"x_min":0,"x_max":0,"o":"m 251 1046 l 251 1046 l 251 1010 b 386 1010 294 1017 343 1010 b 393 735 393 918 393 826 b 414 678 393 714 400 692 b 393 163 372 508 414 332 b 315 35 386 113 365 56 b 196 28 281 21 238 28 b 96 85 160 35 132 64 b 244 106 146 85 203 78 b 315 254 288 133 322 197 b 231 381 315 311 274 360 b 11 282 146 410 40 367 b 153 7 -24 169 47 49 b 443 -29 238 -43 343 -22 b 428 35 436 -7 436 14 b 421 14 428 28 421 14 b 393 42 407 21 400 35 b 450 42 407 42 428 42 b 443 28 450 35 443 28 b 478 14 450 21 464 21 b 492 42 478 21 485 35 b 471 35 485 35 478 35 b 478 126 492 64 492 92 b 528 106 492 113 514 106 b 542 85 535 99 542 92 b 542 126 542 99 542 113 b 592 78 563 113 576 99 b 549 49 576 71 563 56 b 576 21 563 42 569 28 b 549 21 569 21 556 21 b 569 0 556 14 563 7 b 654 28 599 7 626 14 b 739 92 690 42 732 49 b 803 140 761 106 796 113 b 796 183 817 156 803 169 b 732 99 768 163 754 126 b 775 218 746 140 732 197 b 775 247 775 226 775 240 b 796 233 782 240 789 233 b 832 275 803 247 817 261 b 810 268 824 275 817 275 b 810 289 810 275 810 282 b 761 374 782 311 775 346 b 739 311 754 353 746 332 b 690 360 725 325 711 346 b 704 325 697 346 704 332 b 661 332 690 325 676 332 b 661 381 661 346 661 360 b 697 360 676 374 683 367 b 775 467 725 396 775 417 b 803 431 782 451 796 444 b 789 396 803 417 789 410 b 839 396 803 396 824 396 b 846 728 839 508 839 614 b 860 1046 846 833 832 947 b 492 1046 739 1046 613 1039 b 506 1003 492 1032 499 1017 b 457 982 492 996 471 989 b 478 1046 450 1010 457 1032 b 251 1046 400 1046 329 1046 z m 817 204 l 817 204 b 810 183 810 197 803 190 b 817 204 824 176 832 204 z m 796 211 l 796 211 b 839 211 810 211 824 211 b 839 233 839 218 839 233 b 796 211 824 226 810 218 z m 860 1010 l 860 1010 b 965 1010 894 1010 931 1010 l 965 1046 b 860 1010 924 1046 888 1039 z m 443 911 l 443 911 b 535 1010 464 954 492 996 b 569 918 549 982 569 954 b 528 939 556 925 542 932 b 528 911 528 925 528 918 b 506 932 521 918 514 925 b 478 918 499 925 492 925 b 499 954 485 932 492 939 b 443 911 478 939 464 925 z m 478 904 l 478 904 b 492 890 485 911 499 897 b 478 904 485 883 471 897 z m 619 826 l 619 826 b 633 897 606 854 613 883 b 619 826 633 869 626 847 z m 471 776 l 471 776 b 478 756 478 776 485 763 b 471 776 464 756 457 769 z m 443 763 l 443 763 b 471 756 457 763 464 756 b 450 735 464 749 457 742 b 443 763 450 742 450 756 z m 619 685 l 619 685 b 704 636 647 671 676 650 b 676 579 690 614 683 600 b 619 685 668 622 640 650 z m 436 458 l 436 458 b 457 444 443 467 464 458 b 436 458 450 438 436 444 z m 556 360 l 556 360 b 583 367 569 360 576 367 b 599 346 592 360 592 353 b 556 360 583 346 569 353 z m 576 332 l 576 332 b 592 318 583 339 599 325 b 576 332 583 311 569 318 z m 626 311 l 626 311 b 640 296 633 318 647 304 b 626 311 633 289 619 304 z m 492 275 l 492 275 l 528 275 b 521 247 528 268 521 254 b 492 275 514 254 499 261 z m 443 190 l 443 190 b 492 240 457 211 478 226 b 443 190 492 211 471 197 z m 661 211 l 661 211 b 697 211 676 211 683 211 b 690 176 697 204 690 190 b 661 211 683 190 668 197 z m 690 140 l 690 140 b 739 183 704 156 718 169 b 725 133 732 169 732 156 b 690 140 711 133 704 140 z m 542 149 l 542 149 b 563 156 549 156 556 156 b 556 126 563 149 556 140 b 542 126 556 126 542 126 b 542 149 542 133 542 140 z m 654 149 l 654 149 b 676 126 661 156 683 140 b 654 149 668 119 647 133 z m 668 71 l 668 71 b 718 92 683 78 704 85 b 668 71 704 78 690 71 z m 606 85 l 606 85 b 640 42 619 71 626 56 b 626 28 633 35 633 35 b 606 85 619 49 613 64 z m 386 28 l 386 28 b 393 7 400 28 407 14 b 386 28 386 0 379 21 z "},"K":{"ha":1282,"x_min":0,"x_max":0,"o":"m -21 1038 l -21 1038 l -21 1003 b 107 1003 21 1003 64 1003 b 107 664 107 890 99 776 b 156 685 121 671 135 678 b 107 635 135 671 121 657 b 99 543 99 607 107 572 b 142 586 114 557 128 572 b 121 550 135 572 128 565 b 149 565 135 557 142 557 b 128 501 142 543 135 522 b 107 515 121 508 114 508 b 107 360 107 458 107 410 b 128 367 114 360 121 367 b 114 394 121 374 121 388 b 156 431 128 410 142 417 b 183 410 169 424 176 417 b 183 438 183 417 183 431 b 213 401 192 424 206 410 b 199 374 213 394 206 381 b 219 367 206 374 213 367 b 149 360 192 360 169 353 b 156 339 149 353 156 346 b 99 339 142 339 121 339 b 121 232 107 303 107 261 b 128 147 128 204 156 176 b 206 113 156 140 192 140 b 107 85 176 106 142 99 b 99 35 99 69 99 49 b 29 -1 78 21 57 14 b 107 -1 57 7 78 7 b 92 21 99 7 92 14 b 219 -1 128 -1 176 -1 b 233 42 226 14 226 28 b 240 -1 233 35 240 14 b 290 7 254 7 276 7 b 276 35 290 14 283 28 b 318 21 290 28 304 28 b 311 -1 318 14 311 7 b 672 -1 432 -1 551 -1 l 672 35 b 551 35 629 35 588 35 b 551 458 544 176 551 317 b 510 515 558 494 531 501 b 544 508 524 515 538 515 b 551 536 551 522 551 529 b 588 501 565 522 572 508 b 608 529 594 508 601 522 b 572 515 594 522 588 522 b 622 557 594 529 608 543 b 643 515 629 543 636 529 b 622 522 636 522 629 522 b 615 488 622 508 622 501 b 579 488 608 488 594 488 b 657 346 608 444 629 394 b 813 35 707 239 764 140 b 714 35 778 35 742 35 l 714 -1 b 982 7 799 -1 890 7 b 940 28 968 14 954 21 b 1032 28 975 35 1004 49 b 1096 69 1046 42 1068 63 b 1188 56 1124 63 1160 49 b 1272 63 1215 56 1244 63 b 1082 438 1215 190 1144 310 b 968 650 1039 508 1011 579 b 897 797 933 692 919 749 b 1215 1003 997 875 1096 960 b 1215 1038 1215 1010 1215 1024 b 1089 1038 1174 1038 1131 1038 b 1110 996 1096 1024 1103 1010 b 1082 982 1103 996 1089 989 b 1068 1010 1075 989 1075 996 b 1011 989 1053 1003 1032 996 b 1032 1017 1018 996 1025 1010 b 997 1003 1018 1010 1004 1010 b 997 1031 997 1010 997 1024 b 735 1038 913 1046 819 1038 l 742 1010 b 883 960 792 989 856 1003 b 876 840 913 925 913 868 b 679 685 813 783 742 735 b 686 657 679 678 686 664 b 728 664 700 657 714 664 b 714 628 721 650 721 635 b 672 607 700 621 686 614 b 672 671 672 628 672 650 b 594 607 643 650 615 628 b 594 579 594 600 594 593 b 544 586 579 586 565 586 b 551 1003 551 728 544 861 b 686 1003 594 1003 636 1003 l 686 1038 b 375 1031 579 1038 474 1038 b -21 1038 240 1038 107 1038 z m 1004 7 l 1004 7 b 1053 -1 1018 7 1039 7 b 1060 21 1053 7 1060 14 b 1004 7 1039 14 1025 14 z m -21 42 l -21 42 l -21 -1 b 21 -1 -14 -1 14 -1 b -21 42 14 21 7 42 z m 975 996 l 975 996 b 982 975 990 1003 997 982 b 975 996 968 968 961 989 z m 176 883 l 176 883 b 261 861 206 875 233 868 b 226 840 247 854 240 847 b 247 833 233 840 240 840 b 199 813 233 826 213 819 b 199 790 199 806 199 797 b 176 797 192 797 183 797 b 233 742 199 783 226 769 b 269 790 240 763 254 776 b 219 692 269 749 240 719 b 226 713 219 699 219 706 b 192 699 213 706 199 706 b 163 749 183 713 169 735 b 135 742 156 749 142 742 b 114 769 128 749 121 763 b 156 756 128 763 142 763 b 169 776 156 763 163 769 b 176 883 149 806 176 847 z m 361 742 l 361 742 b 375 728 375 749 382 735 b 361 742 368 719 354 735 z m 149 728 l 149 728 b 176 706 156 719 169 713 b 121 699 163 699 142 699 b 149 728 135 706 142 719 z m 707 692 l 707 692 b 721 685 707 699 721 692 b 707 692 721 671 700 678 z m 813 650 l 813 650 b 819 635 819 650 828 650 b 813 650 813 635 806 635 z m 679 565 l 679 565 b 742 614 672 600 714 614 b 721 607 735 614 728 607 b 750 557 735 593 750 579 b 764 479 750 529 750 508 b 721 515 750 494 728 501 b 735 543 721 529 735 536 b 693 543 721 543 707 543 b 714 600 714 557 714 579 b 679 565 707 586 693 579 z m 913 593 l 913 593 b 919 586 919 600 933 586 b 913 593 913 579 904 593 z m 510 572 l 510 572 b 517 593 510 579 517 586 b 510 543 517 579 517 557 b 544 522 524 536 538 529 b 474 557 517 529 488 529 b 510 572 481 565 501 572 z m 799 579 l 799 579 b 835 593 813 586 819 593 b 842 536 835 572 842 557 b 799 579 828 550 813 565 z m 219 557 l 219 557 b 226 543 226 557 233 557 b 219 557 219 543 213 543 z m 311 565 l 311 565 b 382 494 347 557 368 522 b 389 536 382 508 382 522 b 410 479 396 522 417 508 b 361 472 396 465 375 472 b 311 565 354 508 332 536 z m 913 557 l 913 557 b 919 543 919 557 926 557 b 913 557 913 543 904 543 z m 247 543 l 247 543 b 283 508 261 536 276 522 b 254 501 269 501 261 501 b 247 543 254 515 254 529 z m 283 536 l 283 536 b 290 522 290 536 297 536 b 283 536 283 522 276 522 z m 467 522 l 467 522 b 510 501 481 515 494 508 b 474 501 494 501 481 501 b 467 522 474 508 474 515 z m 121 472 l 121 472 b 156 508 135 488 142 494 b 176 479 163 494 169 488 b 121 472 163 472 135 472 z m 332 494 l 332 494 b 339 479 339 508 354 488 b 332 494 332 472 318 494 z m 439 494 l 439 494 b 453 479 446 501 460 488 b 439 494 446 472 432 488 z m 819 465 l 819 465 b 842 458 828 465 835 465 b 828 444 835 458 835 451 b 778 444 819 444 792 444 b 785 458 785 451 785 458 b 819 465 799 458 806 465 z m 135 472 l 135 472 b 169 438 149 458 156 451 b 135 431 156 438 149 431 b 135 472 135 444 135 458 z m 176 458 l 176 458 b 192 444 183 465 199 458 b 176 458 183 438 169 444 z m 347 451 l 347 451 b 361 458 354 451 361 458 b 368 410 368 444 368 431 b 347 451 361 424 354 438 z m 764 424 l 764 424 b 757 410 771 417 764 401 b 764 424 742 410 750 424 z m 636 410 l 636 410 b 650 394 643 417 657 401 b 636 410 643 388 629 401 z m 403 401 l 403 401 b 446 374 424 401 439 388 b 403 401 432 381 417 394 z m 771 374 l 771 374 b 792 367 778 374 785 367 b 785 303 785 346 785 325 b 757 332 771 310 764 325 b 771 374 764 346 764 360 z m 735 353 l 735 353 b 750 339 742 360 757 353 b 735 353 742 332 728 339 z m 828 346 l 828 346 b 856 346 835 346 849 346 b 819 310 842 332 835 325 b 828 346 828 325 828 332 z m 933 339 l 933 339 b 933 325 940 346 940 325 b 933 339 919 325 919 339 z m 863 346 l 863 346 b 890 303 876 332 883 317 b 863 296 883 296 869 296 b 863 346 863 310 863 325 z m 968 332 l 968 332 b 975 296 968 317 975 310 b 961 282 975 289 968 289 b 947 296 961 289 954 289 b 968 332 954 310 961 317 z m 735 325 l 735 325 b 750 317 742 332 757 325 b 735 325 742 303 728 317 z m 156 310 l 156 310 b 156 289 163 310 163 289 b 156 310 142 289 142 310 z m 163 282 l 163 282 b 169 261 176 282 176 261 b 163 282 156 261 149 275 z m 517 275 l 517 275 b 544 261 524 275 538 268 b 501 247 531 254 517 254 b 517 275 510 261 510 268 z m 481 232 l 481 232 b 488 218 488 232 494 232 b 481 232 481 218 474 218 z m 304 92 l 304 92 b 332 63 311 85 325 76 b 304 63 325 63 311 63 b 304 92 304 76 304 85 z m 325 56 l 325 56 b 354 49 332 56 339 49 b 347 28 354 42 354 35 b 332 21 347 28 339 21 b 325 56 332 35 325 42 z m 297 49 l 297 49 b 311 42 304 56 318 49 b 297 49 311 28 290 42 z m 382 21 l 382 21 b 424 35 396 28 410 35 b 424 21 424 35 424 28 b 382 21 410 21 396 21 z "},"L":{"ha":1033,"x_min":0,"x_max":0,"o":"m 1 1043 l 1 1043 l 1 1007 b 121 1007 43 1007 86 1007 b 128 838 128 950 128 894 b 128 39 121 569 128 307 b 1 39 86 39 43 39 l 1 4 b 178 4 57 4 121 4 b 206 39 192 18 199 25 b 185 46 199 39 192 39 b 192 74 185 53 185 67 b 219 4 219 67 219 32 b 792 4 411 4 601 4 b 792 32 792 11 792 25 b 885 11 821 32 856 32 b 869 53 878 25 878 39 b 899 39 885 46 892 46 b 906 11 906 32 906 25 b 933 32 919 18 926 25 b 940 4 940 25 940 11 b 1018 32 969 4 1011 -4 b 1018 399 1025 151 1018 279 l 990 385 b 940 251 976 343 969 293 b 574 39 863 124 722 60 b 574 314 574 131 574 222 b 581 851 574 492 574 675 b 588 1035 581 908 560 979 b 368 1043 517 1043 446 1043 b 1 1043 249 1043 121 1043 z m 608 1043 l 608 1043 b 608 1014 608 1035 608 1021 b 581 1007 601 1014 588 1007 b 707 1007 622 1007 665 1007 b 715 1043 707 1021 715 1028 b 608 1043 686 1043 638 1043 z m 644 1035 l 644 1035 b 651 1014 651 1035 672 1021 b 644 1035 644 1007 629 1028 z m 446 922 l 446 922 b 482 965 439 950 432 986 b 446 922 475 950 460 936 z m 326 888 l 326 888 b 354 943 319 915 333 929 b 411 894 375 929 397 915 b 446 824 425 872 432 844 b 361 824 418 838 389 838 b 361 851 361 831 361 844 b 319 794 347 831 333 817 b 256 894 290 831 269 858 b 304 831 283 881 304 865 b 319 831 311 831 319 831 b 347 865 333 844 340 851 b 304 851 333 858 319 858 b 319 872 311 858 311 865 b 389 908 347 872 368 888 b 326 888 368 901 347 894 z m 185 881 l 185 881 b 235 872 199 872 219 872 b 206 803 235 844 226 817 b 185 881 192 824 178 851 z m 235 717 l 235 717 b 249 717 235 717 249 717 b 249 668 249 703 249 689 b 213 675 242 675 226 675 b 235 717 219 689 226 703 z m 489 654 l 489 654 b 517 675 496 661 503 668 b 531 654 524 668 524 661 b 489 654 517 654 503 654 z m 269 392 l 269 392 b 333 435 283 421 304 428 b 354 407 340 428 347 414 b 269 392 326 407 297 399 z m 475 336 l 475 336 b 475 314 489 343 489 314 b 475 336 460 322 467 336 z m 219 293 l 219 293 b 226 279 226 300 235 286 b 219 293 219 272 213 293 z m 432 279 l 432 279 b 460 293 439 286 446 286 b 446 251 453 279 453 265 b 432 279 439 258 439 272 z m 467 236 l 467 236 b 475 222 475 236 482 236 b 467 236 467 222 460 222 z "},"M":{"ha":1525,"x_min":0,"x_max":0,"o":"m -8 1042 l -8 1042 l -8 1007 b 83 1007 19 1007 54 1007 b 125 901 104 972 125 943 b 125 336 125 710 118 519 b 61 74 118 244 97 158 b -44 4 26 53 -31 53 b 232 4 47 4 139 4 b 232 18 232 11 232 18 b 358 4 274 -4 317 4 b 301 46 372 46 331 39 b 239 74 281 53 253 60 b 168 357 175 151 161 258 b 168 888 168 533 161 710 b 514 4 281 597 401 300 b 619 4 542 4 592 4 b 960 894 733 300 846 597 b 967 103 967 632 960 364 b 994 89 974 96 988 96 b 1001 117 994 96 1001 110 b 1065 96 1022 117 1051 110 b 1086 103 1072 96 1079 96 b 1086 53 1086 89 1086 74 b 1072 53 1079 53 1079 53 b 1122 4 1086 39 1100 18 b 1235 4 1157 -4 1193 4 b 1242 25 1235 11 1242 18 b 1292 4 1256 18 1271 11 b 1539 4 1369 4 1454 4 l 1539 39 b 1411 39 1496 39 1454 39 b 1404 272 1411 117 1404 194 b 1356 229 1390 258 1369 244 b 1349 286 1356 244 1349 265 b 1369 293 1356 286 1363 293 b 1333 300 1356 293 1349 293 b 1340 343 1340 314 1340 329 b 1363 343 1349 343 1356 343 b 1390 272 1369 314 1376 293 b 1411 279 1397 272 1404 279 b 1383 336 1397 300 1390 314 b 1404 321 1390 329 1397 329 b 1383 428 1397 357 1418 399 b 1340 435 1376 442 1356 435 b 1340 456 1340 442 1340 449 b 1404 456 1363 456 1383 456 b 1404 618 1404 513 1411 561 b 1306 654 1369 632 1340 639 b 1313 668 1306 661 1313 661 b 1278 647 1306 661 1292 654 b 1242 703 1271 668 1256 682 b 1249 717 1242 703 1249 710 b 1319 682 1271 703 1292 682 b 1363 739 1333 696 1349 717 b 1404 710 1383 732 1390 717 b 1411 1007 1404 810 1404 908 b 1461 1007 1425 1007 1447 1007 b 1390 1042 1440 1028 1418 1050 b 981 1042 1249 1050 1115 1042 b 782 526 910 872 846 696 b 571 1042 713 696 642 865 b -8 1042 379 1042 182 1042 z m 1086 18 l 1086 18 b 1093 4 1072 11 1079 -4 b 1086 18 1100 4 1093 18 z m 981 60 l 981 60 b 1008 32 994 53 1001 39 b 1008 11 1008 25 1008 18 b 832 39 953 46 896 39 b 839 4 839 32 839 18 b 1072 11 917 4 994 4 b 1022 32 1058 18 1038 25 b 1015 81 1015 46 1015 67 b 981 60 1001 74 994 67 z m 860 32 l 860 32 b 896 32 875 32 889 32 b 853 11 882 18 868 18 b 860 32 853 18 853 25 z m 1397 442 l 1397 442 b 1404 428 1390 428 1397 428 b 1397 442 1411 442 1404 442 z m 1349 661 l 1349 661 b 1390 696 1369 668 1383 682 b 1349 661 1376 689 1363 675 z m 1482 1035 l 1482 1035 b 1539 1000 1503 1021 1518 1014 b 1525 1042 1532 1014 1532 1028 b 1482 1035 1511 1042 1496 1035 z m 1475 1007 l 1475 1007 b 1454 1050 1468 1021 1461 1035 b 1475 1007 1454 1028 1461 1014 z m 118 1014 l 118 1014 b 146 1021 125 1014 132 1014 b 132 993 139 1014 139 1000 b 118 1000 132 993 125 993 b 118 1014 118 1000 118 1007 z m 1072 1021 l 1072 1021 b 1086 1014 1079 1028 1093 1021 b 1072 1021 1086 1000 1065 1014 z m 1115 993 l 1115 993 b 1136 986 1122 993 1129 986 b 1115 943 1129 972 1122 957 b 1115 993 1115 965 1115 979 z m 1086 965 l 1086 965 b 1100 957 1093 972 1108 965 b 1086 965 1093 943 1079 957 z m 1356 943 l 1356 943 b 1390 915 1363 936 1376 922 b 1390 888 1390 908 1390 894 b 1349 879 1376 888 1363 879 b 1356 943 1349 901 1356 922 z m 338 879 l 338 879 b 372 844 351 872 365 858 b 338 879 358 851 344 865 z m 1051 844 l 1051 844 b 1058 831 1058 851 1065 838 b 1051 844 1051 824 1044 838 z m 1031 817 l 1031 817 b 1038 801 1038 817 1044 817 b 1031 817 1031 801 1022 801 z m 1376 767 l 1376 767 b 1390 794 1383 781 1390 788 b 1404 760 1397 788 1397 774 b 1376 767 1397 760 1390 767 z m 379 739 l 379 739 b 379 717 386 739 386 717 b 379 739 365 717 365 739 z m 464 632 l 464 632 b 479 625 472 639 486 632 b 464 632 472 611 457 625 z m 1271 533 l 1271 533 b 1285 506 1278 519 1285 513 b 1313 506 1292 506 1306 506 b 1306 463 1306 492 1306 476 b 1263 456 1292 463 1278 456 b 1271 533 1263 476 1263 506 z m 1214 519 l 1214 519 b 1235 492 1221 513 1228 506 b 1185 492 1221 492 1200 492 b 1214 519 1193 499 1207 513 z m 1319 476 l 1319 476 b 1333 463 1326 492 1340 476 b 1319 476 1326 456 1313 469 z m 1178 463 l 1178 463 b 1185 449 1185 469 1200 449 b 1178 463 1178 435 1164 456 z m 1313 463 l 1313 463 b 1326 449 1319 456 1319 456 b 1319 421 1326 435 1319 428 b 1313 463 1313 435 1313 449 z m 1157 329 l 1157 329 b 1193 343 1164 336 1178 336 b 1185 314 1185 329 1185 321 b 1207 329 1193 321 1200 321 b 1193 272 1207 307 1200 293 b 1207 251 1200 265 1200 258 b 1136 307 1171 258 1150 286 b 1164 314 1143 314 1157 314 b 1157 329 1164 321 1157 329 z m 1326 236 l 1326 236 b 1333 222 1333 236 1340 236 b 1326 236 1326 222 1319 222 z m 1256 215 l 1256 215 b 1278 215 1263 215 1271 215 b 1278 194 1278 208 1278 201 b 1256 188 1271 194 1263 194 b 1256 215 1256 194 1256 201 z m 974 124 l 974 124 b 981 110 981 124 988 124 b 974 124 974 110 967 110 z m 1100 89 l 1100 89 b 1108 74 1108 103 1122 81 b 1100 89 1100 67 1086 89 z m 1369 53 l 1369 53 b 1376 39 1376 67 1390 46 b 1369 53 1369 32 1356 53 z "},"N":{"ha":1221,"x_min":0,"x_max":0,"o":"m -15 1039 l -15 1039 l -15 1004 b 126 997 35 1004 76 1004 b 106 1025 119 1004 113 1011 b 133 1039 113 1025 119 1032 b -15 1039 83 1039 35 1039 z m 833 36 l 833 36 b 833 8 833 29 833 22 b 840 1 833 8 840 1 b 847 22 840 8 847 15 b 833 36 840 29 840 36 z m 918 50 l 918 50 b 946 36 925 43 939 36 b 946 57 946 43 946 50 b 918 50 939 57 925 50 z m 1003 71 l 1003 71 b 1010 64 989 71 1003 57 b 1003 71 1017 64 1010 78 z m 797 43 l 797 43 b 769 71 790 50 776 64 b 813 8 783 50 797 29 b 861 71 819 29 840 50 b 819 50 847 64 833 57 b 813 78 813 57 813 71 b 797 43 804 71 804 57 z m 1038 93 l 1038 93 b 1017 29 1031 71 1024 50 b 996 36 1010 29 1003 29 b 1031 1 1003 22 1017 8 b 1060 15 1038 1 1053 8 b 1031 8 1053 15 1038 15 b 1038 93 1038 36 1053 64 z m 1024 128 l 1024 128 b 1010 107 1017 121 1017 114 b 1038 93 1024 100 1031 100 l 1038 128 b 1024 128 1038 128 1024 128 z m 147 963 l 147 963 b 176 933 161 947 169 940 b 169 969 176 947 176 954 b 147 963 161 969 154 963 z m 119 976 l 119 976 b 126 940 126 969 126 954 b 154 933 133 940 147 933 b 119 976 140 947 133 963 z m 1131 997 l 1131 997 b 1122 963 1131 983 1131 976 b 1158 990 1138 969 1144 976 b 1131 997 1144 990 1138 997 z m 1131 1032 l 1131 1032 b 1229 1004 1151 1004 1193 1011 l 1222 1039 b 1131 1032 1186 1039 1158 1039 z m 813 1039 l 813 1039 b 813 1004 813 1025 813 1018 b 875 1039 840 1004 861 1011 b 813 1039 854 1039 833 1039 z m 282 1039 l 282 1039 b 261 983 268 1018 261 1004 b 232 919 268 954 254 933 b 239 1011 246 947 246 976 b 268 1039 246 1018 254 1032 b 232 1039 254 1039 246 1039 b 239 1011 232 1032 239 1018 b 161 906 218 969 197 933 b 197 919 169 913 183 913 b 176 892 190 906 183 899 b 154 792 147 863 154 821 b 147 290 147 622 147 460 b 83 78 147 213 133 135 b -15 1 56 43 -15 57 b 388 8 119 -7 254 1 b 310 36 374 36 339 50 b 225 149 282 78 246 107 b 197 318 204 206 197 263 b 197 849 190 496 190 672 b 458 489 282 736 367 608 b 529 439 472 460 515 467 b 586 460 543 460 564 460 b 586 489 586 474 586 482 b 614 474 593 482 600 482 b 586 418 600 453 593 439 b 550 446 572 432 564 439 b 557 418 550 439 557 432 b 508 439 536 425 522 432 b 713 142 564 333 642 242 b 804 121 728 114 769 107 b 819 149 813 128 813 142 b 897 149 847 164 875 156 b 882 171 897 156 890 164 b 911 178 890 171 904 178 b 911 142 911 164 911 149 b 939 156 925 142 932 149 b 911 199 932 171 925 185 b 982 171 939 199 975 199 b 946 156 968 164 960 164 b 1010 171 968 149 989 164 b 1010 156 1010 164 1010 156 b 1053 164 1024 156 1038 164 b 1060 263 1060 199 1060 226 b 1060 651 1060 389 1060 524 b 1115 976 1053 764 1074 876 b 1081 969 1101 976 1094 976 b 1101 1025 1094 990 1094 1004 b 1081 1018 1094 1025 1088 1025 b 1094 1039 1088 1025 1094 1032 b 918 1039 1038 1025 975 1039 b 918 1018 918 1032 918 1025 b 868 1011 897 1032 882 1025 b 890 1011 875 1011 882 1011 b 968 947 911 983 939 969 b 1038 990 989 963 1010 976 b 1010 963 1031 983 1017 969 b 1017 940 1010 954 1017 947 b 989 919 1010 933 996 926 b 1017 453 1038 764 1017 608 b 826 707 953 538 890 622 b 804 686 819 700 813 693 b 790 750 813 707 804 729 b 607 1011 735 842 671 926 b 572 1039 600 1025 593 1039 b 282 1039 472 1047 374 1039 z m 550 1011 l 550 1011 b 550 940 564 990 572 963 b 550 1011 529 963 529 990 z m 586 906 l 586 906 b 593 1011 579 940 572 976 b 593 969 593 997 593 983 b 586 906 607 947 614 919 z m 197 919 l 197 919 b 254 863 225 906 246 885 b 225 892 246 869 239 876 b 218 863 225 885 225 876 b 197 919 211 885 204 906 z m 246 906 l 246 906 b 282 906 261 906 268 906 b 275 885 275 899 275 892 b 254 885 268 885 261 885 b 246 906 254 892 246 899 z m 303 906 l 303 906 b 317 899 310 913 324 906 b 303 906 310 885 296 899 z m 593 899 l 593 899 b 600 892 600 906 607 892 b 593 899 593 885 579 899 z m 394 885 l 394 885 b 410 869 401 892 417 876 b 394 885 401 863 388 869 z m 367 869 l 367 869 b 388 863 374 869 381 869 b 388 842 388 856 388 849 b 374 842 388 842 374 842 b 367 869 374 856 367 863 z m 586 849 l 586 849 b 607 849 593 849 600 849 b 557 799 607 821 593 799 b 593 764 572 785 579 778 b 593 785 593 771 593 778 b 650 743 607 771 628 750 b 657 722 650 736 650 729 b 635 743 650 729 642 736 b 607 686 621 729 607 714 b 564 693 593 693 579 693 b 579 722 572 700 579 707 b 572 714 579 722 572 714 b 508 807 586 764 522 764 b 529 807 515 807 522 807 b 529 842 529 814 529 828 b 543 814 536 835 536 828 b 557 814 543 814 557 814 b 586 849 564 828 579 835 z m 296 785 l 296 785 b 360 785 317 799 346 807 b 353 750 360 771 353 764 b 346 778 353 757 346 771 b 339 750 339 771 339 757 b 296 785 324 764 310 771 z m 678 764 l 678 764 b 685 743 692 771 699 750 b 678 764 671 743 671 764 z m 742 693 l 742 693 b 790 714 756 707 776 714 b 790 686 790 707 790 693 b 742 693 769 693 756 693 z m 536 707 l 536 707 b 550 693 543 714 557 700 b 536 707 543 679 522 693 z m 819 622 l 819 622 b 847 601 826 615 840 608 b 840 588 847 601 847 594 b 819 601 833 594 826 594 b 804 581 819 594 813 588 b 819 622 804 594 813 608 z m 614 558 l 614 558 b 642 588 621 567 635 574 b 642 551 642 574 642 567 b 614 558 635 551 621 558 z m 826 581 l 826 581 b 826 558 840 574 833 558 b 826 581 813 567 819 581 z m 699 574 l 699 574 b 699 551 706 581 713 558 b 699 574 692 551 685 574 z m 685 538 l 685 538 b 728 567 699 544 713 558 b 719 531 719 551 719 538 b 685 538 706 531 699 538 z m 882 524 l 882 524 b 911 524 897 524 904 524 b 911 503 911 517 911 510 b 932 524 918 510 925 517 b 946 467 946 510 946 489 b 882 524 918 474 897 503 z m 536 503 l 536 503 b 557 482 543 510 564 496 b 536 503 543 474 529 489 z m 861 411 l 861 411 b 875 396 868 418 882 404 b 861 411 868 389 854 404 z m 797 389 l 797 389 b 813 375 813 389 819 375 b 797 389 804 368 790 382 z m 882 290 l 882 290 b 897 276 890 297 904 283 b 882 290 890 269 875 283 z m 749 142 l 749 142 b 756 128 756 142 763 142 b 749 142 749 128 742 128 z m 204 1039 l 204 1039 b 218 1025 197 1032 211 1018 b 204 1039 225 1039 211 1047 z "},"O":{"ha":1157,"x_min":0,"x_max":0,"o":"m 200 965 l 200 965 b 72 789 136 922 79 867 b 108 858 86 810 93 838 b 108 851 108 858 108 851 b 129 767 115 824 150 803 b 72 725 115 753 93 739 b 86 760 72 739 79 753 b 22 718 65 753 44 732 b 22 760 22 732 22 753 b 22 647 15 725 15 689 b 8 647 15 647 8 647 b 22 626 15 640 22 633 b -12 604 15 618 1 611 b 22 604 1 604 8 604 b 22 556 22 590 22 576 b -6 590 15 569 1 576 b -26 563 -12 583 -19 569 b 1 549 -12 556 -6 556 b -6 343 -47 492 -12 407 b 15 343 1 343 8 343 b 15 286 8 322 8 300 b 356 -10 72 138 207 32 b 326 46 349 4 333 25 b 363 25 340 39 349 32 b 349 96 356 53 356 75 b 411 32 369 75 390 53 b 404 4 411 18 404 11 b 369 11 397 4 383 11 b 433 -32 390 -10 411 -25 b 461 60 440 -3 440 32 b 475 96 461 75 475 82 b 475 943 475 378 468 661 b 610 1000 482 1000 560 1036 b 644 901 638 979 644 936 b 644 89 644 633 638 364 b 715 32 667 75 694 53 b 701 60 708 39 701 53 b 786 96 729 75 758 82 b 786 68 786 89 786 75 b 843 89 807 75 821 82 b 850 68 843 82 843 75 b 850 96 850 75 850 89 b 871 68 857 89 864 75 b 864 25 871 53 864 39 b 1019 160 921 60 976 103 b 1076 308 1054 201 1097 251 b 1125 442 1118 336 1125 393 b 1118 661 1132 513 1139 590 b 1076 689 1111 682 1090 682 b 1111 689 1090 689 1097 689 b 1097 746 1104 711 1097 725 b 1069 739 1083 746 1076 739 b 1061 703 1069 725 1061 718 b 1026 718 1047 711 1033 711 b 1076 774 1047 732 1061 753 b 999 894 1054 817 1033 858 b 807 1014 942 943 878 993 b 793 986 800 1007 793 993 b 793 1029 793 1000 793 1014 b 567 1064 722 1050 644 1064 b 200 965 440 1064 306 1036 z m 688 11 l 688 11 b 736 -25 701 -10 701 -39 b 688 11 722 -10 708 4 z m 581 4 l 581 4 b 638 -32 574 -39 617 -39 b 610 -25 631 -32 617 -25 b 624 4 617 -10 617 -3 z m 363 11 l 363 11 b 363 -18 363 4 363 -10 b 390 -18 369 -18 376 -18 b 363 11 376 -10 369 4 z m 433 -10 l 433 -10 b 560 -32 461 -53 518 -32 b 539 -10 553 -25 546 -18 b 567 -3 546 -3 560 -3 b 496 18 546 4 518 18 b 433 -10 475 11 454 -3 z m 489 4 l 489 4 b 503 4 489 4 503 4 b 496 -32 503 -10 496 -18 b 482 -32 496 -32 482 -32 b 489 4 482 -18 482 -10 z m 807 53 l 807 53 b 800 32 807 46 800 39 b 821 4 807 25 814 18 b 843 60 829 25 836 39 b 807 53 829 53 821 53 z m 468 60 l 468 60 b 475 46 461 46 468 46 b 468 60 482 60 475 60 z m 772 979 l 772 979 b 786 965 779 986 800 972 b 772 979 779 951 765 965 z m 857 936 l 857 936 b 850 908 871 943 864 908 b 857 936 850 922 850 929 z m 907 936 l 907 936 b 921 894 914 922 921 908 b 892 908 907 894 899 901 b 907 936 892 915 899 922 z m 807 922 l 807 922 b 814 901 821 929 829 901 b 807 922 800 894 793 922 z m 779 908 l 779 908 b 821 844 800 894 821 874 b 779 908 793 858 779 881 z m 878 908 l 878 908 b 907 867 885 894 899 881 b 857 844 892 858 878 851 b 878 908 864 867 871 888 z m 935 894 l 935 894 b 956 894 935 894 949 894 b 949 881 956 888 949 881 b 935 874 942 874 935 874 b 935 894 935 881 935 888 z m 171 888 l 171 888 b 200 867 178 881 193 874 b 150 858 185 867 171 858 b 171 888 157 867 164 881 z m 758 824 l 758 824 b 772 838 765 831 772 831 b 800 810 779 831 793 817 b 758 824 786 817 772 817 z m 1019 796 l 1019 796 b 1019 774 1026 796 1026 774 b 1019 796 1006 774 1006 796 z m 136 760 l 136 760 b 150 746 143 767 157 760 b 136 760 143 739 129 746 z m 928 626 l 928 626 b 976 696 949 647 969 668 b 992 604 992 668 1019 633 b 983 618 992 611 983 618 b 928 626 969 618 949 626 z m 1047 647 l 1047 647 b 1069 661 1054 654 1061 654 b 1069 633 1069 654 1069 640 b 1047 647 1061 633 1054 640 z m 122 618 l 122 618 b 157 583 136 611 150 597 b 122 618 143 590 129 604 z m 38 604 l 38 604 b 44 590 44 611 58 590 b 38 604 38 583 31 597 z m 1013 611 l 1013 611 b 1019 563 1026 597 1033 583 b 1013 611 1019 576 1013 590 z m 983 590 l 983 590 b 992 576 992 597 1006 583 b 983 590 983 569 969 583 z m 935 563 l 935 563 b 976 569 949 563 963 569 b 949 533 969 563 963 549 b 935 563 949 540 942 556 z m 992 533 l 992 533 b 1006 526 999 549 1013 540 b 992 533 1006 513 983 526 z m 1097 519 l 1097 519 b 1125 485 1111 513 1118 499 b 1083 478 1111 485 1097 478 b 1097 519 1090 492 1090 506 z m 171 499 l 171 499 b 185 435 185 478 185 456 b 150 449 171 435 157 442 b 150 471 150 456 150 463 b 171 471 157 471 164 471 b 171 499 171 485 171 492 z m 688 492 l 688 492 b 701 485 694 499 708 492 b 688 492 694 478 681 485 z m 122 435 l 122 435 b 143 428 129 442 143 435 b 122 435 143 414 115 421 z m 157 428 l 157 428 b 178 414 164 435 185 428 b 157 428 171 407 157 414 z m 15 393 l 15 393 b 44 364 22 385 38 378 b 22 364 38 364 31 364 b 15 393 15 371 15 385 z m 969 364 l 969 364 b 976 343 983 371 992 343 b 969 364 969 343 963 357 z m 235 53 l 235 53 b 263 110 235 75 249 96 b 271 75 263 103 271 89 b 235 53 256 68 242 60 z "},"P":{"ha":1194,"x_min":0,"x_max":0,"o":"m 3 1039 l 3 1039 b -6 1011 -6 1032 -6 1018 b 122 1011 38 1011 81 1011 b 122 43 122 686 115 368 b 3 43 81 43 38 43 l 3 8 b 228 15 72 1 150 22 b 207 50 221 22 214 36 b 250 1 221 36 235 22 b 264 36 257 15 250 29 b 369 57 299 50 335 78 b 369 114 369 78 369 93 b 433 71 383 93 413 86 b 433 8 447 50 433 29 b 539 8 468 8 504 8 b 511 43 532 22 518 29 b 553 43 525 43 539 43 b 539 15 546 36 546 29 b 575 57 553 29 575 36 b 575 425 575 178 568 304 b 822 439 653 432 738 418 b 786 482 815 453 801 467 b 779 453 786 474 786 460 b 765 517 765 467 765 496 b 822 503 786 510 808 510 b 829 460 822 489 829 474 b 900 489 850 474 871 503 b 985 453 935 482 957 467 b 964 524 978 474 971 496 b 999 510 978 517 992 517 b 999 531 999 517 999 524 b 1042 558 1013 538 1026 544 b 1049 558 1042 558 1049 558 b 1042 581 1049 567 1042 574 b 1063 588 1049 581 1056 588 b 1076 503 1069 558 1069 531 b 1168 629 1126 524 1147 581 b 1182 828 1197 693 1189 764 b 1140 799 1168 821 1154 814 b 1175 771 1154 792 1161 785 b 1147 750 1168 764 1154 757 b 1119 842 1126 771 1119 807 b 1042 821 1090 835 1069 828 b 1119 771 1063 792 1090 778 b 1069 778 1104 771 1083 771 b 1019 672 1056 736 1056 693 b 1006 700 1013 679 1013 686 b 1049 736 1019 707 1033 722 b 1006 856 1033 778 1033 821 b 1026 842 1013 849 1019 849 b 1026 906 1033 863 1033 885 b 1097 954 1049 919 1076 940 b 1042 906 1104 913 1076 906 b 1119 856 1069 892 1104 892 b 1154 919 1133 876 1140 899 b 1104 892 1133 913 1119 899 b 1090 997 1104 926 1111 969 b 1049 990 1076 997 1063 997 b 1069 954 1056 983 1063 969 b 1006 963 1049 963 1026 954 b 964 1039 985 983 978 1011 b 893 1025 942 1032 914 1025 b 914 1047 900 1032 907 1039 b 186 1047 674 1047 426 1047 b 3 1039 122 1047 58 1032 z m 278 36 l 278 36 b 321 8 285 15 292 -7 b 278 36 306 15 292 29 z m 575 43 l 575 43 b 708 15 610 1 660 15 b 717 43 708 22 708 36 b 575 43 667 43 617 43 z m 399 36 l 399 36 b 406 22 383 36 390 15 b 399 36 419 29 406 43 z m 321 29 l 321 29 b 369 22 335 29 356 22 b 349 57 363 29 356 43 b 321 29 335 43 328 36 z m 836 432 l 836 432 b 942 446 871 432 907 439 b 836 432 907 467 871 453 z m 992 594 l 992 594 b 999 581 985 588 992 574 b 992 594 1013 581 999 601 z m 1161 899 l 1161 899 b 1175 842 1161 876 1161 856 b 1161 899 1168 863 1168 876 z m 1126 940 l 1126 940 b 1133 926 1111 940 1126 919 b 1126 940 1147 933 1133 954 z m 999 1039 l 999 1039 b 999 997 999 1025 999 1011 b 1033 1004 1013 997 1019 1004 b 999 1039 1019 1018 1013 1025 z m 285 990 l 285 990 b 328 1032 271 1032 299 1032 b 285 990 313 1018 299 1004 z m 575 1011 l 575 1011 b 701 997 617 1004 667 1025 b 738 778 751 933 731 849 b 724 510 724 693 772 594 b 575 460 694 453 624 467 b 575 1011 575 644 575 828 z m 836 990 l 836 990 b 921 1004 864 997 893 1011 b 942 969 935 1004 935 983 b 871 969 921 963 893 963 b 871 947 871 963 871 954 b 836 990 857 963 843 976 z m 978 947 l 978 947 b 1026 919 992 933 1006 926 b 985 919 1013 919 999 919 b 978 947 978 926 978 933 z m 136 885 l 136 885 b 136 828 143 863 150 849 b 136 885 136 849 136 863 z m 921 863 l 921 863 b 942 863 928 863 935 863 b 942 842 942 856 942 849 b 921 842 935 842 928 842 b 921 863 921 849 921 856 z m 786 714 l 786 714 b 808 722 786 722 801 722 b 801 686 808 714 801 700 b 786 714 793 700 786 707 z m 1076 651 l 1076 651 b 1097 707 1083 672 1083 686 b 1076 651 1090 686 1090 665 z m 504 686 l 504 686 b 497 679 525 693 504 658 b 504 686 497 679 504 686 z m 900 679 l 900 679 b 935 672 914 672 921 672 b 907 615 935 651 921 629 b 900 679 900 636 900 658 z m 942 658 l 942 658 b 992 644 957 651 971 651 b 1013 588 985 622 999 601 b 1019 567 1013 581 1019 574 b 985 558 1006 567 999 567 b 978 581 985 567 978 574 b 907 601 957 588 935 594 b 949 636 921 608 935 622 b 942 658 949 644 942 651 z m 765 629 l 765 629 b 765 615 772 636 779 615 b 765 629 758 608 758 629 z m 546 622 l 546 622 b 553 608 553 629 561 615 b 546 622 546 601 539 622 z m 879 615 l 879 615 b 893 629 886 622 893 622 b 907 581 900 615 907 601 b 879 615 900 594 893 601 z m 779 608 l 779 608 b 779 588 786 608 786 588 b 779 608 765 588 765 608 z m 957 581 l 957 581 b 971 558 971 588 978 567 b 957 581 957 551 949 574 z m 1083 544 l 1083 544 b 1090 538 1090 551 1097 538 b 1083 544 1083 531 1076 544 z m 942 503 l 942 503 b 949 489 949 510 964 489 b 942 503 942 482 935 496 z m 546 354 l 546 354 b 568 354 553 354 561 354 b 553 333 561 347 561 340 b 532 333 546 333 539 333 b 546 354 539 340 539 347 z m 376 276 l 376 276 b 413 276 390 276 399 276 b 399 249 406 269 406 256 b 376 276 390 256 383 263 z m 363 242 l 363 242 b 369 226 369 249 383 226 b 363 242 363 219 356 233 z m 497 86 l 497 86 b 504 78 504 93 511 78 b 497 86 497 71 490 86 z m 504 64 l 504 64 b 504 43 511 64 511 43 b 504 64 490 43 490 64 z "},"Q":{"ha":1157,"x_min":0,"x_max":0,"o":"m 419 1054 l 419 1054 b 207 947 342 1033 264 1004 b 236 899 214 933 229 919 b 186 940 214 913 200 926 b 44 750 122 892 81 821 b 94 707 67 736 81 722 b 60 729 81 715 67 722 l 60 693 b 31 715 44 700 38 707 b 10 404 3 615 -4 510 b 67 256 17 347 44 304 b 74 269 67 263 74 269 b 115 249 88 263 94 263 b 81 249 101 249 94 249 b 136 235 101 242 122 235 b 122 164 129 213 122 192 b 292 22 158 100 229 57 b 328 72 307 36 321 57 b 335 15 342 57 349 36 b 469 -28 376 -14 426 -21 b 575 -282 476 -119 497 -225 b 703 -339 617 -310 653 -346 b 738 -360 717 -339 731 -353 b 738 -353 738 -360 738 -353 b 772 -346 751 -353 765 -346 b 850 -374 801 -360 829 -367 b 836 -346 850 -367 843 -360 b 872 -360 850 -353 857 -360 b 843 -324 865 -346 850 -339 b 865 -310 850 -317 857 -317 b 872 -339 865 -317 872 -324 b 893 -317 879 -332 886 -324 b 879 -381 893 -339 886 -360 b 900 -360 886 -374 893 -367 b 907 -367 900 -367 900 -367 b 943 -324 921 -353 928 -339 b 928 -374 943 -339 935 -360 b 1021 -367 964 -374 992 -367 b 1028 -317 1021 -353 1021 -339 b 829 -282 964 -310 886 -324 b 731 -21 765 -218 731 -119 b 857 22 772 -14 822 -6 b 978 86 886 57 935 57 b 950 121 964 100 957 107 b 985 93 964 114 971 100 b 1133 319 1049 157 1106 235 b 1076 313 1113 319 1090 319 b 1063 347 1069 326 1069 333 b 1147 354 1090 347 1119 347 b 1119 375 1140 361 1126 368 b 1154 411 1133 382 1147 397 b 1090 503 1119 432 1090 460 b 1063 453 1083 482 1069 467 b 943 418 1021 453 978 453 b 957 347 950 397 957 375 b 950 375 957 361 950 368 b 900 404 943 397 914 397 b 900 411 900 404 900 411 b 921 418 907 411 914 418 b 865 496 907 446 872 460 b 893 524 872 510 879 517 b 893 544 893 531 893 538 b 950 503 914 531 935 517 b 985 538 964 517 971 531 b 985 510 985 531 985 517 b 1028 524 999 510 1013 517 b 1083 503 1049 553 1069 517 b 1090 524 1083 510 1083 517 b 1161 531 1113 531 1133 531 b 1090 814 1161 629 1140 729 b 738 1047 1013 940 886 1033 b 419 1054 632 1082 525 1061 z m 964 482 l 964 482 b 978 467 957 475 964 453 b 964 482 985 467 971 489 z m 525 997 l 525 997 b 653 1033 547 1054 610 997 b 667 899 653 983 674 940 b 667 72 667 622 681 347 b 504 64 660 -6 511 -14 b 504 842 497 326 504 581 b 525 997 504 892 497 947 z m 1006 885 l 1006 885 b 1013 869 1021 892 1028 869 b 1006 885 992 863 985 885 z m 151 863 l 151 863 b 151 849 158 869 158 849 b 151 863 136 849 136 863 z m 935 835 l 935 835 b 1021 849 964 849 992 849 b 1049 807 1042 849 1042 821 b 985 785 1028 807 1006 793 b 1006 778 992 785 999 778 b 964 764 992 771 978 771 b 971 785 964 771 971 778 b 950 793 964 785 957 785 b 935 835 950 807 943 821 z m 907 757 l 907 757 b 943 750 914 750 928 750 b 907 729 928 743 921 736 b 900 743 907 736 900 736 b 907 757 900 743 907 750 z m 865 722 l 865 722 b 872 707 872 729 879 715 b 865 722 857 700 850 722 z m 136 715 l 136 715 b 81 615 136 672 101 644 b 88 693 88 638 88 665 b 122 679 101 686 115 686 l 136 715 z m 144 622 l 144 622 b 186 672 158 644 172 658 b 144 622 179 651 172 622 z m 207 665 l 207 665 b 214 658 214 672 222 658 b 207 665 207 651 200 665 z m 51 665 l 51 665 b 74 594 67 644 67 615 b 51 665 51 615 51 638 z m 94 608 l 94 608 b 88 601 115 615 94 581 b 94 608 88 601 94 608 z m 122 601 l 122 601 b 165 581 136 594 151 588 b 129 574 151 574 144 574 b 122 601 129 581 129 594 z m 179 588 l 179 588 b 193 574 186 594 200 581 b 179 588 186 567 172 581 z m 843 531 l 843 531 b 872 544 850 538 857 538 b 865 503 865 531 865 517 b 843 510 857 503 850 510 b 843 531 843 517 843 524 z m 88 496 l 88 496 b 101 482 94 503 108 489 b 88 496 94 475 81 489 z m 51 467 l 51 467 b 81 475 60 467 67 475 b 88 439 81 460 88 446 b 51 467 74 446 60 453 z m 108 411 l 108 411 b 151 475 115 439 136 453 b 144 425 151 460 151 446 b 179 432 158 432 165 432 b 129 389 165 418 151 404 b 186 389 151 389 165 389 b 108 375 165 382 136 361 b 74 418 94 389 88 404 b 108 411 88 418 94 411 z m 264 467 l 264 467 b 300 453 278 467 285 460 b 271 446 292 453 285 446 b 264 467 271 453 271 460 z m 1083 453 l 1083 453 b 1090 439 1090 460 1106 446 b 1083 453 1076 432 1069 453 z m 688 425 l 688 425 b 717 411 694 418 710 411 b 688 404 710 404 694 404 b 688 425 688 411 688 418 z m 992 389 l 992 389 b 1006 382 992 389 1013 389 b 992 389 1006 368 978 375 z m 67 375 l 67 375 b 74 354 81 382 88 354 b 67 375 67 354 60 368 z m 81 375 l 81 375 b 129 361 94 368 115 368 b 115 347 122 354 122 347 b 81 375 101 354 94 361 z m 781 368 l 781 368 b 822 361 788 361 815 361 b 801 361 815 361 808 361 b 808 333 801 354 808 340 b 781 368 801 347 788 354 z m 943 304 l 943 304 b 1013 242 971 290 1006 276 b 950 283 992 263 971 269 b 943 304 950 290 950 297 z m 1069 297 l 1069 297 b 1090 304 1076 297 1083 304 b 1097 263 1090 290 1090 276 b 1069 276 1090 269 1076 276 b 1069 297 1069 283 1069 290 z m 865 283 l 865 283 b 850 269 879 276 857 256 b 865 283 843 276 857 283 z m 843 256 l 843 256 b 872 256 850 256 857 256 b 865 242 872 249 865 242 b 850 235 865 235 850 235 b 843 256 843 242 843 249 z m 879 256 l 879 256 b 914 206 893 242 907 226 b 850 178 893 199 872 192 b 879 256 872 199 879 226 z m 850 219 l 850 219 b 850 199 865 226 865 199 b 850 219 836 206 843 219 z m 136 206 l 136 206 b 144 192 144 213 158 192 b 136 206 136 178 122 199 z m 321 206 l 321 206 b 307 192 335 199 307 185 b 321 206 300 199 314 206 z m 999 185 l 999 185 b 999 164 1013 185 1013 164 b 999 185 985 164 992 185 z m 710 164 l 710 164 b 744 178 717 164 731 171 b 724 149 738 171 731 157 b 710 164 717 157 710 157 z m 886 171 l 886 171 b 921 128 900 157 907 142 b 886 171 907 142 893 157 z m 300 121 l 300 121 b 342 149 314 135 321 157 b 300 121 349 128 314 121 z m 349 100 l 349 100 b 369 64 356 93 363 79 b 349 64 363 64 356 64 b 349 100 349 79 349 93 z m 900 107 l 900 107 b 928 64 907 93 921 79 b 900 107 914 79 900 86 z m 426 72 l 426 72 b 469 72 440 72 454 72 b 490 29 476 57 483 43 b 399 36 463 29 426 15 b 463 36 419 36 440 36 b 426 72 447 50 433 57 z "},"R":{"ha":1251,"x_min":0,"x_max":0,"o":"m 1 1038 l 1 1038 l 1 1001 b 122 1001 38 1001 79 1001 b 122 486 115 832 129 656 b 164 500 136 493 150 500 b 157 472 164 493 164 486 b 185 486 171 479 178 479 b 164 436 178 472 171 457 b 136 493 143 443 129 464 b 122 450 129 479 122 464 b 122 132 115 344 122 239 b 171 111 136 125 157 118 b 171 83 171 104 171 90 b 192 83 178 83 185 83 b 214 6 185 54 185 26 b 510 6 313 -1 411 6 b 461 111 475 33 468 76 b 482 111 468 111 475 111 b 482 97 482 104 482 97 b 518 104 496 97 503 104 b 539 47 525 90 539 68 b 518 6 546 26 532 19 b 681 6 574 6 624 6 b 672 40 681 19 672 26 b 574 40 638 40 610 40 b 574 528 574 203 574 365 b 729 493 624 528 694 549 b 758 154 743 379 729 267 b 921 -8 772 76 843 13 b 1111 -8 983 -24 1047 -24 b 1267 175 1196 6 1260 90 b 1231 182 1253 175 1246 182 b 1175 125 1217 161 1203 132 b 1161 429 1168 224 1189 331 b 1013 549 1139 493 1068 521 b 1083 585 1033 564 1061 571 b 1146 663 1111 606 1125 635 b 1076 642 1118 656 1097 649 b 1033 726 1054 669 1047 697 b 1061 789 1026 754 1033 789 b 1168 697 1111 782 1139 733 b 1182 797 1175 733 1175 761 b 1161 782 1175 789 1168 789 b 1146 811 1153 797 1146 804 b 1182 839 1153 818 1168 832 b 1111 981 1168 889 1146 938 b 878 1038 1047 1029 956 1044 b 1 1038 581 1038 292 1038 z m 171 19 l 171 19 b 178 6 164 6 171 6 b 171 19 185 19 178 19 z m 115 -1 l 115 -1 b 143 26 129 13 136 19 b 115 -1 122 33 115 19 z m 8 33 l 8 33 b 1 6 1 26 1 13 b 58 26 15 13 38 19 b 51 6 51 19 51 13 b 100 6 65 6 86 6 b 107 33 107 13 107 26 b 8 33 79 6 38 33 z m 143 68 l 143 68 b 136 47 129 68 122 54 b 143 68 150 40 157 61 z m 1083 761 l 1083 761 b 1076 740 1068 761 1061 740 b 1083 761 1083 740 1090 754 z m 574 1001 l 574 1001 b 722 974 624 994 681 1015 b 736 882 736 944 736 910 b 729 619 736 797 750 704 b 574 564 701 564 624 571 b 574 1001 574 713 574 853 z m 1054 981 l 1054 981 b 1090 974 1068 981 1083 981 b 1061 944 1083 967 1076 960 b 1054 981 1061 960 1061 974 z m 390 960 l 390 960 b 411 967 397 960 404 960 b 432 944 418 960 425 953 b 390 938 418 944 404 938 b 390 960 390 944 390 953 z m 1083 853 l 1083 853 b 1090 839 1090 853 1097 853 b 1083 853 1083 839 1076 839 z m 200 811 l 200 811 b 249 761 228 804 249 789 b 200 811 228 775 214 789 z m 475 754 l 475 754 b 489 754 482 754 489 754 b 510 726 496 747 503 733 b 482 726 496 726 489 726 b 475 754 475 733 475 740 z m 976 606 l 976 606 b 1026 592 990 606 1013 606 b 983 571 1013 585 999 578 b 976 606 983 585 976 592 z m 242 472 l 242 472 b 242 457 249 472 249 457 b 242 472 228 457 228 472 z m 347 472 l 347 472 b 356 450 356 479 369 457 b 347 472 347 450 333 464 z m 278 472 l 278 472 b 347 429 306 464 333 457 b 306 457 333 436 319 443 b 313 422 306 443 313 436 b 278 394 313 408 292 401 b 278 472 278 422 278 450 z m 363 443 l 363 443 b 383 472 369 450 376 464 b 390 443 390 464 390 450 b 363 443 383 443 369 443 z m 228 436 l 228 436 b 263 450 242 443 249 443 b 263 408 263 436 263 422 b 228 436 249 415 235 422 z m 821 429 l 821 429 b 843 422 828 429 843 429 b 836 386 843 415 836 401 b 821 429 828 401 828 415 z m 949 415 l 949 415 b 949 394 956 415 963 401 b 949 415 935 394 935 408 z m 1076 401 l 1076 401 b 1104 365 1083 386 1097 379 b 1076 365 1097 365 1083 365 b 1076 401 1076 379 1076 386 z m 942 351 l 942 351 b 956 344 949 365 963 351 b 942 351 949 338 935 344 z m 475 351 l 475 351 b 503 351 482 351 496 351 b 503 331 503 344 503 338 b 482 338 496 331 489 331 b 475 351 482 338 482 344 z m 750 267 l 750 267 b 850 281 779 274 814 274 b 750 267 828 253 786 260 z m 425 118 l 425 118 b 454 90 432 111 447 104 b 432 33 454 68 440 47 b 404 54 425 40 411 47 b 333 19 376 54 356 33 b 299 76 319 33 306 54 b 347 54 319 68 333 61 b 363 97 356 68 363 83 b 390 111 369 104 376 104 b 390 83 390 97 390 90 b 411 104 397 90 404 97 b 425 97 418 104 425 97 b 425 118 425 104 425 111 z m 546 118 l 546 118 b 546 97 553 118 553 97 b 546 118 532 97 532 118 z m 828 111 l 828 111 b 843 104 836 118 850 111 b 828 111 843 90 821 104 z m 263 83 l 263 83 b 285 90 269 83 278 90 b 285 61 285 83 285 68 b 269 47 285 54 278 54 b 263 83 263 61 263 68 z m 807 83 l 807 83 b 864 68 828 90 850 83 b 836 76 850 68 843 68 b 836 54 836 68 836 61 b 807 83 828 68 814 76 z m 1006 26 l 1006 26 b 1019 83 1006 47 1013 68 b 1033 47 1026 76 1033 61 b 1006 26 1026 40 1019 33 z m 454 40 l 454 40 b 461 19 461 47 475 26 b 454 40 454 13 440 33 z "},"S":{"ha":875,"x_min":0,"x_max":0,"o":"m 717 988 l 717 988 b 442 1065 632 1036 540 1079 b 53 747 258 1079 60 938 b 89 733 67 740 74 733 b 46 656 67 711 46 690 b 74 640 60 649 67 649 b 82 563 74 613 67 585 b 222 407 117 500 167 450 b 322 379 251 393 286 393 b 343 338 329 365 329 344 b 554 203 414 294 499 267 b 506 40 597 146 563 61 b 96 203 350 -24 174 68 b 46 393 53 260 60 331 b 11 393 39 393 18 393 b 39 288 -4 358 18 315 b 11 238 32 274 11 260 b 11 111 11 196 11 153 b 46 68 11 90 32 82 b 11 68 32 68 25 68 b 11 -37 11 33 11 -3 b 144 68 53 -3 103 33 b 336 -24 201 26 265 -3 b 569 -10 414 -37 492 -31 b 817 132 661 13 760 54 b 881 344 865 189 872 267 b 851 338 872 338 865 338 b 844 294 851 322 844 308 b 817 301 838 301 824 301 b 803 331 810 308 810 315 b 838 315 817 322 824 315 b 824 358 831 331 831 344 b 803 365 817 365 810 365 b 881 351 831 379 858 365 b 851 493 872 400 872 450 b 794 542 831 507 794 507 b 824 528 803 535 817 535 b 640 676 774 592 703 633 b 647 649 640 669 647 663 b 618 626 640 640 632 633 b 625 683 625 649 625 663 b 385 818 547 733 463 775 b 400 782 392 803 400 796 b 343 768 385 775 364 768 b 350 747 343 761 350 754 b 286 811 329 768 307 789 b 322 832 293 818 307 825 b 279 853 307 839 293 846 b 314 846 286 853 300 846 b 314 910 307 867 300 889 b 336 860 322 896 329 881 b 343 958 336 896 329 931 b 463 1029 364 1001 414 1029 b 753 903 569 1022 682 981 b 824 711 803 846 824 782 b 865 711 838 711 851 711 b 865 1093 865 839 858 965 b 717 988 817 1058 767 1022 z m 322 825 l 322 825 b 350 811 329 818 336 811 b 385 825 364 803 371 818 b 322 825 364 825 343 825 z m 251 924 l 251 924 b 272 917 258 938 279 931 b 251 924 272 903 251 917 z m 131 910 l 131 910 b 265 839 188 903 229 867 b 215 846 251 839 236 846 b 244 825 229 839 236 832 b 131 910 188 811 160 874 z m 258 903 l 258 903 b 286 903 272 903 279 903 b 293 874 286 889 293 881 b 272 867 286 874 279 867 b 258 903 265 881 265 889 z m 151 825 l 151 825 b 174 832 160 825 167 832 b 208 761 188 811 194 789 b 151 825 181 775 160 796 z m 74 811 l 74 811 b 82 796 82 818 89 803 b 74 811 74 789 67 811 z m 244 803 l 244 803 b 258 789 251 811 265 796 b 244 803 251 782 236 796 z m 82 768 l 82 768 b 82 747 89 768 89 747 b 82 768 67 747 67 768 z m 279 754 l 279 754 b 279 733 286 761 293 740 b 279 754 265 733 265 754 z m 442 754 l 442 754 b 435 740 449 747 442 733 b 442 754 421 740 428 754 z m 329 697 l 329 697 b 392 747 343 718 371 740 b 329 697 392 711 364 683 z m 499 676 l 499 676 b 513 669 506 690 519 676 b 499 676 506 656 492 669 z m 124 663 l 124 663 b 124 640 131 663 131 640 b 124 663 110 633 110 663 z m 499 626 l 499 626 b 499 606 506 626 513 606 b 499 626 492 606 485 619 z m 526 578 l 526 578 b 569 571 540 578 554 571 b 513 514 563 542 540 521 b 526 578 519 535 526 556 z m 371 542 l 371 542 b 364 485 378 521 371 507 b 371 542 364 507 371 521 z m 476 535 l 476 535 b 485 521 485 542 492 528 b 476 535 476 514 469 528 z m 336 507 l 336 507 b 350 493 343 514 357 500 b 336 507 343 478 329 493 z m 746 493 l 746 493 b 767 507 753 500 760 500 b 781 457 774 493 781 478 b 746 493 767 471 760 478 z m 160 493 l 160 493 b 201 485 174 485 188 485 b 174 464 188 478 181 471 b 160 493 167 471 167 485 z m 817 493 l 817 493 b 817 471 824 493 831 478 b 817 493 810 464 803 485 z m 279 478 l 279 478 b 272 457 293 478 279 457 b 279 478 258 464 272 478 z m 265 443 l 265 443 b 279 436 272 450 286 443 b 265 443 272 422 258 436 z m 364 422 l 364 422 b 357 407 378 422 371 400 b 364 422 350 415 350 422 z m 831 422 l 831 422 b 851 407 844 429 858 415 b 831 422 844 400 824 415 z m 519 358 l 519 358 b 563 393 540 358 547 372 b 597 338 569 372 583 351 b 576 294 590 322 583 308 b 513 281 554 308 526 301 b 449 351 499 308 476 338 b 469 322 456 344 463 331 b 449 315 463 322 456 315 b 421 372 421 322 428 351 b 519 338 463 379 485 338 b 519 358 519 344 519 351 z m 492 386 l 492 386 b 513 379 499 386 506 379 b 506 358 513 372 506 365 b 476 358 499 358 485 358 b 492 386 476 365 485 379 z m 696 386 l 696 386 b 732 386 710 386 717 386 b 732 365 732 379 732 372 b 696 386 717 372 710 379 z m 400 331 l 400 331 b 407 386 392 351 392 372 b 400 331 407 365 407 351 z m 675 344 l 675 344 b 682 331 682 344 689 331 b 675 344 668 322 661 338 z m 767 344 l 767 344 b 781 338 774 351 788 344 b 767 344 781 322 760 338 z m 788 274 l 788 274 b 810 260 803 281 817 267 b 788 274 803 253 781 267 z "},"T":{"ha":1128,"x_min":0,"x_max":0,"o":"m 11 1036 l 11 1036 b 11 676 11 917 11 796 b 47 683 18 676 39 676 b 103 832 68 733 75 782 b 217 965 125 889 167 931 b 194 974 210 965 201 965 b 167 958 188 965 174 958 b 174 981 167 965 174 974 b 146 1022 160 994 153 1008 b 146 1001 146 1015 146 1008 b 11 1036 103 1036 54 1036 z m 760 47 l 760 47 b 768 26 760 40 768 33 b 725 4 753 19 739 13 b 924 4 796 4 860 4 b 915 40 924 19 915 26 b 760 47 867 40 810 40 z m 647 90 l 647 90 b 647 13 654 61 654 40 b 683 4 661 13 668 13 b 690 54 690 19 697 33 b 647 90 683 68 661 75 z m 704 740 l 704 740 b 704 718 690 740 690 718 b 704 740 711 718 711 740 z m 775 761 l 775 761 b 775 747 768 761 768 740 b 775 761 789 747 782 768 z m 244 1001 l 244 1001 b 231 981 231 1001 224 988 b 244 1001 244 965 258 994 z m 174 1015 l 174 1015 b 188 1001 167 1008 174 988 b 174 1015 194 1001 181 1022 z m 265 1036 l 265 1036 b 294 1015 279 1029 288 1022 b 308 1036 301 1022 301 1029 b 265 1036 294 1036 279 1036 z m 238 1036 l 238 1036 b 279 994 251 1022 258 1008 b 343 1001 301 994 322 1008 b 343 725 350 910 329 818 b 400 697 357 711 379 704 b 343 697 379 697 357 697 b 357 676 343 690 350 683 b 343 669 350 669 343 669 b 343 40 336 464 343 253 b 210 40 294 40 251 40 b 210 -3 210 26 210 4 b 633 4 350 -3 492 13 b 613 47 626 19 626 33 b 563 54 597 54 583 54 b 606 132 590 75 613 97 b 661 90 626 118 640 90 b 760 104 697 90 732 97 b 768 54 760 90 768 68 b 782 54 768 54 775 54 b 775 711 782 274 782 493 b 746 725 768 711 760 718 b 690 711 732 718 711 704 b 683 775 683 733 683 754 b 753 796 704 782 732 782 b 775 775 760 789 768 782 b 782 1001 775 853 782 924 b 915 951 824 994 874 981 b 1078 683 1015 903 1043 782 b 1114 676 1093 683 1100 676 b 1114 1036 1114 796 1114 917 b 613 1036 951 1036 782 1036 b 654 988 626 1015 640 1001 b 613 965 640 981 626 974 b 633 938 619 951 626 944 b 640 958 633 944 640 951 b 668 924 647 944 654 938 b 606 910 647 924 626 917 b 583 944 597 924 590 931 b 563 917 576 931 569 924 b 542 944 556 924 549 938 b 613 951 563 958 590 958 b 569 994 597 965 583 981 b 583 1036 576 1008 576 1022 b 563 1036 576 1036 569 1036 b 499 931 569 988 535 958 b 499 944 499 938 499 938 b 478 951 492 951 485 951 b 492 981 485 958 485 974 b 513 958 499 974 506 965 b 528 1022 519 981 528 1001 b 350 1036 478 1058 407 1029 b 357 1015 350 1029 357 1022 b 315 1036 343 1022 329 1029 b 294 1001 308 1022 301 1008 b 238 1036 279 1015 258 1029 z m 965 958 l 965 958 b 993 944 972 958 986 951 b 965 938 986 944 972 938 b 965 958 965 944 965 958 z m 535 889 l 535 889 b 549 938 528 910 528 924 b 535 889 542 924 535 910 z m 357 917 l 357 917 b 421 881 379 903 400 896 b 379 839 407 867 400 846 b 357 917 372 867 372 896 z m 464 846 l 464 846 b 492 910 457 874 471 896 b 485 853 492 889 485 867 b 464 846 478 846 471 846 z m 464 803 l 464 803 b 485 789 471 811 492 803 b 464 803 478 782 464 789 z m 590 796 l 590 796 b 606 782 597 803 613 789 b 590 796 597 775 583 789 z m 640 803 l 640 803 b 668 747 654 789 675 768 b 619 740 661 747 633 740 b 640 803 626 761 633 782 z m 606 754 l 606 754 b 613 733 619 761 626 733 b 606 754 597 725 590 747 z m 668 471 l 668 471 b 690 464 675 471 683 464 b 690 429 690 450 690 436 b 640 429 675 429 661 429 b 661 429 647 429 654 429 b 668 471 661 443 661 457 z m 450 132 l 450 132 b 478 125 464 132 471 125 b 485 104 485 118 485 111 b 442 111 471 104 457 111 b 450 132 442 118 450 125 z m 563 125 l 563 125 b 576 111 569 132 583 118 b 563 125 569 104 556 111 z m 697 125 l 697 125 b 704 111 704 125 711 125 b 697 125 697 111 690 111 z m 464 47 l 464 47 b 513 47 485 47 499 47 b 478 4 499 33 492 19 b 464 47 471 19 471 33 z m 32 1022 l 32 1022 b 110 1022 61 1022 82 1022 b 89 1001 103 1015 96 1008 b 32 1001 68 1008 47 1001 b 32 1022 32 1008 32 1015 z m 139 965 l 139 965 b 160 974 146 965 153 974 b 139 931 153 958 146 944 b 139 965 139 944 139 951 z "},"U":{"ha":1157,"x_min":0,"x_max":0,"o":"m 8 1042 l 8 1042 l 8 1006 b 128 1006 50 1013 86 1013 b 121 971 128 999 128 985 b 178 985 142 985 157 992 b 135 950 164 971 142 964 b 121 900 128 935 121 914 b 192 907 142 914 171 914 b 171 872 185 893 178 879 b 135 893 157 879 150 886 b 150 872 142 886 150 879 b 121 872 142 872 135 872 b 157 788 128 836 128 801 b 150 815 157 794 157 808 b 171 815 157 815 164 815 b 157 843 171 822 164 829 b 199 843 164 843 185 843 b 206 822 199 836 199 829 b 256 872 219 836 235 857 b 283 829 269 857 276 843 b 326 822 297 829 313 822 b 297 815 319 822 313 815 b 306 717 306 779 306 751 b 313 694 306 710 313 703 b 269 710 297 703 283 703 b 235 667 263 694 249 681 b 219 717 235 681 228 703 b 199 724 213 717 206 724 b 199 758 199 731 199 751 b 235 772 213 765 219 765 b 206 779 228 772 213 779 b 178 724 192 765 185 744 b 150 765 171 738 164 751 b 171 710 157 744 164 731 b 128 688 164 688 142 694 b 121 376 128 582 128 483 b 178 392 142 385 157 385 b 178 356 178 385 178 369 b 199 349 185 356 192 349 b 219 369 206 356 213 363 b 219 356 219 363 219 356 b 249 342 235 349 242 342 b 228 392 242 356 235 369 b 276 406 242 399 256 406 b 249 392 269 406 256 399 b 256 363 249 385 249 369 b 263 385 256 369 256 376 b 306 392 276 385 290 392 b 306 433 306 406 306 419 b 347 342 326 413 347 376 b 368 307 354 328 361 321 b 347 292 361 299 354 299 b 333 328 340 307 340 314 b 263 285 313 314 283 299 b 235 328 256 299 256 321 b 171 342 213 335 192 335 b 171 278 171 321 185 299 b 142 264 164 271 150 271 b 135 292 142 278 135 285 b 150 299 142 292 142 299 b 157 271 150 292 150 285 b 164 307 157 285 157 292 b 128 321 150 314 135 314 b 171 115 128 250 128 172 b 418 -11 235 38 326 10 b 425 17 418 -4 425 10 b 482 -26 432 -4 453 -33 b 771 10 581 -26 679 -40 b 764 31 764 17 764 24 b 743 17 757 24 750 24 b 743 38 743 24 743 31 b 615 38 700 31 658 38 b 658 17 631 31 644 24 b 581 -4 638 3 608 -11 b 594 51 588 17 588 31 b 608 44 601 44 601 44 b 581 129 594 74 574 101 b 574 872 574 376 581 625 b 574 1006 581 914 560 964 b 686 1006 608 1013 651 1013 l 686 1042 b 489 1042 615 1035 553 1028 b 489 1006 489 1028 489 1013 b 460 992 482 999 475 999 b 482 1042 468 1006 475 1028 b 128 1042 361 1042 249 1042 b 128 1019 128 1035 128 1028 b 79 1042 114 1028 100 1035 b 79 1028 79 1035 79 1028 b 8 1042 57 1035 29 1042 z m 475 307 l 475 307 b 482 299 468 307 475 292 b 475 307 489 299 482 314 z m 128 369 l 128 369 b 142 356 121 363 135 349 b 128 369 150 363 135 376 z m 142 724 l 142 724 b 150 717 135 724 142 710 b 142 724 157 717 150 731 z m 757 1042 l 757 1042 l 764 1013 b 899 950 814 999 871 999 b 956 469 976 801 949 625 b 926 165 949 369 969 257 b 764 44 899 101 828 74 b 778 -4 771 31 778 10 b 949 115 849 17 913 51 b 990 413 1004 200 983 314 b 969 751 983 525 997 639 b 990 738 976 744 983 744 b 1047 950 1004 808 997 893 b 1160 1042 1075 992 1139 992 b 1075 1028 1132 1042 1103 1035 b 1075 1042 1075 1028 1075 1035 b 757 1042 969 1042 863 1042 z m 1047 1019 l 1047 1019 b 1082 992 1061 1013 1068 1006 b 1047 999 1068 992 1061 992 b 1047 1019 1047 1006 1047 1013 z m 983 971 l 983 971 b 1018 921 997 957 1004 943 b 976 907 1004 914 990 914 b 983 971 976 928 976 950 z m 940 964 l 940 964 b 956 950 949 971 963 957 b 940 964 949 943 933 957 z m 319 999 l 319 999 b 397 971 347 999 375 992 b 390 957 397 964 397 957 b 368 950 382 950 375 950 b 354 978 361 957 354 964 b 319 999 340 978 326 985 z m 468 971 l 468 971 b 482 957 475 985 489 964 b 468 971 468 943 460 964 z m 269 964 l 269 964 b 276 950 276 964 283 964 b 269 964 269 950 263 950 z m 340 957 l 340 957 b 333 935 354 957 340 935 b 340 957 319 943 333 957 z m 382 950 l 382 950 b 397 907 390 935 397 921 b 368 865 397 886 382 872 b 319 879 347 865 333 872 b 347 935 326 893 340 914 b 361 914 347 928 354 921 b 375 921 368 914 368 921 b 382 950 375 928 375 935 z m 263 914 l 263 914 b 276 900 269 921 283 914 b 263 914 269 893 256 907 z m 276 886 l 276 886 b 319 865 290 879 306 872 b 283 850 306 857 297 857 b 276 886 283 865 283 872 z m 340 815 l 340 815 b 347 801 347 822 361 801 b 340 815 340 788 326 808 z m 319 794 l 319 794 b 333 779 326 788 326 788 b 368 794 347 779 354 788 b 368 772 368 788 368 779 b 313 744 354 765 333 744 b 319 794 313 765 319 779 z m 219 674 l 219 674 b 219 653 228 674 228 653 b 219 674 206 653 206 674 z m 468 646 l 468 646 b 468 617 482 646 482 617 b 468 646 453 625 460 639 z m 439 632 l 439 632 b 446 617 446 632 453 632 b 439 632 439 617 432 617 z m 510 525 l 510 525 b 524 511 517 532 531 525 b 510 525 517 504 503 518 z m 297 511 l 297 511 b 313 490 306 511 319 504 b 297 511 306 483 283 504 z m 347 504 l 347 504 b 340 497 368 511 347 476 b 347 504 340 497 347 504 z m 382 392 l 382 392 b 397 385 390 406 404 392 b 382 392 390 376 375 385 z m 404 369 l 404 369 b 475 328 418 349 446 335 b 460 349 468 335 460 342 b 503 335 475 342 489 335 b 524 285 503 321 510 299 b 531 328 538 292 531 314 b 546 250 553 307 581 271 b 489 292 524 264 503 278 b 496 257 489 278 489 271 b 439 307 475 271 460 292 b 432 264 432 292 432 278 b 397 278 418 271 411 271 b 375 328 390 292 382 307 b 404 335 382 328 397 335 b 404 369 404 349 404 363 z m 432 369 l 432 369 b 439 356 439 369 446 369 b 432 369 432 356 425 356 z m 185 278 l 185 278 b 178 271 206 285 185 250 b 185 278 178 271 185 278 z m 468 51 l 468 51 b 503 67 482 51 496 58 b 503 44 503 58 503 51 b 546 51 517 44 531 51 b 538 -4 546 31 546 17 b 517 17 531 3 524 10 b 468 10 503 10 482 10 b 468 51 468 24 468 38 z m 283 58 l 283 58 b 319 58 290 58 306 58 b 283 31 306 51 297 44 b 283 58 283 38 283 51 z m 375 51 l 375 51 b 404 38 382 44 397 44 b 404 31 404 38 404 31 b 382 3 397 24 390 10 b 375 51 375 17 368 31 z "},"V":{"ha":1157,"x_min":0,"x_max":0,"o":"m -28 1043 l -28 1043 b -21 1008 -28 1036 -21 1022 b 43 1036 0 1022 21 1029 b 156 725 85 938 114 832 b 247 571 176 669 176 599 b 213 571 233 571 219 571 b 368 111 261 415 318 260 b 403 75 375 90 389 82 b 403 97 403 82 403 90 b 453 68 424 90 439 82 b 432 75 446 75 439 75 b 403 40 424 61 410 54 b 501 19 439 33 467 4 b 686 82 572 13 650 19 b 693 210 714 118 700 167 b 750 231 714 217 742 210 b 1018 846 835 436 926 640 b 1011 896 1011 860 997 881 b 1082 931 1032 910 1067 903 b 1124 1043 1117 958 1117 1001 b 799 1043 1011 1043 904 1043 b 856 1001 792 1001 835 1015 b 926 944 890 994 919 974 b 913 740 947 874 933 803 b 757 372 856 613 813 493 b 650 649 714 464 686 556 b 524 1008 608 768 558 889 b 622 1008 558 1008 586 1008 l 622 1043 b 219 1043 488 1043 354 1043 b 199 994 213 1022 206 1008 b 149 1008 183 1001 169 1008 b 149 974 149 1001 149 988 b 85 974 128 974 106 974 b 183 1036 114 1001 149 1022 b 0 1043 121 1051 64 1043 b 0 1029 0 1043 0 1036 b -28 1043 -7 1036 -21 1043 z m 361 563 l 361 563 b 361 549 354 563 354 542 b 361 563 375 549 368 571 z m 1032 1036 l 1032 1036 b 1039 1022 1039 1043 1053 1022 b 1032 1036 1032 1008 1018 1029 z m 1089 1036 l 1089 1036 b 1103 1022 1096 1043 1110 1029 b 1089 1036 1096 1015 1082 1029 z m 919 1008 l 919 1008 b 919 988 926 1015 933 994 b 919 1008 913 988 904 1008 z m 1018 981 l 1018 981 b 1060 1008 1025 994 1046 1001 b 1018 981 1046 994 1032 988 z m 1046 974 l 1046 974 b 1060 974 1053 974 1060 974 b 1060 944 1060 965 1060 951 b 1046 944 1060 944 1053 944 b 1046 974 1046 951 1046 965 z m 92 958 l 92 958 b 135 965 106 958 121 958 b 99 917 135 944 114 931 b 92 958 92 924 92 944 z m 156 958 l 156 958 b 169 944 163 965 176 951 b 156 958 163 938 149 951 z m 106 903 l 106 903 b 149 924 121 910 135 917 b 169 903 156 917 163 910 b 176 924 169 910 169 917 b 149 853 176 896 163 874 b 149 903 149 867 149 889 b 106 903 135 903 121 903 z m 517 903 l 517 903 b 531 896 524 910 538 903 b 517 903 524 881 510 896 z m 199 846 l 199 846 b 226 867 213 853 219 860 b 219 832 226 853 219 846 b 199 846 213 832 206 839 z m 169 796 l 169 796 b 226 768 183 789 206 775 b 199 747 213 761 206 754 b 169 796 183 761 176 782 z m 453 782 l 453 782 b 474 768 460 775 467 775 b 453 718 467 754 460 733 b 432 725 446 725 439 725 b 453 782 439 747 446 761 z m 169 711 l 169 711 b 176 740 176 718 176 733 b 199 718 183 733 192 725 b 169 711 192 718 183 718 z m 551 740 l 551 740 b 544 725 558 733 551 718 b 551 740 531 725 538 740 z m 396 733 l 396 733 b 432 718 410 725 417 725 b 424 704 432 718 424 711 b 403 697 417 704 410 697 l 396 733 z m 183 676 l 183 676 b 233 711 199 690 219 697 b 219 663 226 690 226 676 b 247 640 226 656 240 649 b 213 613 233 633 226 619 b 183 676 206 633 192 656 z m 510 711 l 510 711 b 544 640 531 697 558 669 b 510 690 538 663 531 683 b 510 711 510 697 510 704 z m 297 683 l 297 683 b 304 669 304 683 311 669 b 297 683 290 663 283 676 z m 304 656 l 304 656 b 318 640 311 663 325 656 b 304 656 311 633 297 640 z m 297 599 l 297 599 b 297 640 283 613 283 626 b 297 599 297 626 297 613 z m 565 626 l 565 626 b 572 619 572 633 579 619 b 565 626 565 613 558 626 z m 346 592 l 346 592 b 432 556 382 599 410 585 b 403 542 424 549 410 549 b 382 578 396 556 389 571 b 375 514 382 556 382 535 b 346 592 339 528 346 563 z m 332 478 l 332 478 b 410 507 354 485 382 493 b 417 478 410 500 417 493 b 339 436 396 464 368 450 b 332 478 339 450 332 464 z m 439 372 l 439 372 b 474 344 453 365 460 358 b 439 351 460 351 453 351 b 439 372 439 358 439 372 z m 551 365 l 551 365 b 558 351 565 372 572 351 b 551 365 544 338 538 358 z m 389 288 l 389 288 b 424 288 403 288 417 288 b 389 288 417 267 396 267 z "},"W":{"ha":1833,"x_min":0,"x_max":0,"o":"m -6 1038 l -6 1038 l -6 1003 b 72 1003 15 1003 43 1003 b 171 721 107 904 142 813 b 206 678 178 699 192 685 b 213 706 206 685 213 699 b 226 664 219 692 226 678 b 206 621 219 650 199 643 b 263 508 213 586 235 543 b 249 572 256 529 249 550 b 304 557 269 565 290 557 b 276 515 297 543 290 529 b 290 522 283 515 283 515 b 290 488 290 508 290 501 b 256 508 283 494 269 501 b 340 240 276 417 319 332 b 425 14 361 163 397 92 b 482 14 439 14 460 14 b 467 42 475 21 475 28 b 489 42 475 42 482 42 b 503 7 496 28 496 21 b 672 7 560 7 615 14 b 700 76 679 28 693 56 b 672 63 693 69 679 69 b 707 154 665 99 658 163 b 700 126 707 140 707 133 b 729 140 715 126 722 133 b 828 353 778 204 785 289 b 899 488 856 394 871 444 b 1004 169 933 381 969 275 b 1082 21 1018 113 1054 69 b 1068 92 1082 49 1075 69 b 1118 69 1082 92 1111 106 b 1146 49 1125 63 1132 56 b 1068 14 1118 42 1096 28 b 1308 7 1146 -8 1231 7 b 1669 840 1428 282 1542 565 b 1647 833 1661 833 1654 833 b 1690 883 1661 847 1676 861 b 1633 854 1669 875 1647 861 b 1654 918 1633 875 1626 911 b 1697 883 1669 904 1683 890 b 1761 953 1718 904 1739 932 b 1824 1038 1789 982 1824 996 b 1796 1038 1817 1038 1803 1038 b 1782 1003 1789 1024 1789 1017 b 1739 1038 1768 1017 1761 1038 b 1457 1038 1640 1024 1549 1046 b 1514 996 1450 1003 1485 1003 b 1576 946 1535 989 1569 975 b 1563 735 1606 883 1592 806 b 1407 367 1514 614 1464 488 b 1196 1003 1329 579 1265 790 b 1281 1003 1224 1003 1251 1003 l 1281 1038 b 651 1038 1068 1038 856 1038 l 651 1003 b 722 1003 665 1003 707 1003 b 856 600 771 868 814 735 b 871 529 863 579 878 550 b 778 339 842 465 807 403 b 544 1003 700 557 622 783 b 615 1003 560 1003 594 1003 l 615 1038 b -6 1038 404 1038 199 1038 z m 1047 42 l 1047 42 b 1054 21 1040 35 1047 21 b 1047 42 1068 21 1061 49 z m 1082 76 l 1082 76 b 1096 63 1075 63 1089 56 b 1082 76 1103 69 1089 85 z m 411 289 l 411 289 b 411 275 404 289 404 268 b 411 289 425 275 418 296 z m 319 671 l 319 671 b 313 650 304 671 297 657 b 319 671 319 650 326 664 z m 1676 975 l 1676 975 b 1676 953 1683 975 1690 953 b 1676 975 1669 946 1661 968 z m 171 961 l 171 961 b 199 946 178 953 192 953 b 171 890 192 932 178 911 b 142 932 164 904 149 918 b 178 939 157 932 171 939 b 171 961 178 946 171 953 z m 242 826 l 242 826 b 249 813 249 826 256 826 b 242 826 242 813 235 813 z m 581 813 l 581 813 b 588 797 588 813 594 797 b 581 813 574 790 567 806 z m 503 790 l 503 790 b 510 776 510 797 524 783 b 503 790 503 769 489 783 z m 482 763 l 482 763 b 517 742 496 763 503 749 b 475 742 503 742 489 742 b 460 706 467 728 467 721 b 439 721 453 713 446 713 b 482 763 446 735 453 763 z m 242 685 l 242 685 b 347 685 276 706 313 692 b 333 678 340 685 333 685 b 340 657 333 671 333 664 b 354 671 340 664 347 664 b 361 635 354 657 354 650 b 333 635 347 635 340 635 b 368 614 347 628 354 621 b 269 635 333 621 304 643 b 242 685 263 657 256 671 z m 213 635 l 213 635 b 235 621 219 643 242 628 b 213 635 226 614 206 628 z m 263 607 l 263 607 b 290 628 269 614 283 621 b 297 607 290 621 297 614 b 263 607 283 607 276 607 z m 304 572 l 304 572 b 319 565 313 586 326 572 b 304 572 313 557 297 565 z m 510 508 l 510 508 b 524 494 517 501 524 494 b 503 465 517 481 510 472 b 489 481 496 472 496 472 b 510 508 496 488 503 501 z m 340 417 l 340 417 b 404 388 361 403 382 394 b 361 367 390 381 375 374 b 340 417 354 381 347 403 z m 347 332 l 347 332 b 347 381 319 346 326 367 b 347 332 347 360 347 346 z m 1054 339 l 1054 339 b 1082 360 1068 346 1075 353 b 1096 332 1089 353 1089 346 b 1054 339 1082 339 1068 339 z m 390 296 l 390 296 b 439 339 404 310 418 325 b 467 282 446 317 453 303 b 446 275 460 282 453 282 b 425 317 439 289 432 303 b 432 254 432 296 425 275 b 404 254 425 254 411 254 b 390 296 397 268 390 282 z m 1288 289 l 1288 289 b 1301 296 1294 289 1294 296 b 1301 268 1301 289 1301 275 b 1288 268 1301 268 1288 268 b 1288 289 1288 275 1288 282 z m 1251 126 l 1251 126 b 1265 133 1258 126 1265 133 b 1315 63 1281 106 1294 85 b 1288 63 1301 63 1294 63 b 1274 35 1281 56 1281 42 b 1251 49 1265 42 1258 42 b 1258 113 1251 69 1251 92 b 1251 126 1251 119 1251 119 z m 496 119 l 496 119 b 510 106 503 126 524 113 b 496 119 503 99 489 113 z m 439 113 l 439 113 b 489 113 460 113 475 113 b 460 69 475 99 467 85 b 439 113 453 85 446 99 z m 560 113 l 560 113 b 574 99 567 126 581 106 b 560 113 560 85 544 106 z m 1125 106 l 1125 106 b 1167 85 1139 99 1153 92 b 1160 63 1160 76 1160 63 b 1125 106 1146 76 1139 92 z m 503 85 l 503 85 b 553 92 517 85 531 85 b 496 49 538 63 524 49 b 503 85 496 56 496 69 z "},"X":{"ha":1157,"x_min":0,"x_max":0,"o":"m -15 1035 l -15 1035 b -15 1000 -15 1021 -15 1014 b 76 1000 13 1000 49 1000 b 303 569 154 858 225 710 b 381 463 324 533 338 485 b 49 89 260 350 175 201 b -65 32 13 74 -15 39 b -44 11 -58 25 -51 18 b 324 4 76 4 204 -4 b 324 32 324 11 324 25 b 232 82 289 46 253 53 b 246 244 196 131 218 201 b 381 421 289 300 338 357 b 436 314 408 385 415 350 b 479 307 451 314 465 314 b 472 244 479 286 465 265 b 571 53 507 181 543 117 b 614 96 585 67 600 82 b 642 67 621 89 628 74 b 600 11 628 46 614 25 b 600 32 600 18 600 25 b 458 39 550 32 507 39 l 458 4 b 797 4 571 11 685 -4 b 1172 4 918 4 1044 -4 b 1165 32 1165 11 1165 25 b 1081 46 1136 39 1108 39 b 994 215 1038 96 1024 158 b 896 385 967 279 918 322 b 776 618 861 469 818 540 b 1081 957 882 725 974 851 b 1179 1035 1101 993 1172 986 b 918 1028 1094 1035 1003 1035 b 790 1035 875 1028 832 1035 b 797 1000 790 1028 797 1014 b 903 972 832 993 882 1000 b 868 788 939 908 910 838 b 726 654 825 739 790 675 b 719 668 726 654 719 661 b 699 661 713 661 706 661 b 733 696 713 668 719 682 b 571 1014 692 810 621 901 b 621 1028 585 1014 607 1021 b 351 1035 529 1043 436 1035 b 282 1007 324 1035 303 1021 b 289 1035 282 1014 289 1028 b -15 1035 189 1035 90 1035 z m 458 300 l 458 300 b 458 279 444 300 444 279 b 458 300 465 279 465 300 z m 656 1028 l 656 1028 b 685 993 669 1021 678 1007 l 685 1035 b 656 1028 678 1035 669 1035 z m 550 1028 l 550 1028 b 550 1014 557 1035 564 1014 b 550 1028 543 1007 536 1028 z m 550 1000 l 550 1000 b 571 986 557 1007 578 993 b 550 1000 564 979 543 986 z m 522 943 l 522 943 b 571 979 536 957 557 972 b 529 915 564 957 557 922 b 557 950 536 929 550 936 b 522 943 543 950 536 943 z m 564 929 l 564 929 b 585 901 571 922 578 908 b 564 908 578 901 571 901 b 564 929 564 915 564 922 z m 472 844 l 472 844 b 507 824 486 838 493 831 b 493 788 500 810 500 803 b 472 817 486 794 479 803 b 451 794 465 810 458 803 b 472 844 458 817 465 831 z m 564 803 l 564 803 b 578 788 571 810 592 794 b 564 803 571 774 557 788 z m 592 788 l 592 788 b 600 774 600 794 607 774 b 592 788 592 760 578 781 z m 246 689 l 246 689 b 303 732 260 703 282 717 b 296 696 303 717 303 710 b 274 703 289 696 282 703 b 274 682 274 696 274 689 b 246 689 267 682 253 689 z m 543 640 l 543 640 b 607 640 564 640 585 640 b 564 618 592 632 578 625 b 628 597 585 611 607 604 b 628 576 628 590 628 583 b 592 569 621 576 607 576 b 564 604 585 583 578 597 b 543 513 557 576 550 547 b 479 533 522 526 500 533 b 472 569 479 540 472 554 b 500 563 479 569 493 563 b 486 583 500 569 493 576 b 522 569 500 576 507 576 b 529 625 522 590 529 604 b 550 625 536 625 543 625 b 543 640 550 632 543 640 z m 747 647 l 747 647 b 776 640 754 640 763 640 b 747 618 763 632 754 625 b 747 647 747 625 747 640 z m 678 625 l 678 625 b 740 618 699 625 719 625 b 699 597 726 611 713 604 b 678 625 692 611 685 618 z m 678 604 l 678 604 b 656 590 692 597 663 576 b 678 604 656 597 663 611 z m 472 604 l 472 604 b 472 583 479 604 486 583 b 472 604 458 576 458 597 z m 522 506 l 522 506 b 550 506 529 506 543 506 b 543 476 550 499 543 485 b 522 506 536 485 529 499 z m 557 476 l 557 476 b 571 476 557 492 578 485 b 557 476 571 463 550 469 z m 514 421 l 514 421 b 522 407 522 428 529 414 b 514 421 514 399 500 421 z m 840 421 l 840 421 b 854 414 847 428 861 421 b 840 421 847 399 832 414 z m 514 399 l 514 399 b 564 378 529 399 550 392 b 514 399 543 385 529 392 z m 861 385 l 861 385 b 896 371 875 392 889 385 b 861 385 882 378 868 385 z m 642 329 l 642 329 b 685 385 656 350 669 364 b 706 385 692 385 699 385 b 642 329 692 357 678 329 z m 529 378 l 529 378 b 564 364 543 371 550 371 b 529 378 550 343 536 357 z m 536 343 l 536 343 b 614 343 564 336 585 336 b 578 300 600 329 592 314 b 536 343 571 314 557 329 z m 918 158 l 918 158 b 918 138 925 158 932 138 b 918 158 910 138 903 151 z m 182 144 l 182 144 b 182 124 196 144 196 124 b 182 144 175 124 175 144 z m 896 138 l 896 138 b 896 124 903 138 910 124 b 896 138 889 117 882 138 z m 119 110 l 119 110 b 119 89 133 103 126 89 b 119 110 104 96 111 110 z m 76 103 l 76 103 b 83 82 76 96 83 89 b 63 74 83 82 69 74 b 76 103 69 82 69 96 z m 104 82 l 104 82 b 126 25 119 67 126 46 b 90 39 119 32 104 32 b 111 60 97 46 104 53 b 97 60 111 60 97 60 b 104 82 97 67 97 74 z m 26 32 l 26 32 b 33 11 33 39 49 18 b 26 32 19 4 13 25 z "},"Y":{"ha":1182,"x_min":0,"x_max":0,"o":"m -18 1036 l -18 1036 l -4 1008 b 51 994 10 1008 38 1001 b 129 860 88 951 101 910 b 321 514 193 747 250 626 b 376 393 335 471 385 443 b 376 40 369 274 376 161 b 250 40 335 40 292 40 b 250 -1 250 26 250 13 b 518 6 335 -1 426 6 b 801 6 610 -1 710 13 b 794 26 801 13 794 19 b 928 6 829 -1 886 13 b 935 33 928 19 928 26 b 865 33 907 40 886 33 b 865 6 865 26 865 19 b 843 40 857 19 850 26 b 822 26 836 33 829 33 b 822 507 815 189 815 344 b 950 782 850 606 943 676 b 964 775 957 782 964 775 b 1049 910 992 818 1028 867 b 957 896 1021 917 978 924 b 935 789 950 867 943 825 b 950 782 943 789 943 789 b 907 719 935 761 928 740 b 914 754 907 733 914 740 b 801 564 865 697 843 626 b 724 663 772 592 765 642 b 717 676 724 663 724 669 b 738 669 724 669 731 669 b 717 704 731 683 724 690 b 681 676 703 690 688 683 b 681 726 681 690 681 704 b 710 719 688 719 703 719 b 561 1001 660 818 603 910 b 667 1001 596 1001 632 1001 b 674 1036 667 1015 674 1022 b -18 1036 440 1036 214 1036 z m 957 33 l 957 33 b 943 6 943 26 935 13 b 957 33 957 -1 971 33 z m 369 761 l 369 761 b 376 747 363 747 369 747 b 369 761 385 761 376 761 z m 985 874 l 985 874 b 985 853 999 874 999 853 b 985 874 971 853 971 874 z m 971 960 l 971 960 b 971 938 971 960 971 944 b 999 938 978 938 992 938 b 971 960 992 944 978 951 z m 1083 1036 l 1083 1036 b 1090 1015 1083 1029 1090 1022 b 1006 967 1063 1001 1035 988 b 1035 974 1013 967 1028 974 b 1021 960 1028 967 1028 960 b 1083 938 1042 951 1063 951 b 1106 981 1090 951 1097 967 b 1106 960 1106 974 1106 967 b 1175 1036 1133 981 1175 994 b 1083 1036 1147 1036 1113 1036 z m 1035 1036 l 1035 1036 b 1035 1015 1035 1029 1035 1022 b 1076 1029 1049 1015 1063 1022 b 1035 1036 1069 1036 1049 1036 z m 815 1036 l 815 1036 b 829 1001 822 1022 822 1015 b 886 1001 850 1001 865 1001 b 950 1036 907 1008 928 1022 b 815 1036 907 1036 857 1036 z m 454 967 l 454 967 b 469 951 463 974 476 960 b 454 967 463 944 447 960 z m 426 889 l 426 889 b 433 874 433 896 447 874 b 426 889 426 867 419 882 z m 476 853 l 476 853 b 490 839 483 867 497 853 b 476 853 483 832 469 846 z m 518 853 l 518 853 b 518 832 525 853 525 832 b 518 853 504 832 504 853 z m 447 839 l 447 839 b 454 825 454 846 469 832 b 447 839 447 818 440 832 z m 525 818 l 525 818 b 511 804 540 811 511 796 b 525 818 504 811 518 818 z m 349 761 l 349 761 b 363 804 342 775 356 789 b 399 719 385 782 399 754 b 349 761 376 733 356 740 z m 426 669 l 426 669 b 454 683 433 676 440 676 b 454 626 454 669 454 649 b 419 613 440 619 433 619 b 413 656 419 626 413 642 b 440 642 419 649 426 649 b 447 663 440 649 440 656 b 426 669 440 669 433 669 z m 547 676 l 547 676 b 582 663 561 669 568 669 b 554 619 575 649 568 633 b 561 656 554 633 561 642 b 547 642 554 649 547 649 b 547 676 547 656 547 663 z m 639 649 l 639 649 b 667 649 646 649 653 649 b 667 619 667 642 667 626 b 639 649 653 626 646 642 z m 617 626 l 617 626 b 646 626 625 626 632 626 b 639 606 646 619 639 613 b 617 606 632 606 625 606 b 617 626 617 613 617 619 z m 653 599 l 653 599 b 667 592 660 613 674 599 b 653 599 660 585 646 592 z m 376 542 l 376 542 b 426 556 392 542 413 549 b 413 486 419 535 413 507 b 399 500 406 486 406 493 b 369 514 392 500 376 507 b 385 535 369 521 376 528 b 363 535 376 535 369 535 b 376 542 369 535 369 542 z m 426 542 l 426 542 b 490 535 447 535 469 535 b 463 507 483 521 469 514 b 426 542 454 514 440 528 z m 497 528 l 497 528 b 511 521 504 542 518 528 b 497 528 504 514 490 521 z m 568 507 l 568 507 b 582 493 575 514 589 500 b 568 507 575 486 561 500 z m 667 507 l 667 507 b 681 493 674 514 688 500 b 667 507 674 486 660 500 z m 610 500 l 610 500 b 646 479 625 493 632 486 b 646 422 646 457 639 443 b 667 365 653 401 674 386 b 632 315 660 344 646 338 b 639 358 632 331 639 344 b 582 331 617 351 596 344 b 568 344 575 338 575 338 b 582 372 575 351 575 365 b 625 379 596 372 610 379 b 575 429 610 401 589 415 b 596 429 575 429 589 429 b 547 457 575 436 561 450 b 525 436 540 450 532 443 b 504 457 518 443 511 450 b 554 479 518 464 540 471 b 575 450 561 471 568 464 b 589 457 575 457 582 457 b 610 500 596 471 603 486 z m 653 471 l 653 471 b 681 471 660 471 674 471 b 681 450 681 464 681 457 b 653 471 674 457 660 464 z m 561 294 l 561 294 b 568 288 568 301 575 288 b 561 294 561 281 554 294 z m 772 274 l 772 274 b 794 281 781 281 788 281 b 788 253 794 274 788 267 b 772 253 788 253 772 253 b 772 274 772 260 772 267 z m 547 281 l 547 281 b 596 260 568 274 582 267 b 561 253 582 260 575 260 b 561 203 561 239 554 224 b 511 196 547 196 532 189 b 540 203 518 196 532 196 b 532 217 540 210 532 210 b 561 210 540 217 547 217 b 547 281 540 231 547 253 z m 751 260 l 751 260 b 765 246 758 267 772 253 b 751 260 758 239 744 253 z m 589 246 l 589 246 b 596 168 603 224 603 196 b 568 189 589 175 575 175 b 589 246 568 210 582 224 z "},"Z":{"ha":1025,"x_min":0,"x_max":0,"o":"m 108 1038 l 108 1038 b 115 1024 101 1024 108 1024 b 108 1038 122 1038 115 1038 z m 667 56 l 667 56 b 681 42 660 49 674 35 b 667 56 688 49 674 63 z m 971 438 l 971 438 b 942 282 956 388 935 339 b 921 289 935 289 928 289 b 928 254 928 275 928 268 b 907 268 921 261 914 261 b 688 63 850 183 779 106 b 701 7 694 42 694 28 b 1006 7 801 -8 907 7 b 1006 261 1006 92 1006 176 b 978 289 999 268 985 275 b 999 282 985 282 992 282 b 992 310 999 289 999 296 b 1006 444 1026 346 999 403 b 971 438 999 444 978 444 z m 956 303 l 956 303 b 971 296 956 317 978 310 b 956 303 964 282 949 296 z m 956 268 l 956 268 b 956 254 964 282 971 254 b 956 268 949 254 949 268 z m 978 268 l 978 268 b 985 247 985 275 992 254 b 978 268 971 247 964 261 z m 956 113 l 956 113 b 971 92 964 119 978 106 b 956 113 964 85 942 99 z m 893 35 l 893 35 b 914 21 900 42 921 28 b 893 35 907 7 886 21 z m 186 904 l 186 904 b 186 897 186 904 186 897 b 186 904 193 875 214 911 z m 193 946 l 193 946 b 207 932 179 939 200 925 b 193 946 214 946 200 961 z m 72 975 l 72 975 b 58 897 65 953 58 925 b 88 797 51 854 72 833 b 65 813 81 797 72 806 b 58 650 58 756 51 699 b 94 657 65 650 88 650 b 115 756 108 685 108 721 b 172 883 129 797 157 840 b 72 975 122 883 101 939 z m 108 854 l 108 854 b 122 826 115 847 115 833 b 88 833 108 826 94 833 b 108 833 94 833 101 833 b 108 854 108 840 108 847 z m 165 968 l 165 968 b 200 961 172 968 186 961 b 186 989 193 975 186 982 b 165 968 179 982 172 975 z m 235 1038 l 235 1038 b 214 989 228 1024 221 1010 b 228 918 200 968 221 946 b 264 961 243 932 250 946 b 497 1003 342 989 419 1010 b 406 819 468 939 440 883 b 390 692 383 776 406 735 b 342 692 376 692 363 692 b 356 650 349 678 356 664 b 335 657 349 650 342 657 b 349 607 342 643 342 628 b 313 621 335 614 321 614 b 179 360 264 529 221 444 b 221 346 193 353 207 353 b 207 332 214 346 214 339 b 179 346 200 339 193 346 b 193 325 186 339 186 332 b 150 289 172 317 157 310 b 10 7 101 197 51 106 b 419 7 143 0 285 7 b 639 7 490 7 568 0 b 631 42 639 21 639 28 b 518 42 596 42 561 42 b 786 579 610 218 694 403 b 765 579 779 579 772 579 b 758 593 765 579 758 586 b 793 586 772 593 779 593 b 1019 1038 871 742 942 890 b 836 1024 956 1038 900 1038 b 765 1038 815 1017 793 1038 b 235 1038 589 1038 413 1038 z m 758 953 l 758 953 b 829 911 793 961 815 939 b 758 953 808 925 779 939 z m 490 769 l 490 769 b 553 742 518 776 539 769 b 490 769 532 749 504 756 z m 731 692 l 731 692 b 758 692 744 692 751 692 b 758 657 758 678 758 664 b 724 643 744 650 738 650 b 708 664 715 650 715 657 b 738 664 715 664 724 664 b 731 692 731 671 731 678 z m 363 643 l 363 643 b 390 671 369 650 383 664 b 397 650 397 664 397 657 b 363 643 383 650 376 643 z m 383 586 l 383 586 b 397 572 390 593 406 579 b 383 586 390 565 376 579 z m 390 557 l 390 557 b 406 529 397 550 397 536 b 390 522 406 529 390 522 b 390 557 390 536 390 550 z m 553 550 l 553 550 b 553 529 568 543 561 529 b 553 550 539 536 546 550 z m 511 494 l 511 494 b 539 522 518 508 525 515 b 553 488 539 508 546 501 b 624 508 575 494 596 501 b 681 458 653 515 660 481 b 631 481 667 465 653 472 b 660 403 639 458 653 431 b 610 431 639 417 624 424 b 624 472 617 444 624 458 b 504 410 582 465 539 438 b 511 444 511 417 511 431 b 539 431 518 438 532 438 b 511 494 546 458 525 481 z m 321 501 l 321 501 b 342 508 328 508 335 508 b 342 465 342 494 342 481 b 321 501 335 481 328 488 z m 356 488 l 356 488 b 363 481 363 494 369 481 b 356 488 356 472 342 488 z m 518 403 l 518 403 b 532 388 518 410 532 394 b 518 403 525 381 511 388 z m 278 394 l 278 394 b 335 374 299 388 321 381 b 335 353 335 367 335 360 b 299 339 321 353 306 346 b 313 367 299 353 306 360 b 278 394 299 374 292 388 z m 433 381 l 433 381 b 454 346 440 374 447 360 b 413 332 440 339 426 332 b 433 381 419 346 426 367 z m 397 332 l 397 332 b 440 275 413 310 426 289 b 390 289 426 275 383 261 b 397 332 390 303 390 317 z m 419 317 l 419 317 b 454 289 433 310 440 303 b 419 317 440 296 426 303 z m 454 240 l 454 240 b 504 232 468 240 490 240 b 497 204 504 225 497 218 b 454 240 483 218 468 232 z m 511 247 l 511 247 b 539 232 518 247 525 240 b 518 218 532 225 525 218 b 511 247 518 225 511 240 z m 207 133 l 207 133 b 243 119 221 126 235 126 b 250 85 250 113 250 99 b 172 76 221 85 193 76 b 207 133 186 99 193 113 z m 157 1046 l 157 1046 b 172 1010 165 1031 165 1024 b 179 1031 172 1017 172 1024 b 200 1003 186 1024 193 1010 b 157 1046 193 1024 186 1046 z "},"[":{"ha":1157,"x_min":0,"x_max":0,"o":"m 253 835 b 257 825 253 835 257 831 b 267 817 260 825 260 821 b 271 810 267 810 271 810 b 267 801 271 806 267 806 b 260 783 260 799 260 792 b 257 774 257 778 257 774 b 257 760 257 769 257 765 b 257 744 257 756 257 751 b 257 726 257 736 257 731 b 257 718 257 722 257 718 b 257 708 257 718 257 713 b 257 679 257 697 257 693 b 253 646 257 671 253 661 b 253 632 253 642 253 639 b 253 618 253 628 253 624 b 253 614 253 618 253 614 b 253 610 253 610 253 610 b 253 592 253 603 253 596 b 246 576 246 585 246 581 b 246 553 246 567 246 558 b 246 549 246 549 246 549 b 238 544 242 544 242 544 b 224 544 233 544 228 544 b 206 544 219 544 214 544 b 190 544 199 544 194 544 b 186 544 190 544 186 544 b 176 538 181 544 181 544 b 176 524 176 533 176 529 b 176 511 176 519 176 515 b 181 501 181 506 181 506 b 186 497 181 497 186 497 b 194 497 186 497 190 497 b 219 501 199 497 210 501 b 242 506 224 501 233 501 b 271 506 253 506 260 506 b 289 506 275 506 285 506 b 314 506 293 506 303 506 b 340 506 322 506 332 506 b 374 501 354 506 365 501 b 408 501 388 501 397 501 b 426 501 417 501 419 501 b 435 501 431 501 431 501 b 435 506 435 501 435 501 b 440 519 440 511 440 515 b 435 533 440 524 440 529 b 431 544 435 538 435 544 b 417 538 426 544 419 544 b 401 538 413 538 408 538 b 383 544 393 538 388 538 b 365 553 374 544 369 549 b 365 563 365 553 365 558 b 361 576 365 567 361 571 b 361 600 361 585 361 592 b 361 618 361 603 361 614 b 354 639 354 628 354 632 b 350 642 354 639 350 642 b 346 646 350 642 346 646 b 346 650 346 646 346 650 b 346 661 346 657 346 661 b 354 671 350 665 350 665 b 354 679 354 675 354 675 l 361 740 b 374 740 365 740 369 740 b 393 736 383 740 388 740 b 401 731 393 736 397 736 b 417 718 408 726 413 722 b 431 697 419 713 426 704 b 440 689 435 693 440 693 b 449 679 440 683 444 683 b 453 675 449 679 453 675 b 458 671 458 671 458 671 b 467 650 458 665 463 661 b 488 628 474 646 478 639 b 510 596 496 614 500 603 b 529 567 521 585 525 576 b 539 553 535 563 539 553 l 553 529 b 553 519 553 524 553 524 b 553 501 553 515 553 506 b 553 482 553 497 553 490 b 557 472 553 482 557 476 b 561 464 557 472 561 468 b 568 458 561 464 568 458 l 568 454 b 568 443 568 450 568 450 b 561 436 568 439 561 439 b 568 425 561 436 568 432 b 572 411 568 421 568 417 b 576 403 572 411 576 407 b 579 397 576 403 579 397 b 590 393 586 393 586 393 b 594 389 590 393 594 389 b 604 378 594 389 600 385 b 608 360 604 369 608 364 b 618 342 615 356 615 346 b 622 331 618 338 622 331 b 651 313 633 326 642 317 b 685 290 660 304 669 299 b 717 276 694 283 707 279 b 754 265 732 269 746 265 l 782 265 b 797 261 786 265 793 265 b 807 257 801 261 807 261 b 815 257 811 257 815 257 b 868 257 829 257 849 257 b 914 261 881 257 896 261 b 953 265 928 261 942 265 b 967 269 957 265 961 269 b 975 276 971 269 971 276 b 981 276 975 276 981 276 b 985 276 981 276 985 276 b 989 276 985 276 989 276 b 996 276 996 276 996 276 b 1000 279 1000 276 1000 276 b 1004 299 1004 283 1004 294 b 1004 317 1004 304 1004 313 b 1008 326 1004 322 1008 326 b 1004 331 1008 326 1008 331 b 1004 342 1004 338 1004 338 b 1004 342 1004 342 1004 342 b 1008 346 1004 346 1004 346 b 1008 356 1008 350 1008 350 b 1014 364 1008 356 1014 360 b 1014 369 1014 364 1014 369 b 1014 374 1014 369 1014 374 b 1014 378 1014 378 1014 378 b 1014 385 1014 378 1014 385 b 1018 397 1014 389 1018 393 b 1018 407 1018 403 1018 407 b 1018 417 1018 411 1018 417 b 1014 421 1018 421 1018 421 b 1000 425 1008 425 1004 425 b 996 425 1000 425 996 425 b 985 421 989 421 989 421 b 985 411 985 421 985 417 b 981 393 981 407 981 403 b 971 369 975 389 975 378 b 961 346 967 364 967 356 b 942 326 957 342 953 331 b 939 322 942 326 939 322 b 928 317 935 317 928 317 b 919 313 924 317 924 313 b 910 308 914 313 914 308 b 906 304 910 304 906 304 b 901 304 906 304 901 304 b 892 304 896 304 892 304 b 881 304 888 304 888 304 b 872 304 876 304 872 304 b 863 299 868 299 863 299 b 844 304 858 299 849 304 b 829 304 840 304 833 304 b 815 304 825 304 821 304 b 797 308 811 308 801 308 b 768 322 786 313 779 317 b 742 342 760 326 750 338 b 717 369 732 350 728 356 b 694 411 707 378 699 397 b 689 425 694 417 689 421 b 681 432 685 425 681 432 b 674 443 674 436 674 439 l 674 443 b 674 458 674 450 674 454 b 681 472 674 464 681 468 l 681 472 b 674 497 681 476 674 486 b 674 524 674 501 674 511 b 669 571 674 538 669 553 b 681 610 674 581 674 596 b 694 646 685 624 689 639 b 694 661 694 650 694 650 b 699 675 699 665 699 671 b 707 689 703 679 703 689 b 713 697 707 693 707 697 l 717 697 b 721 704 717 697 717 697 b 728 713 721 704 728 708 b 736 722 732 718 732 722 b 742 731 736 726 742 731 b 750 736 746 731 746 736 b 764 744 754 740 760 740 b 786 756 775 751 779 756 b 807 765 793 760 797 760 b 833 769 815 765 825 769 b 872 769 844 769 858 769 b 881 769 876 769 876 769 b 888 769 881 769 881 769 b 896 765 892 769 892 765 b 906 760 896 765 901 760 b 910 756 906 756 910 756 b 935 744 919 751 928 751 b 949 731 939 740 942 736 b 961 697 953 722 957 713 b 975 646 967 689 971 671 b 981 646 975 646 975 646 b 985 646 981 646 981 646 b 996 646 989 646 989 646 b 1004 646 1000 646 1000 646 b 1008 650 1008 650 1008 650 l 1008 657 b 1008 665 1008 657 1008 661 b 1008 683 1008 671 1008 679 b 1004 704 1008 689 1008 697 b 1004 722 1004 713 1004 718 b 1004 731 1004 726 1004 731 b 1004 751 1004 736 1004 744 b 1008 765 1004 756 1008 760 b 1008 778 1008 774 1008 774 b 1004 788 1008 783 1008 788 b 985 792 1000 788 996 792 b 957 801 981 799 971 799 l 953 801 b 942 799 953 801 949 799 b 935 799 942 799 939 799 b 924 801 935 799 928 799 b 914 806 924 801 919 801 b 910 806 910 806 910 806 b 876 810 896 806 888 810 b 849 810 868 810 858 810 b 825 810 840 810 829 810 b 807 810 821 810 815 810 b 786 806 801 810 797 810 b 754 799 779 806 768 801 b 750 792 754 799 754 792 b 746 788 750 792 746 788 b 742 783 742 783 742 783 b 736 783 742 783 736 783 b 736 783 736 783 736 783 b 728 783 732 783 732 783 b 721 783 728 783 721 783 b 707 778 717 783 717 783 b 689 769 703 778 694 774 b 660 756 681 765 669 760 b 638 740 651 751 647 744 b 622 726 633 736 626 731 b 608 704 618 722 615 713 b 586 665 600 693 594 679 b 586 661 586 665 586 665 l 586 661 b 579 665 579 661 579 661 b 561 693 572 675 568 683 b 547 713 557 704 553 708 b 539 726 547 718 543 722 b 521 751 535 736 525 740 b 506 769 514 756 510 760 b 496 778 500 774 500 778 b 482 792 492 783 488 788 b 474 801 478 799 474 801 b 463 810 467 806 467 810 b 474 821 467 810 467 817 b 492 839 478 825 482 835 b 514 868 496 849 506 857 b 539 900 521 878 529 892 b 553 919 543 904 547 915 b 561 938 553 929 557 933 b 572 947 561 943 568 943 b 579 951 572 947 576 951 b 590 958 586 958 586 958 b 618 981 600 972 608 976 b 651 994 626 985 638 990 b 694 994 660 994 674 994 b 694 999 694 994 694 999 b 694 1013 694 1004 694 1008 b 694 1028 694 1019 694 1024 b 694 1038 694 1028 694 1032 b 689 1042 689 1042 689 1042 b 681 1042 689 1042 685 1042 b 656 1038 669 1038 665 1038 b 626 1032 647 1038 638 1038 b 604 1032 618 1032 608 1032 b 586 1032 600 1032 594 1032 b 561 1038 579 1032 572 1038 b 535 1038 553 1038 543 1038 b 514 1042 529 1038 521 1042 b 506 1042 510 1042 506 1042 b 500 1038 500 1042 500 1042 b 496 1024 496 1032 496 1028 b 492 1013 496 1024 492 1019 b 500 1004 492 1008 496 1004 b 510 999 500 1004 506 999 b 525 994 521 999 521 999 b 535 990 529 994 529 990 b 525 976 529 985 529 981 b 514 951 525 972 521 961 b 496 925 510 947 506 933 b 492 919 496 925 496 919 b 488 911 492 915 492 911 b 482 900 488 904 488 904 b 478 892 482 900 482 896 b 478 882 478 886 478 886 b 467 868 474 882 474 878 b 449 849 463 864 458 857 b 431 825 444 839 440 831 b 417 806 426 817 419 810 b 397 792 413 801 401 799 b 374 783 388 788 383 783 b 361 778 369 778 365 778 l 365 915 b 361 925 365 915 361 919 b 361 933 361 929 361 929 b 361 943 361 938 361 938 b 365 947 361 943 365 947 b 365 958 365 951 365 951 b 365 976 365 961 365 965 b 374 990 369 981 369 985 b 393 999 379 994 383 994 b 426 999 401 999 413 999 b 431 999 431 999 431 999 b 431 1004 431 999 431 1004 b 435 1013 435 1004 435 1008 b 431 1028 435 1019 435 1024 b 431 1038 431 1028 431 1032 b 426 1042 431 1038 426 1042 b 417 1038 426 1042 419 1042 b 393 1038 413 1038 401 1038 b 369 1038 388 1038 379 1038 b 340 1032 361 1038 350 1032 b 322 1032 332 1032 326 1032 b 314 1032 314 1032 314 1032 b 271 1032 299 1032 285 1032 b 238 1038 260 1032 246 1038 b 206 1042 224 1038 214 1038 b 190 1042 199 1042 190 1042 b 181 1038 186 1042 186 1042 b 176 1028 181 1032 176 1032 b 176 1013 176 1024 176 1019 b 176 994 176 1004 176 999 b 186 990 181 994 181 990 b 199 990 190 990 194 990 b 214 994 206 994 210 994 b 233 994 224 994 228 994 b 242 994 233 994 238 994 b 246 990 246 994 246 994 b 246 981 246 990 246 985 b 253 965 253 976 253 972 b 257 947 253 961 253 958 b 257 929 257 943 257 938 b 257 915 257 925 257 919 b 253 896 253 911 253 900 l 253 835 l 253 835 z m 289 186 b 285 182 285 186 285 182 b 281 182 281 182 281 182 b 271 182 281 182 275 182 b 267 182 271 182 267 182 b 257 186 260 186 260 186 b 246 186 257 186 253 186 b 238 182 246 186 242 182 b 228 182 233 182 233 182 b 224 182 224 182 224 182 b 210 182 219 182 214 182 b 199 186 206 186 199 186 b 190 186 194 186 190 186 b 181 186 186 186 186 186 b 181 186 181 186 181 186 b 181 182 181 186 181 182 b 181 178 181 182 181 178 b 181 178 181 178 181 178 b 181 171 181 171 181 171 b 181 171 181 171 181 171 b 181 167 181 167 181 167 b 186 171 181 167 186 171 b 190 171 190 171 190 171 b 199 171 194 171 194 171 b 206 171 199 171 199 171 b 206 167 206 171 206 171 b 206 167 206 167 206 167 b 210 163 210 167 210 163 b 210 157 210 163 210 157 b 210 149 210 153 210 153 b 210 143 210 149 210 149 b 210 139 210 143 210 139 b 210 135 210 139 210 135 b 210 131 210 135 210 131 b 206 124 206 124 206 124 b 210 119 210 119 210 119 b 210 117 210 119 210 117 b 210 117 210 117 210 117 b 210 110 210 110 210 110 b 210 106 210 110 210 106 b 210 101 210 101 210 101 b 210 96 210 96 210 96 b 210 92 210 96 210 96 b 210 88 210 92 210 92 b 210 83 210 88 210 83 b 210 74 210 78 210 78 b 210 74 210 74 210 74 b 210 69 210 74 210 74 b 206 63 210 69 206 69 b 206 58 206 63 206 58 b 206 50 206 54 206 54 b 206 44 206 50 206 50 b 206 44 206 44 206 44 b 210 40 210 44 210 40 b 210 40 210 40 210 40 l 210 36 b 210 36 210 36 210 36 b 206 31 210 36 206 36 b 206 31 206 31 206 31 l 206 15 b 199 15 206 15 206 15 b 194 15 199 15 199 15 b 190 15 194 15 194 15 b 186 15 190 15 190 15 b 181 15 186 15 181 15 b 176 15 181 15 181 15 b 176 11 176 15 176 11 b 176 7 176 11 176 7 b 176 7 176 7 176 7 b 176 3 176 3 176 3 b 176 -3 176 -3 176 -3 b 181 -3 181 -3 181 -3 b 186 -3 186 -3 186 -3 b 194 3 190 3 194 3 b 206 3 199 3 199 3 b 210 3 206 3 210 3 b 219 3 214 3 214 3 b 224 3 219 3 219 3 b 233 3 228 3 228 3 b 246 3 238 3 242 3 b 260 -3 253 3 257 3 b 271 -3 260 -3 267 -3 b 275 -3 271 -3 275 -3 b 281 -3 275 -3 281 -3 b 281 3 281 -3 281 3 b 281 11 281 3 281 7 b 281 15 281 11 281 11 b 281 15 281 15 281 15 b 275 15 275 15 275 15 b 267 15 271 15 271 15 b 260 15 267 15 260 15 b 257 15 260 15 257 15 b 253 15 253 15 253 15 b 246 22 253 15 246 15 b 246 26 246 22 246 22 b 242 26 246 26 242 26 b 242 31 242 26 242 31 b 242 40 242 31 242 36 b 242 44 242 40 242 40 b 242 50 242 44 242 50 b 242 54 242 50 242 54 b 242 58 242 54 242 58 b 242 63 242 58 242 58 b 242 69 242 63 242 63 b 242 78 242 69 242 74 b 242 83 242 78 242 83 l 257 83 b 257 83 257 83 257 83 b 260 88 257 88 257 88 b 260 88 260 88 260 88 b 267 88 267 88 267 88 b 271 83 271 83 271 83 l 275 83 b 285 83 281 83 281 83 b 285 83 285 83 285 83 b 289 83 289 83 289 83 b 289 78 289 78 289 78 b 289 69 289 74 289 74 b 293 69 289 69 289 69 b 293 63 293 63 293 63 b 293 63 293 63 293 63 b 293 63 293 63 293 63 b 299 63 299 63 299 63 b 303 63 299 63 303 63 b 303 69 303 63 303 69 b 299 74 303 69 303 74 b 299 83 299 78 299 78 b 299 88 299 83 299 88 b 299 92 299 92 299 92 b 299 96 299 96 299 96 b 299 106 299 101 299 101 b 303 117 303 110 303 110 b 303 119 303 117 303 119 b 303 119 303 119 303 119 b 299 119 303 119 299 119 b 293 124 299 119 299 124 b 293 119 293 124 293 119 b 293 119 293 119 293 119 b 293 119 293 119 293 119 b 289 110 289 117 289 117 b 289 106 289 110 289 110 b 285 101 285 106 285 101 b 281 101 285 101 285 101 b 275 101 281 101 275 101 b 260 101 271 101 267 101 b 253 101 260 101 257 101 b 242 101 253 101 246 101 b 242 106 242 101 242 101 b 242 110 242 106 242 110 b 242 119 242 117 242 119 b 242 124 242 124 242 124 b 242 131 242 124 242 131 b 242 135 242 131 242 135 b 238 139 242 139 238 139 b 242 143 238 139 242 143 b 242 149 242 143 242 149 b 242 153 242 149 242 153 b 246 163 242 157 246 157 b 246 167 246 163 246 167 b 253 167 246 167 246 167 b 257 171 253 167 253 171 b 260 171 257 171 260 171 b 271 171 267 171 267 171 b 275 167 271 171 275 167 b 285 167 281 167 285 167 b 293 167 289 167 293 167 b 299 167 299 167 299 167 b 303 157 299 163 299 163 b 303 153 303 157 303 153 b 307 143 307 149 307 149 b 307 143 307 143 307 143 b 307 139 307 139 307 139 b 314 139 314 139 314 139 b 318 139 314 139 314 139 b 318 143 318 139 318 139 b 318 143 318 143 318 143 b 318 153 318 149 318 153 b 318 167 318 157 318 163 b 318 171 318 167 318 171 b 318 182 318 178 318 178 b 318 182 318 182 318 182 b 314 186 318 182 314 186 b 303 186 307 186 307 186 l 289 186 l 289 186 z m 336 78 b 336 74 336 78 336 78 b 336 69 336 74 336 74 b 336 63 336 69 336 69 b 336 58 336 63 336 63 b 340 50 340 58 340 54 b 346 40 346 44 346 44 b 354 31 350 36 350 36 b 354 26 354 31 354 31 b 361 22 361 26 361 26 b 365 15 361 22 365 22 b 369 11 365 15 369 15 b 379 7 374 11 374 11 b 383 3 379 7 383 3 b 388 3 388 3 388 3 b 397 3 393 3 393 3 b 401 3 397 3 397 3 b 401 -3 401 3 401 3 b 408 -3 401 -3 408 -3 b 408 -3 408 -3 408 -3 b 413 -3 408 -3 413 -3 b 413 -3 413 -3 413 -3 b 417 -3 413 -3 417 -3 b 419 -3 419 -3 419 -3 b 431 -3 426 -3 426 -3 b 440 -3 435 -3 435 -3 b 444 -3 440 -3 444 -3 b 449 3 449 3 449 3 b 453 3 449 3 453 3 b 467 11 458 7 463 7 b 478 22 467 11 474 15 b 492 31 482 22 488 26 b 500 40 496 36 500 36 b 506 44 506 40 506 44 b 510 50 510 44 510 50 b 510 58 510 54 510 54 b 514 69 510 58 514 63 b 521 83 514 74 521 78 b 521 96 521 88 521 92 b 521 106 521 101 521 101 b 521 119 521 110 521 117 b 514 124 514 119 514 119 b 514 131 514 124 514 124 b 510 131 514 131 510 131 b 510 139 510 135 510 135 b 510 143 510 139 510 143 b 506 149 506 143 506 149 b 506 153 506 149 506 149 b 500 157 506 153 500 153 b 496 167 496 163 496 163 b 488 171 492 167 492 167 b 478 178 482 171 482 171 b 467 182 478 178 474 178 b 463 182 467 182 463 182 b 458 182 458 182 458 182 b 453 186 453 182 453 186 b 449 186 449 186 449 186 b 440 186 444 186 444 186 b 435 186 440 186 435 186 b 426 186 431 186 431 186 b 413 186 419 186 417 186 b 397 182 408 186 401 182 b 383 178 393 182 388 178 b 374 171 379 171 374 171 b 361 163 369 167 365 167 b 350 153 361 157 354 157 b 346 143 350 153 350 149 b 340 135 346 143 340 139 b 340 131 340 135 340 135 b 340 131 340 131 340 131 b 340 124 340 124 340 124 b 336 119 340 124 340 119 b 336 117 336 119 336 117 b 336 110 336 117 336 110 b 332 101 332 106 332 101 b 332 92 332 96 332 96 b 332 88 332 92 332 88 b 336 83 336 88 336 83 b 336 78 336 83 336 78 l 336 78 l 336 78 z m 488 110 b 488 106 488 106 488 106 b 482 96 488 101 488 101 b 482 92 482 92 482 92 b 482 88 482 88 482 88 b 482 83 482 88 482 83 b 482 74 482 78 482 78 b 482 69 482 69 482 69 b 482 63 482 63 482 63 b 482 58 482 58 482 58 b 482 50 482 54 482 54 b 478 40 482 50 482 44 b 474 31 478 40 474 36 b 458 22 467 31 463 26 b 449 15 458 22 453 15 b 440 11 444 11 440 11 b 431 11 435 11 435 11 b 419 15 426 11 426 15 b 417 15 419 15 419 15 b 413 15 417 15 413 15 b 397 31 408 22 401 26 b 383 44 393 36 388 40 b 379 50 383 44 383 50 b 379 50 379 50 379 50 b 374 54 379 54 374 54 b 374 58 374 54 374 54 b 374 63 374 58 374 58 b 374 63 374 63 374 63 b 369 78 374 69 374 74 b 369 83 369 78 369 83 b 369 92 369 88 369 88 b 369 101 369 96 369 96 b 369 119 369 110 369 117 b 374 135 369 124 369 131 b 374 139 374 135 374 135 b 374 143 374 139 374 139 b 374 143 374 143 374 143 b 379 149 379 143 379 149 b 379 149 379 149 379 149 b 379 149 379 149 379 149 b 383 153 383 149 383 153 b 388 157 383 153 388 157 b 397 163 388 157 393 163 b 401 167 397 163 401 167 b 408 171 408 167 408 167 b 413 171 413 171 413 171 b 417 171 413 171 417 171 b 417 171 417 171 417 171 b 431 171 419 171 426 171 b 440 167 431 167 435 167 b 449 163 444 167 444 163 b 453 163 449 163 453 163 b 458 153 453 157 458 157 b 463 149 463 153 463 149 b 467 143 463 143 467 143 b 467 139 467 143 467 139 b 474 135 474 139 474 139 b 478 131 474 135 474 131 b 478 119 478 124 478 124 b 478 119 478 119 478 119 b 482 117 478 117 478 117 b 482 110 482 110 482 110 b 488 110 482 110 488 110 l 488 110 z m 689 101 b 689 92 689 96 689 96 b 689 83 689 92 689 88 b 689 83 689 83 689 83 b 689 78 689 78 689 78 b 689 69 689 74 689 74 b 689 63 689 69 689 69 b 689 63 689 63 689 63 b 689 63 689 63 689 63 b 685 63 685 63 685 63 b 681 69 681 69 681 69 b 674 74 674 69 674 74 b 669 74 669 74 669 74 b 665 83 669 78 665 78 b 660 88 665 83 665 88 b 660 88 660 88 660 88 b 656 92 656 88 656 92 b 651 92 651 92 651 92 b 651 96 651 92 651 92 b 647 101 651 96 651 96 b 647 101 647 101 647 101 b 647 106 647 101 647 106 b 642 110 642 106 642 110 b 633 119 638 117 638 117 b 626 131 633 124 626 124 b 622 135 622 131 622 135 b 618 139 618 139 618 139 b 615 149 618 139 615 143 b 604 157 608 149 608 153 b 600 163 604 163 600 163 b 594 167 594 167 594 167 b 590 178 590 171 590 171 b 586 182 586 178 586 182 b 586 186 586 182 586 186 l 579 186 b 576 186 579 186 579 186 b 572 186 576 186 572 186 b 568 182 572 182 568 182 b 561 182 561 182 561 182 b 557 182 561 182 561 182 b 553 186 557 182 553 182 b 543 186 547 186 543 186 b 539 186 539 186 539 186 b 535 186 535 186 535 186 b 535 182 535 186 535 186 b 529 182 535 182 529 182 b 529 171 529 178 529 178 b 529 171 529 171 529 171 b 535 167 529 167 535 167 b 535 167 535 167 535 167 b 539 167 535 167 539 167 b 543 167 539 167 543 167 b 547 167 543 167 543 167 b 547 167 547 167 547 167 b 553 167 553 167 553 167 b 557 163 553 167 553 167 b 557 157 557 163 557 163 b 561 153 557 157 561 157 b 561 153 561 153 561 153 b 561 153 561 153 561 153 l 561 149 b 561 139 561 143 561 143 b 561 135 561 139 561 139 l 561 135 b 561 131 561 131 561 131 b 561 119 561 124 561 124 b 561 117 561 119 561 119 b 561 106 561 110 561 110 b 561 92 561 101 561 96 b 561 83 561 92 561 88 b 561 78 561 83 561 78 b 561 78 561 78 561 78 b 561 74 561 74 561 74 b 561 69 561 74 561 69 b 561 69 561 69 561 69 b 561 63 561 63 561 63 b 561 54 561 58 561 58 b 561 50 561 54 561 50 b 561 44 561 50 561 44 b 561 36 561 40 561 40 b 557 26 561 36 557 31 b 557 22 557 26 557 22 b 557 15 557 15 557 15 b 553 15 557 15 553 15 b 553 15 553 15 553 15 b 547 15 547 15 547 15 b 543 15 543 15 543 15 b 539 15 539 15 539 15 b 535 15 535 15 535 15 b 535 15 535 15 535 15 b 535 7 535 11 535 11 b 535 7 535 7 535 7 b 535 3 535 3 535 3 b 535 -3 535 3 535 -3 b 539 3 535 -3 535 -3 b 543 3 539 3 539 3 b 547 3 543 3 547 3 b 557 3 553 3 553 3 b 561 3 557 3 561 3 b 568 3 568 3 568 3 b 576 3 572 3 576 3 b 590 3 579 3 586 3 b 600 3 594 3 594 3 b 604 -3 600 -3 604 -3 l 604 -3 b 604 3 604 -3 604 3 b 604 3 604 3 604 3 b 608 7 608 7 608 7 b 604 11 608 11 608 11 b 604 11 604 11 604 11 b 600 11 604 11 604 11 b 594 15 600 11 600 15 b 590 15 594 15 590 15 b 586 15 586 15 586 15 b 579 22 579 15 579 22 b 579 26 579 22 579 26 b 576 36 579 31 576 31 b 576 44 576 36 576 40 b 576 44 576 44 576 44 b 576 50 576 50 576 50 b 576 54 576 54 576 54 b 576 58 576 58 576 58 b 576 63 576 58 576 58 b 576 63 576 63 576 63 b 576 69 576 63 576 63 b 576 74 576 69 576 69 b 576 83 576 74 576 78 b 576 88 576 83 576 88 b 576 96 576 92 576 96 b 576 101 576 101 576 101 b 576 106 576 101 576 106 b 576 110 576 106 576 110 b 576 117 576 117 576 117 b 576 119 576 119 576 119 b 576 124 576 124 576 124 b 579 124 576 124 579 124 b 586 117 579 119 586 119 b 594 110 590 117 590 110 b 600 101 594 106 594 106 b 600 101 600 101 600 101 b 604 96 600 96 600 96 b 604 96 604 96 604 96 b 604 92 604 96 604 92 b 608 88 608 92 608 92 b 615 83 608 88 615 88 b 618 78 618 83 618 78 b 622 69 622 74 622 74 b 626 69 626 69 626 69 b 626 69 626 69 626 69 b 633 63 626 63 633 63 b 638 58 633 63 638 58 b 642 54 638 58 638 54 b 642 50 642 54 642 54 b 647 44 647 50 647 50 b 651 40 651 44 651 40 b 656 36 656 40 656 36 b 660 31 660 36 660 31 b 660 31 660 31 660 31 b 665 26 660 31 665 31 b 665 26 665 26 665 26 b 669 22 669 26 669 22 b 681 11 674 15 674 15 b 681 11 681 11 681 11 b 685 7 685 11 685 7 b 685 3 685 7 685 7 b 689 -3 689 3 689 3 b 689 -3 689 -3 689 -3 b 694 -3 689 -3 694 -3 b 699 -3 694 -3 694 -3 b 699 -3 699 -3 699 -3 b 703 -3 703 -3 703 -3 b 703 3 703 -3 703 -3 l 703 26 b 703 31 703 26 703 31 b 703 40 703 36 703 36 b 703 50 703 44 703 44 b 703 58 703 54 703 58 b 703 69 703 63 703 63 b 703 74 703 69 703 74 b 703 74 703 74 703 74 b 703 78 703 78 703 78 b 703 83 703 83 703 83 b 703 88 703 88 703 88 b 703 88 703 88 703 88 b 703 92 703 92 703 92 b 703 96 703 92 703 96 b 703 124 703 106 703 117 b 703 153 703 139 703 143 b 707 167 707 157 707 163 b 713 167 707 167 707 167 b 713 167 713 167 713 167 b 717 167 717 167 717 167 b 728 167 721 167 721 167 b 728 167 728 167 728 167 b 732 167 732 167 732 167 b 732 171 732 167 732 171 b 732 178 732 171 732 171 b 732 182 732 178 732 178 b 732 182 732 182 732 182 b 732 186 732 182 732 186 b 728 182 728 186 728 186 b 717 182 721 182 721 182 b 713 182 717 182 713 182 b 703 182 707 182 707 182 b 699 182 703 182 699 182 b 694 182 699 182 699 182 b 685 182 689 182 689 182 b 674 186 681 182 681 186 b 665 186 669 186 669 186 b 660 186 665 186 660 186 b 660 182 660 186 660 186 b 660 182 660 182 660 182 b 660 178 660 178 660 178 b 660 171 660 171 660 171 b 660 171 660 171 660 171 b 665 171 660 171 665 171 b 674 167 669 171 669 167 b 681 167 674 167 674 167 b 681 167 681 167 681 167 b 685 163 681 167 681 163 b 685 157 685 163 685 157 b 685 153 685 157 685 153 b 685 149 685 149 685 149 b 685 143 685 143 685 143 b 689 135 685 139 685 139 b 689 124 689 131 689 131 b 689 119 689 124 689 124 l 689 101 l 689 101 z m 786 186 b 782 186 786 186 786 186 b 779 186 782 186 782 186 b 775 186 779 186 779 186 b 775 186 775 186 775 186 b 768 186 775 186 768 186 b 764 186 768 186 764 186 b 764 186 764 186 764 186 b 760 186 764 186 760 186 b 760 186 760 186 760 186 b 754 186 754 186 754 186 b 750 190 754 186 750 190 b 750 190 750 190 750 190 b 750 190 750 190 750 190 b 746 190 750 190 746 190 b 746 190 746 190 746 190 b 742 190 746 190 742 190 b 742 186 742 186 742 186 b 742 182 742 186 742 186 b 742 178 742 182 742 178 b 742 167 742 171 742 171 b 736 163 736 167 736 167 b 736 157 736 163 736 163 b 736 153 736 157 736 153 b 736 149 736 149 736 149 b 736 143 736 149 736 143 b 742 143 736 143 742 143 b 742 143 742 143 742 143 b 746 143 746 143 746 143 b 746 143 746 143 746 143 b 746 149 746 143 746 149 b 750 153 746 149 746 153 b 754 163 750 157 750 157 b 754 167 754 163 754 163 b 760 167 760 167 760 167 b 768 167 764 167 764 167 b 779 167 775 167 775 167 b 786 171 779 167 782 167 b 793 171 786 171 793 171 b 797 167 793 171 793 167 b 797 163 797 167 797 167 b 797 163 797 163 797 163 b 797 157 797 163 797 157 b 797 153 797 157 797 157 b 793 153 793 153 793 153 b 793 149 793 149 793 149 b 793 139 793 143 793 143 b 793 135 793 139 793 139 b 793 131 793 135 793 135 b 793 131 793 131 793 131 b 793 124 793 124 793 124 b 793 119 793 124 793 124 l 793 110 b 793 110 793 110 793 110 b 797 106 793 106 793 106 b 797 101 797 106 797 106 b 797 101 797 101 797 101 b 793 92 797 96 793 96 b 793 88 793 92 793 92 b 793 88 793 88 793 88 b 793 83 793 88 793 88 b 797 78 793 83 797 78 b 797 69 797 74 797 74 l 797 69 b 797 63 797 63 797 63 b 793 58 797 63 793 58 b 793 54 793 58 793 58 b 793 54 793 54 793 54 b 797 50 793 50 793 50 b 797 44 797 44 797 44 b 797 40 797 44 797 40 b 797 36 797 40 797 40 b 793 36 797 36 793 36 b 793 31 793 31 793 31 b 793 22 793 26 793 26 b 793 22 793 22 793 22 b 793 15 793 22 793 15 b 793 15 793 15 793 15 b 786 15 793 15 786 15 l 775 15 b 768 15 768 15 768 15 b 768 15 768 15 768 15 b 768 11 768 15 768 11 b 768 7 768 11 768 7 b 768 3 768 7 768 3 b 768 3 768 3 768 3 b 768 3 768 3 768 3 b 768 3 768 3 768 3 b 779 3 775 3 775 3 b 793 3 782 3 786 3 b 801 3 793 3 797 3 b 811 3 807 3 811 3 b 821 3 815 3 815 3 b 833 3 825 3 829 3 b 844 3 840 3 840 3 b 854 -3 849 3 854 3 b 858 -3 858 -3 858 -3 b 863 3 863 -3 863 3 b 863 7 863 3 863 3 b 863 11 863 7 863 7 b 863 15 863 11 863 15 b 858 15 863 15 863 15 b 854 15 858 15 858 15 b 849 15 854 15 849 15 b 840 15 844 15 844 15 b 833 15 840 15 833 15 b 829 22 833 22 833 22 b 829 31 829 26 829 26 b 829 36 829 31 829 31 b 829 40 829 36 829 40 b 829 50 829 40 829 44 b 829 54 829 50 829 54 l 829 58 b 829 63 829 58 829 58 b 829 69 829 63 829 69 b 829 69 829 69 829 69 l 829 74 b 829 74 829 74 829 74 b 829 83 829 78 829 78 b 829 92 829 83 829 88 b 829 92 829 92 829 92 b 829 96 829 96 829 96 b 825 101 825 96 825 101 b 829 106 825 101 825 101 b 829 110 829 106 829 106 b 829 117 829 110 829 110 b 829 117 829 117 829 117 b 829 119 829 119 829 119 b 829 124 829 124 829 124 b 829 131 829 131 829 131 b 829 135 829 131 829 131 b 829 139 829 135 829 135 b 829 143 829 139 829 143 b 829 153 829 149 829 149 b 829 157 829 153 829 157 b 829 163 829 157 829 163 b 829 167 829 167 829 167 b 833 167 829 167 833 167 b 840 171 833 171 833 171 b 844 171 840 171 844 171 b 849 171 844 171 849 171 b 854 171 854 171 854 171 b 858 167 854 167 858 167 b 863 167 858 167 863 167 b 868 167 863 167 863 167 b 868 167 868 167 868 167 b 872 157 868 163 872 163 b 872 153 872 157 872 153 b 872 149 872 149 872 149 b 872 143 872 143 872 143 b 876 143 876 143 876 143 b 881 139 876 143 876 143 b 881 143 881 139 881 143 b 881 143 881 143 881 143 b 888 149 881 143 881 143 b 888 153 888 149 888 153 b 888 163 888 157 888 157 b 888 167 888 167 888 167 b 888 171 888 171 888 171 b 892 182 892 178 892 178 b 892 186 892 182 892 186 b 892 190 892 186 892 190 b 892 190 892 190 892 190 b 888 190 892 190 892 190 b 888 190 888 190 888 190 b 888 190 888 190 888 190 b 881 190 881 190 881 190 b 881 186 881 190 881 190 b 876 186 881 186 876 186 b 872 186 876 186 872 186 b 858 186 868 186 863 186 b 849 186 854 186 854 186 b 840 182 844 186 844 182 b 829 182 840 182 833 182 b 825 182 829 182 829 182 b 821 186 825 186 825 186 l 786 186 l 786 186 z m 1004 92 b 1004 96 1004 92 1004 92 b 1004 96 1004 96 1004 96 b 1000 101 1000 96 1000 101 b 1000 101 1000 101 1000 101 b 996 106 996 106 996 106 b 989 106 996 106 996 106 b 985 110 989 110 989 110 b 981 110 985 110 985 110 b 975 110 981 110 981 110 b 971 117 975 110 975 117 b 967 117 971 117 967 117 b 961 119 961 119 961 119 b 957 119 957 119 957 119 b 953 124 957 124 953 124 b 949 124 953 124 953 124 b 949 124 949 124 949 124 b 942 131 949 124 942 131 b 942 131 942 131 942 131 b 939 135 942 131 942 131 b 939 135 939 135 939 135 b 939 139 939 135 939 139 b 935 143 935 139 935 143 b 935 149 935 143 935 143 b 935 157 935 153 935 153 b 935 163 935 157 935 163 b 939 163 939 163 939 163 b 949 171 939 167 942 167 b 957 171 953 171 953 171 b 967 171 961 171 961 171 l 967 171 b 971 171 971 171 971 171 b 975 171 975 171 975 171 b 981 167 975 171 981 167 b 985 167 981 167 981 167 b 989 167 985 167 985 167 b 989 163 989 167 989 167 b 996 157 996 163 996 163 b 1000 153 996 157 1000 153 b 1004 143 1000 149 1004 149 b 1004 139 1004 139 1004 139 b 1008 135 1004 135 1008 135 b 1008 135 1008 135 1008 135 b 1008 135 1008 135 1008 135 b 1014 135 1014 135 1014 135 b 1018 135 1018 135 1018 135 b 1018 139 1018 135 1018 139 b 1014 149 1018 143 1018 143 b 1014 153 1014 149 1014 153 b 1014 163 1014 157 1014 157 b 1014 163 1014 163 1014 163 b 1014 171 1014 167 1014 167 b 1018 182 1018 178 1018 178 b 1018 186 1018 182 1018 186 b 1014 190 1018 186 1018 190 b 1014 190 1014 190 1014 190 b 1008 190 1008 190 1008 190 b 1008 190 1008 190 1008 190 b 1008 186 1008 190 1008 186 b 1004 182 1004 186 1004 186 b 1004 182 1004 182 1004 182 l 1004 182 b 996 182 1000 182 1000 182 b 985 186 996 186 989 186 b 975 186 985 186 981 186 b 971 186 975 186 971 186 b 961 186 967 186 967 186 b 957 186 961 186 961 186 b 953 186 957 186 953 186 b 942 186 949 186 949 186 b 939 182 942 182 939 182 b 935 182 935 182 935 182 b 928 178 935 182 928 178 b 924 171 928 178 924 178 b 919 167 924 171 919 167 b 914 163 914 167 914 163 b 910 157 914 163 910 163 b 910 153 910 157 910 153 b 906 143 906 149 906 143 b 906 135 906 139 906 135 b 906 131 906 131 906 131 b 906 124 906 131 906 124 b 906 124 906 124 906 124 b 906 119 906 124 906 124 b 906 119 906 119 906 119 b 906 117 906 119 906 119 b 910 110 906 117 906 117 b 910 101 910 106 910 106 b 914 96 914 101 914 96 b 919 96 914 96 919 96 b 924 92 919 96 919 92 b 924 92 924 92 924 92 b 928 88 928 92 928 92 b 928 88 928 88 928 88 b 935 83 928 83 928 83 b 939 78 935 83 935 83 b 953 74 942 78 949 78 b 961 69 953 74 957 69 b 975 63 967 63 971 63 b 985 58 981 58 985 58 b 989 54 989 54 989 54 b 989 50 989 54 989 54 b 996 44 996 50 996 50 b 996 40 996 44 996 44 b 996 36 996 40 996 40 b 996 36 996 36 996 36 b 989 26 996 31 996 26 b 985 15 989 22 989 22 b 971 11 981 15 975 15 b 971 11 971 11 971 11 b 967 11 967 11 967 11 b 957 11 961 11 957 11 b 949 11 953 11 953 11 b 942 15 949 11 942 15 b 939 15 939 15 939 15 b 928 22 935 22 928 22 b 924 31 924 26 924 26 b 919 31 924 31 924 31 b 919 36 919 31 919 36 b 919 36 919 36 919 36 b 914 40 919 40 914 40 b 914 44 914 40 914 44 b 914 50 914 44 914 50 b 910 54 910 54 910 54 b 910 58 910 58 910 58 b 906 58 910 58 906 58 b 901 58 906 58 906 58 b 901 58 901 58 901 58 b 896 58 901 58 896 58 b 901 54 896 54 896 54 b 901 50 901 54 901 50 b 901 44 901 44 901 44 b 901 36 901 40 901 40 b 901 36 901 36 901 36 b 901 26 901 31 901 31 b 906 22 906 26 906 26 b 906 22 906 22 906 22 b 906 15 906 22 906 15 b 906 7 906 11 906 11 b 906 7 906 7 906 7 b 910 7 906 7 906 7 b 914 3 910 7 910 7 l 914 3 b 914 3 914 3 914 3 b 919 3 914 3 919 3 b 919 3 919 3 919 3 b 928 3 924 3 924 3 b 928 -3 928 3 928 -3 b 939 -3 935 -3 935 -3 b 949 -3 942 -3 942 -3 b 953 -3 949 -3 953 -3 b 957 -3 953 -3 957 -3 b 961 -3 957 -3 957 -3 b 961 -3 961 -3 961 -3 b 967 -3 967 -3 967 -3 b 967 -3 967 -3 967 -3 b 971 -3 967 -3 971 -3 b 971 -3 971 -3 971 -3 b 975 -3 971 -3 971 -3 b 975 -3 975 -3 975 -3 b 981 -3 975 -3 981 -3 b 985 3 981 3 981 3 b 989 3 985 3 985 3 b 996 7 989 3 989 7 b 996 7 996 7 996 7 b 1008 22 1004 11 1008 15 b 1018 31 1014 26 1014 31 b 1018 40 1018 36 1018 36 b 1018 44 1018 40 1018 44 l 1018 58 b 1018 58 1018 58 1018 58 b 1018 63 1018 63 1018 63 b 1018 69 1018 63 1018 69 b 1018 78 1018 74 1018 74 b 1014 88 1018 78 1014 83 l 1004 92 l 1004 92 z "}}}
